<svg width="383" height="532" viewBox="0 0 383 532" fill="none" xmlns="http://www.w3.org/2000/svg">
<g clip-path="url(#clip0_80_16)">
<rect width="383" height="532" rx="12" fill="#D5E1FB"/>
<path d="M350.797 386.858C316.31 460.432 224.445 501.648 144.779 490.53C131.816 488.721 96.277 483.332 64.8123 457.908C4.24044 408.965 -8.71334 312.051 40.1481 243.754C75.7107 194.046 139.46 165.868 200.035 167.277C213.083 167.581 263.087 169.452 307.032 202.284C313.487 207.106 327.724 218.566 340.554 236.745C370.682 279.434 373.272 338.908 350.797 386.858Z" fill="url(#paint0_linear_80_16)"/>
<path d="M267.068 339.957C267.068 339.957 266.098 302.979 284.896 293.082C303.693 283.185 339.435 276.997 340.774 223.9C341.559 192.814 342.408 179.223 342.977 173.297C343.199 170.985 340.931 169.119 338.414 169.549C320.611 172.587 262.777 185.095 250.651 220.861C236.277 263.262 267.068 339.957 267.068 339.957Z" fill="#91B3FA"/>
<path d="M324.646 184.322C305.104 200.114 282.506 228.062 270.462 256.01C268.916 260.616 264.393 270.411 262.429 287.815C260.675 302.33 261.547 317.668 263.674 327.82C263.809 328.462 264.492 328.884 265.201 328.762C266.419 328.553 266.257 327.366 266.246 327.403C263.817 310.057 264.825 288.466 270.391 268.985C277.502 245.065 293.362 221.874 309.766 202.204L311.455 200.267C324.164 185.478 326.84 185.369 325.651 184.339C325.371 184.095 324.932 184.093 324.646 184.322Z" fill="#7D97F4"/>
<path d="M234.149 366.191C231.443 366.948 262.954 340.747 279.384 294.87C287.126 273.251 292.013 245.477 307.818 236.764C320.971 229.512 359.473 240.78 372.019 244.765C373.586 245.262 373.808 247.188 372.385 247.964C365.369 251.793 350.181 261.018 344.777 271.73C337.654 285.85 320.52 293.029 306.203 293.588C291.885 294.148 283.737 295.512 273.477 314.65C263.218 333.789 241.839 364.04 234.149 366.191Z" fill="#BDD0FB"/>
<path d="M352.764 248.408C336.173 246.678 317.295 250.962 306.093 262.456L305.033 263.554C302.578 266.134 287.948 284.873 278.854 300.84C278.741 301.039 278.827 301.284 279.046 301.387C279.42 301.561 279.685 301.197 279.642 301.226C285.591 292.322 293.856 281.136 300.337 272.814C307.317 263.719 312.162 257.577 325.284 252.906C339.849 247.938 352.742 249.055 352.703 249.057C352.901 249.066 353.07 248.929 353.081 248.75C353.091 248.577 352.95 248.428 352.764 248.408Z" fill="#91B3FA"/>
<path d="M359.611 453.96H261.124V310.446H362.161V451.649C362.161 452.925 361.019 453.96 359.611 453.96Z" fill="url(#paint1_linear_80_16)"/>
<path d="M364.353 309.864H353.976V453.097H364.353V309.864Z" fill="url(#paint2_linear_80_16)"/>
<path d="M364.422 454.147H354.546C353.524 454.147 352.695 453.396 352.695 452.47V404.149C352.695 403.222 353.524 402.472 354.546 402.472H364.422C365.444 402.472 366.273 403.222 366.273 404.149V452.47C366.273 453.396 365.445 454.147 364.422 454.147Z" fill="url(#paint3_linear_80_16)"/>
<path d="M367.597 455.617H352.772C352.259 455.617 351.842 455.24 351.842 454.774V440.033C351.842 439.568 352.258 439.19 352.772 439.19H367.597C368.111 439.19 368.528 439.568 368.528 440.033V454.774C368.528 455.24 368.111 455.617 367.597 455.617Z" fill="url(#paint4_linear_80_16)"/>
<g opacity="0.89">
<path d="M294.361 352.44H308.038C308.118 352.44 308.183 352.381 308.183 352.309V329.808C308.183 329.735 308.118 329.676 308.038 329.676H294.361C294.281 329.676 294.216 329.735 294.216 329.808V352.309C294.216 352.381 294.281 352.44 294.361 352.44Z" fill="white"/>
<path d="M301.822 351.21H307.084C307.129 351.21 307.165 351.177 307.165 351.137V330.98C307.165 330.939 307.129 330.907 307.084 330.907H301.822C301.778 330.907 301.742 330.939 301.742 330.98V351.137C301.742 351.177 301.778 351.21 301.822 351.21Z" fill="url(#paint5_linear_80_16)"/>
<path d="M295.315 351.21H300.576C300.621 351.21 300.657 351.177 300.657 351.137V330.98C300.657 330.939 300.621 330.907 300.576 330.907H295.315C295.27 330.907 295.234 330.939 295.234 330.98V351.137C295.234 351.177 295.27 351.21 295.315 351.21Z" fill="url(#paint6_linear_80_16)"/>
<path d="M308.038 337.266H294.216V337.916H308.038V337.266Z" fill="white"/>
<path d="M308.038 344.3H294.216V344.949H308.038V344.3Z" fill="white"/>
</g>
<g opacity="0.89">
<path d="M294.476 386.76H308.154C308.234 386.76 308.299 386.702 308.299 386.629V364.128C308.299 364.055 308.234 363.997 308.154 363.997H294.476C294.396 363.997 294.331 364.055 294.331 364.128V386.629C294.331 386.702 294.396 386.76 294.476 386.76Z" fill="white"/>
<path d="M301.938 385.53H307.2C307.244 385.53 307.28 385.497 307.28 385.457V365.3C307.28 365.26 307.244 365.227 307.2 365.227H301.938C301.893 365.227 301.857 365.26 301.857 365.3V385.457C301.857 385.497 301.893 385.53 301.938 385.53Z" fill="url(#paint7_linear_80_16)"/>
<path d="M295.43 385.53H300.692C300.737 385.53 300.773 385.497 300.773 385.457V365.3C300.773 365.26 300.736 365.227 300.692 365.227H295.43C295.386 365.227 295.35 365.26 295.35 365.3V385.457C295.35 385.497 295.386 385.53 295.43 385.53Z" fill="url(#paint8_linear_80_16)"/>
<path d="M308.153 371.586H294.331V372.236H308.153V371.586Z" fill="white"/>
<path d="M308.153 378.62H294.331V379.27H308.153V378.62Z" fill="white"/>
</g>
<g opacity="0.89">
<path d="M294.592 422.97H308.269C308.349 422.97 308.414 422.911 308.414 422.839V400.337C308.414 400.265 308.349 400.206 308.269 400.206H294.592C294.512 400.206 294.447 400.265 294.447 400.337V422.839C294.447 422.911 294.512 422.97 294.592 422.97Z" fill="white"/>
<path d="M302.053 421.739H307.315C307.36 421.739 307.396 421.707 307.396 421.666V401.51C307.396 401.469 307.36 401.437 307.315 401.437H302.053C302.009 401.437 301.973 401.469 301.973 401.51V421.666C301.973 421.707 302.009 421.739 302.053 421.739Z" fill="url(#paint9_linear_80_16)"/>
<path d="M295.546 421.739H300.808C300.852 421.739 300.888 421.707 300.888 421.666V401.51C300.888 401.469 300.852 401.437 300.808 401.437H295.546C295.501 401.437 295.465 401.469 295.465 401.51V421.666C295.465 421.707 295.501 421.739 295.546 421.739Z" fill="url(#paint10_linear_80_16)"/>
<path d="M308.269 407.796H294.447V408.445H308.269V407.796Z" fill="white"/>
<path d="M308.269 414.83H294.447V415.479H308.269V414.83Z" fill="white"/>
</g>
<g opacity="0.89">
<path d="M328.543 352.076H342.22C342.3 352.076 342.365 352.017 342.365 351.944V329.443C342.365 329.371 342.3 329.312 342.22 329.312H328.543C328.463 329.312 328.398 329.371 328.398 329.443V351.944C328.398 352.017 328.463 352.076 328.543 352.076Z" fill="white"/>
<path d="M336.004 350.845H341.266C341.311 350.845 341.347 350.813 341.347 350.772V330.615C341.347 330.575 341.311 330.542 341.266 330.542H336.004C335.96 330.542 335.924 330.575 335.924 330.615V350.772C335.924 350.813 335.96 350.845 336.004 350.845Z" fill="url(#paint11_linear_80_16)"/>
<path d="M329.497 350.845H334.758C334.803 350.845 334.839 350.813 334.839 350.772V330.615C334.839 330.575 334.803 330.542 334.758 330.542H329.497C329.452 330.542 329.416 330.575 329.416 330.615V350.772C329.416 350.813 329.452 350.845 329.497 350.845Z" fill="url(#paint12_linear_80_16)"/>
<path d="M342.22 336.902H328.398V337.551H342.22V336.902Z" fill="white"/>
<path d="M342.22 343.936H328.398V344.585H342.22V343.936Z" fill="white"/>
</g>
<g opacity="0.89">
<path d="M328.659 386.783H342.336C342.416 386.783 342.481 386.724 342.481 386.651V364.15C342.481 364.078 342.416 364.019 342.336 364.019H328.659C328.579 364.019 328.514 364.078 328.514 364.15V386.651C328.514 386.724 328.579 386.783 328.659 386.783Z" fill="white"/>
<path d="M336.12 385.552H341.382C341.426 385.552 341.462 385.52 341.462 385.479V365.323C341.462 365.282 341.426 365.25 341.382 365.25H336.12C336.075 365.25 336.039 365.282 336.039 365.323V385.479C336.039 385.52 336.075 385.552 336.12 385.552Z" fill="url(#paint13_linear_80_16)"/>
<path d="M329.612 385.552H334.874C334.919 385.552 334.955 385.52 334.955 385.479V365.323C334.955 365.282 334.918 365.25 334.874 365.25H329.612C329.568 365.25 329.532 365.282 329.532 365.323V385.479C329.532 385.52 329.568 385.552 329.612 385.552Z" fill="url(#paint14_linear_80_16)"/>
<path d="M342.335 371.609H328.513V372.258H342.335V371.609Z" fill="white"/>
<path d="M342.335 378.643H328.513V379.292H342.335V378.643Z" fill="white"/>
</g>
<g opacity="0.89">
<path d="M328.774 422.992H342.451C342.531 422.992 342.596 422.933 342.596 422.861V400.36C342.596 400.287 342.531 400.229 342.451 400.229H328.774C328.694 400.229 328.629 400.287 328.629 400.36V422.861C328.629 422.933 328.694 422.992 328.774 422.992Z" fill="white"/>
<path d="M336.235 421.762H341.497C341.542 421.762 341.578 421.729 341.578 421.689V401.532C341.578 401.492 341.542 401.459 341.497 401.459H336.235C336.191 401.459 336.155 401.492 336.155 401.532V421.689C336.155 421.729 336.191 421.762 336.235 421.762Z" fill="url(#paint15_linear_80_16)"/>
<path d="M329.728 421.762H334.99C335.034 421.762 335.07 421.729 335.07 421.689V401.532C335.07 401.492 335.034 401.459 334.99 401.459H329.728C329.683 401.459 329.647 401.492 329.647 401.532V421.689C329.647 421.729 329.683 421.762 329.728 421.762Z" fill="url(#paint16_linear_80_16)"/>
<path d="M342.451 407.818H328.629V408.468H342.451V407.818Z" fill="white"/>
<path d="M342.451 414.852H328.629V415.502H342.451V414.852Z" fill="white"/>
</g>
<path d="M372.858 315.563H267.408L210.087 279.103H350.28L377.012 312.505C378.419 313.931 376.203 315.563 372.858 315.563Z" fill="url(#paint17_linear_80_16)"/>
<path d="M350.837 280.884L213.808 282.668L210.162 276.831L341.232 275.697C346.149 275.697 350.135 277.107 350.135 278.847L350.837 280.884Z" fill="url(#paint18_linear_80_16)"/>
<path d="M23.3892 455.096H121.876V311.678H20.839V452.785C20.839 454.061 21.9807 455.096 23.3892 455.096Z" fill="url(#paint19_linear_80_16)"/>
<path d="M18.6471 455.447H29.0242V311.096H18.6471V455.447Z" fill="url(#paint20_linear_80_16)"/>
<path d="M17.752 456.505H29.2791C29.8454 456.505 30.3044 456.089 30.3044 455.576V405.356C30.3044 404.843 29.8454 404.427 29.2791 404.427H17.752C17.1857 404.427 16.7267 404.843 16.7267 405.356V455.576C16.7267 456.089 17.1858 456.505 17.752 456.505Z" fill="url(#paint21_linear_80_16)"/>
<path d="M15.4026 457.987H30.2275C30.7413 457.987 31.1578 457.609 31.1578 457.144V442.275C31.1578 441.809 30.7413 441.432 30.2275 441.432H15.4026C14.8888 441.432 14.4723 441.809 14.4723 442.275V457.144C14.4723 457.609 14.8888 457.987 15.4026 457.987Z" fill="url(#paint22_linear_80_16)"/>
<g opacity="0.89">
<path d="M88.6393 353.672H74.9617C74.8817 353.672 74.8168 353.613 74.8168 353.541V331.04C74.8168 330.967 74.8817 330.908 74.9617 330.908H88.6393C88.7194 330.908 88.7843 330.967 88.7843 331.04V353.541C88.7843 353.613 88.7194 353.672 88.6393 353.672Z" fill="white"/>
<path d="M81.1777 352.442H75.9158C75.8712 352.442 75.8352 352.409 75.8352 352.369V332.212C75.8352 332.171 75.8713 332.139 75.9158 332.139H81.1777C81.2222 332.139 81.2582 332.171 81.2582 332.212V352.369C81.2582 352.409 81.2222 352.442 81.1777 352.442Z" fill="url(#paint23_linear_80_16)"/>
<path d="M87.6852 352.442H82.4234C82.3789 352.442 82.3429 352.409 82.3429 352.369V332.212C82.3429 332.171 82.3789 332.139 82.4234 332.139H87.6852C87.7298 332.139 87.7658 332.171 87.7658 332.212V352.369C87.7659 352.409 87.7298 352.442 87.6852 352.442Z" fill="url(#paint24_linear_80_16)"/>
<path d="M74.9621 339.147H88.7843V338.498H74.9621V339.147Z" fill="white"/>
<path d="M74.9621 346.181H88.7843V345.532H74.9621V346.181Z" fill="white"/>
</g>
<g opacity="0.89">
<path d="M88.5238 387.992H74.8462C74.7662 387.992 74.7012 387.934 74.7012 387.861V365.36C74.7012 365.287 74.7662 365.229 74.8462 365.229H88.5238C88.6038 365.229 88.6688 365.287 88.6688 365.36V387.861C88.6688 387.934 88.6038 387.992 88.5238 387.992Z" fill="white"/>
<path d="M81.0621 386.762H75.8003C75.7558 386.762 75.7198 386.729 75.7198 386.689V366.532C75.7198 366.492 75.7559 366.459 75.8003 366.459H81.0621C81.1066 366.459 81.1427 366.492 81.1427 366.532V386.689C81.1427 386.729 81.1066 386.762 81.0621 386.762Z" fill="url(#paint25_linear_80_16)"/>
<path d="M87.5698 386.762H82.308C82.2635 386.762 82.2274 386.729 82.2274 386.689V366.532C82.2274 366.492 82.2635 366.459 82.308 366.459H87.5698C87.6143 366.459 87.6503 366.492 87.6503 366.532V386.689C87.6503 386.729 87.6142 386.762 87.5698 386.762Z" fill="url(#paint26_linear_80_16)"/>
<path d="M74.8466 373.468H88.6688V372.818H74.8466V373.468Z" fill="white"/>
<path d="M74.8466 380.501H88.6688V379.852H74.8466V380.501Z" fill="white"/>
</g>
<g opacity="0.89">
<path d="M88.4082 424.202H74.7307C74.6506 424.202 74.5857 424.143 74.5857 424.07V401.569C74.5857 401.497 74.6506 401.438 74.7307 401.438H88.4082C88.4883 401.438 88.5532 401.497 88.5532 401.569V424.07C88.5532 424.143 88.4883 424.202 88.4082 424.202Z" fill="white"/>
<path d="M80.9466 422.971H75.6848C75.6402 422.971 75.6042 422.939 75.6042 422.898V402.741C75.6042 402.701 75.6402 402.668 75.6848 402.668H80.9466C80.9911 402.668 81.0271 402.701 81.0271 402.741V422.898C81.0271 422.939 80.9911 422.971 80.9466 422.971Z" fill="url(#paint27_linear_80_16)"/>
<path d="M87.4542 422.971H82.1925C82.1479 422.971 82.1119 422.939 82.1119 422.898V402.741C82.1119 402.701 82.1479 402.668 82.1925 402.668H87.4542C87.4988 402.668 87.5348 402.701 87.5348 402.741V422.898C87.5348 422.939 87.4987 422.971 87.4542 422.971Z" fill="url(#paint28_linear_80_16)"/>
<path d="M74.731 409.677H88.5532V409.028H74.731V409.677Z" fill="white"/>
<path d="M74.731 416.711H88.5532V416.061H74.731V416.711Z" fill="white"/>
</g>
<g opacity="0.89">
<path d="M54.4573 353.308H40.7799C40.6998 353.308 40.6349 353.249 40.6349 353.176V330.675C40.6349 330.603 40.6998 330.544 40.7799 330.544H54.4575C54.5375 330.544 54.6024 330.603 54.6024 330.675V353.176C54.6023 353.249 54.5374 353.308 54.4573 353.308Z" fill="white"/>
<path d="M46.9958 352.077H41.7339C41.6893 352.077 41.6533 352.045 41.6533 352.004V331.847C41.6533 331.807 41.6893 331.774 41.7339 331.774H46.9958C47.0403 331.774 47.0763 331.807 47.0763 331.847V352.004C47.0763 352.045 47.0402 352.077 46.9958 352.077Z" fill="url(#paint29_linear_80_16)"/>
<path d="M53.5033 352.077H48.2416C48.197 352.077 48.161 352.045 48.161 352.004V331.847C48.161 331.807 48.1971 331.774 48.2416 331.774H53.5033C53.5479 331.774 53.5839 331.807 53.5839 331.847V352.004C53.5839 352.045 53.5479 352.077 53.5033 352.077Z" fill="url(#paint30_linear_80_16)"/>
<path d="M40.7802 338.783H54.6024V338.134H40.7802V338.783Z" fill="white"/>
<path d="M40.7802 345.817H54.6024V345.167H40.7802V345.817Z" fill="white"/>
</g>
<g opacity="0.89">
<path d="M54.3418 388.015H40.6643C40.5843 388.015 40.5193 387.956 40.5193 387.883V365.382C40.5193 365.31 40.5843 365.251 40.6643 365.251H54.3419C54.422 365.251 54.4869 365.31 54.4869 365.382V387.883C54.4868 387.956 54.422 388.015 54.3418 388.015Z" fill="white"/>
<path d="M46.8802 386.784H41.6185C41.5739 386.784 41.5379 386.752 41.5379 386.711V366.554C41.5379 366.514 41.5739 366.481 41.6185 366.481H46.8802C46.9248 366.481 46.9608 366.514 46.9608 366.554V386.711C46.9608 386.752 46.9246 386.784 46.8802 386.784Z" fill="url(#paint31_linear_80_16)"/>
<path d="M53.3878 386.784H48.126C48.0815 386.784 48.0454 386.752 48.0454 386.711V366.554C48.0454 366.514 48.0815 366.481 48.126 366.481H53.3878C53.4323 366.481 53.4683 366.514 53.4683 366.554V386.711C53.4683 386.752 53.4323 386.784 53.3878 386.784Z" fill="url(#paint32_linear_80_16)"/>
<path d="M40.6647 373.49H54.4869V372.841H40.6647V373.49Z" fill="white"/>
<path d="M40.6647 380.524H54.4869V379.874H40.6647V380.524Z" fill="white"/>
</g>
<g opacity="0.89">
<path d="M54.2262 424.224H40.5488C40.4687 424.224 40.4038 424.165 40.4038 424.092V401.591C40.4038 401.519 40.4687 401.46 40.5488 401.46H54.2263C54.3064 401.46 54.3713 401.519 54.3713 401.591V424.092C54.3712 424.165 54.3064 424.224 54.2262 424.224Z" fill="white"/>
<path d="M46.7647 422.993H41.5029C41.4583 422.993 41.4223 422.961 41.4223 422.92V402.763C41.4223 402.723 41.4583 402.69 41.5029 402.69H46.7647C46.8092 402.69 46.8452 402.723 46.8452 402.763V422.92C46.8452 422.961 46.8091 422.993 46.7647 422.993Z" fill="url(#paint33_linear_80_16)"/>
<path d="M53.2722 422.993H48.0105C47.9659 422.993 47.9299 422.961 47.9299 422.92V402.763C47.9299 402.723 47.966 402.69 48.0105 402.69H53.2722C53.3168 402.69 53.3528 402.723 53.3528 402.763V422.92C53.3528 422.961 53.3168 422.993 53.2722 422.993Z" fill="url(#paint34_linear_80_16)"/>
<path d="M40.5491 409.699H54.3713V409.05H40.5491V409.699Z" fill="white"/>
<path d="M40.5491 416.733H54.3713V416.083H40.5491V416.733Z" fill="white"/>
</g>
<path d="M10.1421 316.794H115.592L172.913 283.23H32.72L5.98808 313.979C4.58064 315.292 6.7967 316.794 10.1421 316.794Z" fill="url(#paint35_linear_80_16)"/>
<path d="M31.2137 283.168L168.242 284.952L171.889 279.115L40.818 277.981C35.9013 277.981 31.9157 279.392 31.9157 281.132L31.2137 283.168Z" fill="url(#paint36_linear_80_16)"/>
<path d="M275.017 312.766H103.685V455.096H275.017V312.766Z" fill="url(#paint37_linear_80_16)"/>
<path d="M280.778 311.13H270.401V454.484H280.778V311.13Z" fill="url(#paint38_linear_80_16)"/>
<path d="M280.848 455.535H270.972C269.95 455.535 269.121 454.785 269.121 453.858V405.493C269.121 404.567 269.95 403.816 270.972 403.816H280.848C281.87 403.816 282.699 404.567 282.699 405.493V453.858C282.699 454.785 281.87 455.535 280.848 455.535Z" fill="url(#paint39_linear_80_16)"/>
<path d="M284.023 457.007H269.198C268.684 457.007 268.267 456.63 268.267 456.164V441.409C268.267 440.944 268.684 440.566 269.198 440.566H284.023C284.536 440.566 284.953 440.944 284.953 441.409V456.164C284.953 456.63 284.536 457.007 284.023 457.007Z" fill="url(#paint40_linear_80_16)"/>
<path d="M96.7218 312.239L284.017 312.825C285.351 312.829 285.864 311.252 284.741 310.6L193.819 257.837L96.1499 310.337C95.165 310.867 95.5764 312.235 96.7218 312.239Z" fill="url(#paint41_linear_80_16)"/>
<path d="M103.685 313.134L275.017 312.766L193.819 264.707L103.685 313.134Z" fill="url(#paint42_linear_80_16)"/>
<path d="M114.062 311.13H103.685V453.959H114.062V311.13Z" fill="url(#paint43_linear_80_16)"/>
<path d="M114.598 455.01H103.789C103.024 455.01 102.405 454.449 102.405 453.756V404.546C102.405 403.853 103.024 403.292 103.789 403.292H114.598C115.363 403.292 115.982 403.853 115.982 404.546V453.756C115.982 454.449 115.363 455.01 114.598 455.01Z" fill="url(#paint44_linear_80_16)"/>
<path d="M117.307 456.482H102.482C101.968 456.482 101.551 456.105 101.551 455.639V440.884C101.551 440.419 101.968 440.041 102.482 440.041H117.307C117.82 440.041 118.237 440.418 118.237 440.884V455.639C118.237 456.105 117.82 456.482 117.307 456.482Z" fill="url(#paint45_linear_80_16)"/>
<path d="M168.118 315.312H157.741V458.666H168.118V315.312Z" fill="url(#paint46_linear_80_16)"/>
<path d="M169.054 459.718H157.445C156.901 459.718 156.461 459.318 156.461 458.826V408.89C156.461 408.398 156.901 407.999 157.445 407.999H169.054C169.598 407.999 170.039 408.398 170.039 408.89V458.826C170.039 459.318 169.598 459.718 169.054 459.718Z" fill="url(#paint47_linear_80_16)"/>
<path d="M171.363 461.189H156.538C156.024 461.189 155.607 460.812 155.607 460.346V445.591C155.607 445.126 156.024 444.749 156.538 444.749H171.363C171.876 444.749 172.293 445.126 172.293 445.591V460.346C172.293 460.812 171.876 461.189 171.363 461.189Z" fill="url(#paint48_linear_80_16)"/>
<path d="M232.343 314.638H221.966V457.992H232.343V314.638Z" fill="url(#paint49_linear_80_16)"/>
<path d="M233.367 459.043H221.581C221.087 459.043 220.686 458.679 220.686 458.231V408.135C220.686 407.687 221.087 407.324 221.581 407.324H233.367C233.862 407.324 234.263 407.687 234.263 408.135V458.231C234.263 458.679 233.862 459.043 233.367 459.043Z" fill="url(#paint50_linear_80_16)"/>
<path d="M235.587 460.514H220.763C220.249 460.514 219.832 460.137 219.832 459.671V444.916C219.832 444.451 220.249 444.073 220.763 444.073H235.587C236.101 444.073 236.518 444.451 236.518 444.916V459.671C236.518 460.137 236.101 460.514 235.587 460.514Z" fill="url(#paint51_linear_80_16)"/>
<g opacity="0.89">
<path d="M129.87 423.353H143.547C143.627 423.353 143.692 423.294 143.692 423.221V398.4C143.692 398.328 143.627 398.269 143.547 398.269H129.87C129.79 398.269 129.725 398.328 129.725 398.4V423.221C129.725 423.294 129.79 423.353 129.87 423.353Z" fill="white"/>
<path d="M137.332 421.997H142.593C142.638 421.997 142.674 421.964 142.674 421.924V399.698C142.674 399.658 142.638 399.625 142.593 399.625H137.332C137.287 399.625 137.251 399.658 137.251 399.698V421.924C137.251 421.964 137.287 421.997 137.332 421.997Z" fill="url(#paint52_linear_80_16)"/>
<path d="M130.824 421.997H136.086C136.13 421.997 136.166 421.964 136.166 421.924V399.698C136.166 399.658 136.13 399.625 136.086 399.625H130.824C130.779 399.625 130.743 399.658 130.743 399.698V421.924C130.743 421.964 130.779 421.997 130.824 421.997Z" fill="url(#paint53_linear_80_16)"/>
<path d="M143.547 406.632H129.725V407.348H143.547V406.632Z" fill="white"/>
<path d="M143.547 414.383H129.725V415.098H143.547V414.383Z" fill="white"/>
</g>
<g opacity="0.89">
<path d="M129.541 389.342H143.218C143.299 389.342 143.363 389.283 143.363 389.21V364.389C143.363 364.317 143.299 364.258 143.218 364.258H129.541C129.461 364.258 129.396 364.317 129.396 364.389V389.21C129.396 389.283 129.461 389.342 129.541 389.342Z" fill="white"/>
<path d="M137.003 387.986H142.264C142.309 387.986 142.345 387.953 142.345 387.913V365.687C142.345 365.646 142.309 365.614 142.264 365.614H137.003C136.958 365.614 136.922 365.646 136.922 365.687V387.913C136.922 387.953 136.958 387.986 137.003 387.986Z" fill="url(#paint54_linear_80_16)"/>
<path d="M130.495 387.986H135.757C135.801 387.986 135.837 387.953 135.837 387.913V365.687C135.837 365.646 135.801 365.614 135.757 365.614H130.495C130.45 365.614 130.414 365.646 130.414 365.687V387.913C130.414 387.953 130.45 387.986 130.495 387.986Z" fill="url(#paint55_linear_80_16)"/>
<path d="M143.218 372.621H129.396V373.337H143.218V372.621Z" fill="white"/>
<path d="M143.218 380.372H129.396V381.087H143.218V380.372Z" fill="white"/>
</g>
<g opacity="0.89">
<path d="M245.313 422.821H258.991C259.071 422.821 259.136 422.762 259.136 422.69V397.869C259.136 397.796 259.071 397.737 258.991 397.737H245.313C245.233 397.737 245.168 397.796 245.168 397.869V422.69C245.168 422.762 245.233 422.821 245.313 422.821Z" fill="white"/>
<path d="M252.775 421.465H258.037C258.081 421.465 258.117 421.433 258.117 421.392V399.166C258.117 399.126 258.081 399.093 258.037 399.093H252.775C252.73 399.093 252.694 399.126 252.694 399.166V421.392C252.694 421.433 252.73 421.465 252.775 421.465Z" fill="url(#paint56_linear_80_16)"/>
<path d="M246.267 421.465H251.529C251.574 421.465 251.61 421.433 251.61 421.392V399.166C251.61 399.126 251.574 399.093 251.529 399.093H246.267C246.223 399.093 246.187 399.126 246.187 399.166V421.392C246.187 421.433 246.223 421.465 246.267 421.465Z" fill="url(#paint57_linear_80_16)"/>
<path d="M258.99 406.101H245.168V406.816H258.99V406.101Z" fill="white"/>
<path d="M258.99 413.851H245.168V414.567H258.99V413.851Z" fill="white"/>
</g>
<g opacity="0.89">
<path d="M244.984 388.81H258.662C258.742 388.81 258.807 388.751 258.807 388.678V363.857C258.807 363.785 258.742 363.726 258.662 363.726H244.984C244.904 363.726 244.839 363.785 244.839 363.857V388.678C244.839 388.751 244.904 388.81 244.984 388.81Z" fill="white"/>
<path d="M252.446 387.454H257.708C257.752 387.454 257.788 387.421 257.788 387.381V365.155C257.788 365.115 257.752 365.082 257.708 365.082H252.446C252.401 365.082 252.365 365.115 252.365 365.155V387.381C252.365 387.421 252.401 387.454 252.446 387.454Z" fill="url(#paint58_linear_80_16)"/>
<path d="M245.938 387.454H251.2C251.245 387.454 251.281 387.421 251.281 387.381V365.155C251.281 365.115 251.244 365.082 251.2 365.082H245.938C245.894 365.082 245.858 365.115 245.858 365.155V387.381C245.858 387.421 245.894 387.454 245.938 387.454Z" fill="url(#paint59_linear_80_16)"/>
<path d="M258.661 372.089H244.839V372.805H258.661V372.089Z" fill="white"/>
<path d="M258.661 379.84H244.839V380.556H258.661V379.84Z" fill="white"/>
</g>
<path d="M193.859 299.647C198.928 299.647 203.038 295.923 203.038 291.33C203.038 286.737 198.928 283.013 193.859 283.013C188.789 283.013 184.68 286.737 184.68 291.33C184.68 295.923 188.789 299.647 193.859 299.647Z" fill="url(#paint60_linear_80_16)"/>
<path d="M193.859 298.429C198.186 298.429 201.694 295.25 201.694 291.33C201.694 287.409 198.186 284.231 193.859 284.231C189.532 284.231 186.024 287.409 186.024 291.33C186.024 295.25 189.532 298.429 193.859 298.429Z" fill="url(#paint61_linear_80_16)"/>
<path d="M211.764 453.543H179.332V412.19C182.255 395.97 210.733 396.538 211.764 412.19V453.543Z" fill="url(#paint62_linear_80_16)"/>
<path d="M209.639 453.543H181.457V414.334C183.997 398.955 208.743 399.493 209.639 414.334V453.543Z" fill="url(#paint63_linear_80_16)"/>
<path d="M213.248 452.597H177.999V449.074C177.999 448.869 178.183 448.703 178.409 448.703H212.839C213.065 448.703 213.248 448.869 213.248 449.074V452.597Z" fill="url(#paint64_linear_80_16)"/>
<path d="M213.248 455.075H177.999V451.552C177.999 451.347 178.183 451.181 178.409 451.181H212.839C213.065 451.181 213.248 451.347 213.248 451.552V455.075Z" fill="url(#paint65_linear_80_16)"/>
<path d="M244.865 355.3H258.354C258.486 355.3 258.593 355.203 258.593 355.083V330.216C258.448 322.349 245.214 322.156 244.626 330.216V355.083C244.626 355.203 244.733 355.3 244.865 355.3Z" fill="white"/>
<path d="M252.233 353.944H257.494C257.539 353.944 257.575 353.912 257.575 353.871V331.645C257.575 331.605 257.539 331.572 257.494 331.572H252.233C252.188 331.572 252.152 331.605 252.152 331.645V353.871C252.152 353.912 252.188 353.944 252.233 353.944Z" fill="url(#paint66_linear_80_16)"/>
<path d="M245.725 353.944H250.987C251.031 353.944 251.067 353.912 251.067 353.871V331.645C251.067 331.605 251.031 331.572 250.987 331.572H245.725C245.68 331.572 245.644 331.605 245.644 331.645V353.871C245.644 353.912 245.68 353.944 245.725 353.944Z" fill="url(#paint67_linear_80_16)"/>
<path d="M258.448 338.58H244.626V339.295H258.448V338.58Z" fill="white"/>
<path d="M258.448 346.33H244.626V347.046H258.448V346.33Z" fill="white"/>
<path d="M245.712 330.871C246.032 323.551 257.341 323.145 257.661 330.871H245.712Z" fill="url(#paint68_linear_80_16)"/>
<path d="M174.24 355.3H187.728C187.86 355.3 187.968 355.203 187.968 355.083V330.216C187.822 322.349 174.588 322.156 174 330.216V355.083C174 355.203 174.107 355.3 174.24 355.3Z" fill="white"/>
<path d="M181.607 353.944H186.868C186.913 353.944 186.949 353.912 186.949 353.871V331.645C186.949 331.605 186.913 331.572 186.868 331.572H181.607C181.562 331.572 181.526 331.605 181.526 331.645V353.871C181.526 353.912 181.562 353.944 181.607 353.944Z" fill="url(#paint69_linear_80_16)"/>
<path d="M175.099 353.944H180.361C180.405 353.944 180.441 353.912 180.441 353.871V331.645C180.441 331.605 180.405 331.572 180.361 331.572H175.099C175.054 331.572 175.018 331.605 175.018 331.645V353.871C175.018 353.912 175.055 353.944 175.099 353.944Z" fill="url(#paint70_linear_80_16)"/>
<path d="M187.822 338.58H174V339.295H187.822V338.58Z" fill="white"/>
<path d="M187.822 346.33H174V347.046H187.822V346.33Z" fill="white"/>
<path d="M175.086 330.871C175.406 323.551 186.715 323.145 187.035 330.871H175.086Z" fill="url(#paint71_linear_80_16)"/>
<path d="M200.271 355.3H213.759C213.892 355.3 213.999 355.203 213.999 355.083V330.216C213.853 322.349 200.62 322.156 200.031 330.216V355.083C200.031 355.203 200.139 355.3 200.271 355.3Z" fill="white"/>
<path d="M207.638 353.944H212.9C212.944 353.944 212.98 353.912 212.98 353.871V331.645C212.98 331.605 212.944 331.572 212.9 331.572H207.638C207.593 331.572 207.557 331.605 207.557 331.645V353.871C207.557 353.912 207.593 353.944 207.638 353.944Z" fill="url(#paint72_linear_80_16)"/>
<path d="M201.13 353.944H206.392C206.437 353.944 206.473 353.912 206.473 353.871V331.645C206.473 331.605 206.437 331.572 206.392 331.572H201.13C201.086 331.572 201.05 331.605 201.05 331.645V353.871C201.05 353.912 201.086 353.944 201.13 353.944Z" fill="url(#paint73_linear_80_16)"/>
<path d="M213.853 338.58H200.031V339.295H213.853V338.58Z" fill="white"/>
<path d="M213.853 346.33H200.031V347.046H213.853V346.33Z" fill="white"/>
<path d="M201.118 330.871C201.438 323.551 212.746 323.145 213.066 330.871H201.118Z" fill="url(#paint74_linear_80_16)"/>
<path d="M130.072 355.3H143.56C143.692 355.3 143.8 355.203 143.8 355.083V330.216C143.654 322.349 130.421 322.156 129.832 330.216V355.083C129.832 355.203 129.939 355.3 130.072 355.3Z" fill="white"/>
<path d="M137.439 353.944H142.7C142.745 353.944 142.781 353.912 142.781 353.871V331.645C142.781 331.605 142.745 331.572 142.7 331.572H137.439C137.394 331.572 137.358 331.605 137.358 331.645V353.871C137.358 353.912 137.394 353.944 137.439 353.944Z" fill="url(#paint75_linear_80_16)"/>
<path d="M130.931 353.944H136.193C136.237 353.944 136.273 353.912 136.273 353.871V331.645C136.273 331.605 136.237 331.572 136.193 331.572H130.931C130.887 331.572 130.851 331.605 130.851 331.645V353.871C130.85 353.912 130.887 353.944 130.931 353.944Z" fill="url(#paint76_linear_80_16)"/>
<path d="M143.654 338.58H129.832V339.295H143.654V338.58Z" fill="white"/>
<path d="M143.654 346.33H129.832V347.046H143.654V346.33Z" fill="white"/>
<path d="M130.918 330.871C131.238 323.551 142.547 323.145 142.867 330.871H130.918Z" fill="url(#paint77_linear_80_16)"/>
<path d="M283.252 321.973H97.3738C96.211 321.973 95.2684 321.119 95.2684 320.065V314.976H285.357V320.065C285.357 321.119 284.414 321.973 283.252 321.973Z" fill="url(#paint78_linear_80_16)"/>
<path d="M286.199 315.742H95.3114C94.9282 315.742 94.6175 315.461 94.6175 315.114V311.759C94.6175 311.412 94.9282 311.13 95.3114 311.13H286.199C286.582 311.13 286.893 311.412 286.893 311.759V315.114C286.893 315.461 286.582 315.742 286.199 315.742Z" fill="url(#paint79_linear_80_16)"/>
<path d="M52.0411 273.843L18.5873 269.782L28.6038 288.835C29.6587 290.803 31.6998 292.057 33.8042 292.026C53.0628 291.741 69.7111 287.839 81.4883 277.186C82.562 276.215 83.1267 274.774 83.0584 273.237L81.9878 251.619C81.9878 251.619 52.4866 273.883 52.0411 273.843Z" fill="url(#paint80_linear_80_16)"/>
<path d="M6.24811 266.095L46.2779 241.614C46.6064 241.352 94.3189 238.279 94.3189 238.279C96.1537 238.373 97.0428 240.792 95.6325 241.854L56.8837 271.748C54.4628 273.616 51.2892 274.479 48.1331 274.13L7.5263 269.635C5.75064 269.476 4.91414 267.159 6.24811 266.095Z" fill="url(#paint81_linear_80_16)"/>
<path d="M92.1218 251.885C92.1218 251.885 87.153 266.787 98.9222 271.656C99.3454 271.831 99.7876 271.596 99.8495 271.155L100.868 263.902C101.624 258.517 92.1218 251.885 92.1218 251.885Z" fill="url(#paint82_linear_80_16)"/>
<path d="M92.8137 253.817L91.8574 254.114L88.812 246.082L90.4084 244.963L92.8137 253.817Z" fill="url(#paint83_linear_80_16)"/>
<path d="M49.8334 271.647C49.5533 271.647 49.2728 271.634 48.9927 271.608L6.49677 267.572C6.25043 267.549 6.07161 267.349 6.09757 267.125C6.123 266.903 6.33422 266.734 6.59064 266.764L49.0866 270.799C51.0278 270.98 53.0122 270.438 54.5146 269.3L93.706 239.637C93.8962 239.493 94.1789 239.516 94.338 239.688C94.4967 239.861 94.4716 240.117 94.2811 240.261L55.0901 269.924C53.6187 271.038 51.7403 271.647 49.8334 271.647Z" fill="#BDD0FB"/>
<path d="M89.026 483.188C89.026 483.188 88.5009 485.881 88.2433 488.548C88.1428 489.59 89.0295 490.495 90.1831 490.538C94.1023 490.686 102.485 490.974 105.494 490.852C105.946 490.834 106.241 490.414 106.074 490.033C105.934 489.714 105.663 489.456 105.319 489.312L91.4712 483.546L89.026 483.188Z" fill="url(#paint84_linear_80_16)"/>
<path d="M88.5958 481.604L89.0178 484.826C89.0178 484.826 91.4435 485.85 93.1 484.698L92.0954 481.107L88.5958 481.604Z" fill="url(#paint85_linear_80_16)"/>
<path d="M88.9129 421.03C88.7306 421.871 87.9347 463.018 92.789 481.457C92.8682 481.758 92.6999 482.068 92.3838 482.185C91.6393 482.461 90.1796 482.86 88.4303 482.913C87.8887 482.93 87.4028 482.611 87.2501 482.139C85.8624 477.861 79.2134 456.426 78.346 435.95C77.3768 413.07 78.346 435.171 78.346 435.171L78.9145 421.028L88.9129 421.03Z" fill="url(#paint86_linear_80_16)"/>
<path d="M73.0969 484.593C73.0969 484.593 72.2609 485.953 71.4516 489.566C71.3055 490.219 71.8088 490.843 72.5402 490.908C73.8342 491.024 75.8264 491.172 77.4224 491.162C78.158 491.158 78.732 490.577 78.6435 489.915C78.4667 488.596 77.9159 486.432 76.2148 484.746L73.0969 484.593Z" fill="url(#paint87_linear_80_16)"/>
<path d="M72.3626 480.449L73.3485 485.321C73.3485 485.321 74.3233 485.978 76.2516 485.502L75.781 480.259L72.3626 480.449Z" fill="url(#paint88_linear_80_16)"/>
<path d="M69.6993 422.292C65.7292 444.002 70.5606 475.949 72.19 482.202C72.2897 482.585 72.6307 482.878 73.0589 482.942C73.7862 483.052 74.9837 483.141 76.1642 482.83C76.571 482.723 76.8567 482.391 76.8732 482.007C77.0918 476.952 76.6984 445.918 80.3977 433.653C80.5852 433.031 81.0041 432.489 81.5838 432.116L88.7639 427.491L89.3145 420.015L69.6993 422.292Z" fill="url(#paint89_linear_80_16)"/>
<path d="M94.9975 381.158C83.0995 380.98 69.9715 383.988 69.9715 383.988C66.425 402.738 69.3514 424.365 69.3514 424.365C78.5625 426.553 88.9531 423.026 88.9531 423.026C90.4841 415.19 97.627 393.134 97.627 393.134C103.44 392.48 108.229 390.96 112.173 388.951C109.165 385.792 107.747 381.772 107.131 379.396C102.924 380.58 98.6672 381.213 94.9975 381.158Z" fill="url(#paint90_linear_80_16)"/>
<path d="M130.142 365.279C128.973 364 127.494 364.605 127.494 364.605C125.743 371.306 116.562 376.739 107.131 379.395C107.747 381.772 109.165 385.792 112.173 388.951C127.826 380.977 130.142 365.279 130.142 365.279Z" fill="url(#paint91_linear_80_16)"/>
<path d="M129.858 365.604C129.981 365.956 128.564 366.493 127.731 365.052C127.701 364.361 127.238 361.403 127.693 360.841C130.119 357.845 134.821 354.089 134.821 354.089C135.616 354.8 134.961 355.498 134.961 355.498L132.68 357.651C133.157 358.432 133.739 359.092 134.012 360.036C134.218 360.752 134.092 361.517 133.693 362.168C133.293 362.822 132.746 363.671 132.23 364.336C131.252 365.595 129.858 365.604 129.858 365.604Z" fill="url(#paint92_linear_80_16)"/>
<path d="M131.682 359.048L129.603 360.645L128.951 362.234L130.804 364.097C130.804 364.097 131.427 360.943 131.89 360.26C132.353 359.578 132.113 359.248 131.682 359.048Z" fill="url(#paint93_linear_80_16)"/>
<path d="M74.5352 394.426L69.9716 383.988C69.9716 383.988 58.8583 390.829 57.0308 399.504C59.1306 399.644 62.9516 400.139 66.6917 401.85C67.5135 397.754 74.5352 394.426 74.5352 394.426Z" fill="url(#paint94_linear_80_16)"/>
<path d="M84.247 404.248C84.247 404.248 71.7696 410.637 67.5595 405.182C66.6853 404.049 66.4764 402.923 66.6917 401.85C62.9516 400.139 59.1306 399.644 57.0308 399.504C56.4797 402.119 56.771 404.9 58.4671 407.711C65.8417 419.934 85.8984 407.036 85.8984 407.036L84.247 404.248Z" fill="url(#paint95_linear_80_16)"/>
<path d="M90.4635 391.877L114.124 390.172L111.474 387.666L89.2344 390.346L90.4635 391.877Z" fill="white"/>
<path d="M83.4903 413.166L90.3 391.619C90.3772 391.375 90.6075 391.196 90.8864 391.167C92.1203 391.037 95.6952 390.67 99.8232 390.354C104.795 389.973 110.569 389.664 114.02 389.927C114.51 389.964 114.807 390.434 114.588 390.834C112.626 394.431 104.556 409.061 100.514 413.854C100.38 414.013 100.173 414.105 99.9524 414.104L84.1526 413.97C83.693 413.966 83.3638 413.567 83.4903 413.166Z" fill="url(#paint96_linear_80_16)"/>
<path d="M88.398 389.958L111.367 387.373C111.671 387.339 111.972 387.455 112.155 387.676C112.279 387.827 112.178 388.043 111.972 388.066L88.9095 390.659L88.398 389.958Z" fill="url(#paint97_linear_80_16)"/>
<path d="M90.8865 391.167L83.6952 413.809L81.1259 412.381C80.8492 412.227 80.7219 411.924 80.8163 411.642L88.0459 390.089C88.0911 389.955 88.261 389.891 88.398 389.958L90.8865 391.167Z" fill="url(#paint98_linear_80_16)"/>
<path d="M81.3251 409.511C80.8946 409.369 82.0457 404.579 82.9608 403.501C83.836 402.47 84.3108 400.933 86.7819 401.291C89.2531 401.65 92.1681 402.593 92.1681 402.593C92.1681 402.593 92.0207 404.226 90.1427 403.699L91.3073 404.516C91.3073 404.516 91.1408 405.823 89.5545 405.125L90.6377 406.208C90.6377 406.208 90.0947 407.033 88.7892 406.593C82.9292 404.616 84.635 409.937 81.3251 409.511Z" fill="url(#paint99_linear_80_16)"/>
<path d="M82.946 372.405L79.1602 382.325C79.0974 382.489 79.1721 382.671 79.3399 382.755C80.3719 383.272 84.0897 384.767 88.5703 382.193C89.037 381.925 89.3547 381.487 89.4256 380.991L90.6515 372.405L82.946 372.405Z" fill="url(#paint100_linear_80_16)"/>
<path d="M91.1831 363.22C91.1831 363.22 95.3402 370.31 94.8073 373.174C94.2745 376.038 89.1223 375.832 84.6234 373.506L81.4795 365.851L91.1831 363.22Z" fill="url(#paint101_linear_80_16)"/>
<path d="M84.8222 369.746C85.0051 369.673 85.0725 369.47 84.9629 369.319C84.6299 368.858 84.0056 367.917 83.8063 367.094C83.8063 367.094 83.0591 366.66 85.7084 366.086C88.3579 365.511 92.3088 364.619 93.1392 362.576C93.9489 360.584 91.8214 355.574 88.4275 359.566C88.2984 359.718 88.0453 359.721 87.9163 359.569C87.3599 358.913 85.8972 357.551 83.8662 358.377C81.9657 359.149 81.7516 360.411 81.7778 361.047C81.7854 361.234 81.6009 361.38 81.3979 361.344C80.4371 361.178 78.1312 361.036 77.0549 363.179C76.1684 364.944 76.7445 365.944 77.2694 366.432C77.4394 366.591 77.3649 366.852 77.1317 366.916C76.5002 367.091 75.6848 367.576 75.7664 368.917C75.8792 370.77 78.166 370.607 78.8173 370.522C78.9239 370.509 79.0314 370.542 79.1036 370.614C79.6619 371.174 82.1772 373.551 84.8995 373.837C85.1353 373.862 85.3178 373.651 85.2408 373.448L84.0625 370.345C84.0078 370.201 84.0839 370.043 84.2377 369.981L84.8222 369.746Z" fill="url(#paint102_linear_80_16)"/>
<path d="M85.2959 370.187C85.2959 370.187 82.336 368.347 82.1198 369.897C81.9035 371.446 84.7853 372.141 86.2125 371.563L85.2959 370.187Z" fill="url(#paint103_linear_80_16)"/>
<path d="M183.942 481.888L362.609 481.889V449.488L183.942 449.488C187.766 449.488 187.766 481.888 183.942 481.888Z" fill="#91B3FA"/>
<path d="M362.61 473.78V458.953C362.61 453.725 359.079 449.488 354.723 449.488H184.695C181.27 449.488 178.494 446.972 178.494 443.869C178.494 442.926 179.337 442.162 180.378 442.162H366.205C370.467 442.162 377.233 448.232 377.233 455.721V476.43C377.233 483.491 370.664 489.214 366.646 489.214H181.356C179.775 489.214 178.494 488.054 178.494 486.621C178.494 484.007 180.832 481.888 183.718 481.888H355.854C359.585 481.888 362.61 478.258 362.61 473.78Z" fill="url(#paint104_linear_80_16)"/>
<path d="M357.654 456.542H190.129C189.881 456.542 189.68 456.36 189.68 456.136C189.68 455.911 189.881 455.729 190.129 455.729H357.654C357.902 455.729 358.103 455.911 358.103 456.136C358.103 456.36 357.902 456.542 357.654 456.542Z" fill="url(#paint105_linear_80_16)"/>
<path d="M357.654 461.352H190.129C189.881 461.352 189.68 461.17 189.68 460.945C189.68 460.72 189.881 460.539 190.129 460.539H357.654C357.902 460.539 358.103 460.72 358.103 460.945C358.103 461.17 357.902 461.352 357.654 461.352Z" fill="url(#paint106_linear_80_16)"/>
<path d="M357.654 466.161H190.129C189.881 466.161 189.68 465.979 189.68 465.754C189.68 465.53 189.881 465.348 190.129 465.348H357.654C357.902 465.348 358.103 465.53 358.103 465.754C358.103 465.979 357.902 466.161 357.654 466.161Z" fill="url(#paint107_linear_80_16)"/>
<path d="M357.654 470.97H190.129C189.881 470.97 189.68 470.789 189.68 470.564C189.68 470.339 189.881 470.157 190.129 470.157H357.654C357.902 470.157 358.103 470.339 358.103 470.564C358.103 470.789 357.902 470.97 357.654 470.97Z" fill="url(#paint108_linear_80_16)"/>
<path d="M357.654 475.78H190.129C189.881 475.78 189.68 475.598 189.68 475.373C189.68 475.148 189.881 474.966 190.129 474.966H357.654C357.902 474.966 358.103 475.148 358.103 475.373C358.103 475.598 357.902 475.78 357.654 475.78Z" fill="url(#paint109_linear_80_16)"/>
<path d="M219.735 444.915H361.463C362.476 444.915 363.298 444.17 363.298 443.252V414.778C363.298 413.86 362.476 413.115 361.463 413.115H219.735C218.722 413.115 217.9 413.86 217.9 414.778V443.252C217.9 444.17 218.722 444.915 219.735 444.915Z" fill="url(#paint110_linear_80_16)"/>
<path d="M333.035 441.26H343.616C345.411 441.26 346.866 439.942 346.866 438.315V419.715C346.866 418.088 345.411 416.77 343.616 416.77H333.035C331.24 416.77 329.785 418.088 329.785 419.715V438.315C329.785 439.942 331.24 441.26 333.035 441.26Z" fill="#7D97F4"/>
<path d="M322.511 441.26H325.626C326.535 441.26 327.273 440.592 327.273 439.768V418.262C327.273 417.438 326.535 416.77 325.626 416.77H322.51C321.601 416.77 320.864 417.438 320.864 418.262V439.768C320.864 440.592 321.601 441.26 322.511 441.26Z" fill="#7D97F4"/>
<path d="M266.326 349.34C266.326 349.34 266.331 350.633 270.94 350.552C273.51 350.507 278.275 349.999 280.968 353.642C282.358 355.522 284.89 356.381 287.266 355.68C293.182 353.935 303.084 352.653 309.244 360.675C313.947 366.798 311.627 370.993 308.214 373.637C305.708 375.578 305.209 378.967 307.243 381.319C309.194 383.575 309.981 386.854 306.459 391.339C298.566 401.39 278.194 388.974 278.194 388.974L259.172 359.74L266.326 349.34Z" fill="url(#paint111_linear_80_16)"/>
<path d="M304.52 370.428C304.461 370.428 304.402 370.416 304.345 370.388C304.318 370.376 304.307 370.345 304.322 370.32C304.336 370.295 304.37 370.286 304.397 370.299C304.65 370.417 304.928 370.127 305.051 369.935C306.718 367.337 306.358 363.709 304.177 361.112C302.871 359.556 301.109 358.505 299.217 358.152C297.873 357.901 296.491 358.002 295.191 358.126C292.988 358.338 290.772 358.65 288.602 359.054C288.425 359.087 288.249 359.121 288.073 359.154C286.798 359.397 285.478 359.648 284.155 359.651C284.147 359.651 284.14 359.651 284.132 359.651C282.436 359.651 280.95 359.205 279.947 358.393C279.321 357.887 278.857 357.229 278.408 356.593C277.869 355.829 277.311 355.039 276.478 354.535C276.452 354.519 276.445 354.488 276.463 354.464C276.48 354.44 276.514 354.434 276.54 354.45C277.393 354.966 277.957 355.765 278.502 356.539C278.947 357.169 279.407 357.821 280.021 358.317C281.004 359.112 282.464 359.549 284.132 359.549C284.14 359.549 284.147 359.549 284.155 359.549C285.467 359.546 286.78 359.296 288.05 359.055C288.227 359.021 288.403 358.987 288.579 358.955C290.753 358.55 292.973 358.237 295.179 358.025C296.488 357.899 297.879 357.799 299.24 358.053C301.159 358.41 302.944 359.475 304.266 361.05C306.474 363.679 306.837 367.354 305.149 369.986C304.995 370.226 304.757 370.428 304.52 370.428Z" fill="#BDD0FB"/>
<path d="M304.547 369.176C304.544 369.176 304.54 369.176 304.54 369.176C304.507 369.17 304.486 369.144 304.492 369.116C304.85 367.397 304.704 365.797 304.07 364.488C303.331 362.962 301.878 361.84 300.276 361.561C300.245 361.556 300.226 361.529 300.231 361.502C300.237 361.474 300.265 361.458 300.297 361.461C301.935 361.746 303.419 362.89 304.173 364.447C304.816 365.775 304.964 367.396 304.602 369.135C304.597 369.159 304.574 369.176 304.547 369.176Z" fill="#BDD0FB"/>
<path d="M214.161 441.19C214.208 441.173 239.477 401.079 242.892 397.306C243.466 396.671 244.355 396.348 245.255 396.445L252.308 397.207L260.593 413.448L246.79 406.164C248.155 414.723 230.423 427.443 224.341 432.084C223.724 432.555 223.673 433.399 224.231 433.928L226.659 436.23C222.673 439.891 218.073 442.242 212.882 443.329L214.161 441.19Z" fill="url(#paint112_linear_80_16)"/>
<path d="M225.254 434.987C225.254 434.987 226.804 435.441 227.328 436.691C227.579 437.29 227.309 437.967 226.735 438.34C224.183 439.996 215.766 445.344 211.883 446.391C211.564 446.477 211.261 446.216 211.333 445.922C211.532 445.104 212.177 443.472 214.254 441.082L214.068 441.424C213.832 441.856 214.351 442.306 214.815 442.069C217.412 440.74 222.704 437.832 225.254 434.987Z" fill="url(#paint113_linear_80_16)"/>
<path d="M224.004 451.03C224.046 451.005 227.837 442.729 227.88 442.705C231.356 423.529 239.836 407.107 242.338 402.786C242.758 402.059 243.557 401.58 244.459 401.51L251.537 400.962L263.278 415.348L248.133 410.746C251.383 418.877 236.858 434.586 231.939 440.246C231.44 440.821 231.579 441.656 232.243 442.072L235.135 443.882C232.049 448.198 228.07 451.343 223.228 453.36L224.004 451.03Z" fill="url(#paint114_linear_80_16)"/>
<path d="M233.482 442.922C233.482 442.922 235.101 443.082 235.894 444.21C236.273 444.75 236.159 445.463 235.68 445.934C233.551 448.024 226.504 454.804 222.934 456.541C222.641 456.684 222.286 456.484 222.291 456.183C222.303 455.346 222.57 453.629 224.07 450.907L223.964 451.276C223.83 451.743 224.439 452.088 224.84 451.771C227.087 449.994 231.619 446.175 233.482 442.922Z" fill="url(#paint115_linear_80_16)"/>
<path d="M284.663 397.933C284.663 397.933 291.065 406.561 291.591 410.496C292.116 414.432 289.821 415.793 283.12 416.295C263.179 417.788 253.349 412.374 253.349 412.374C251.985 404.493 251.014 402.489 239.622 398.204C239.622 398.204 254.031 399.24 256.931 398.221C259.831 397.201 284.663 397.933 284.663 397.933Z" fill="url(#paint116_linear_80_16)"/>
<path d="M267.349 396.791C267.349 396.791 259.894 390.358 256.224 386.098C254.241 383.795 253.618 380.764 254.535 377.963C256.21 372.849 259.188 367.552 259.46 366.727C259.876 365.463 268.235 365.516 268.235 365.516C268.235 365.516 284.685 375.189 291.148 391.574L283.889 393.622C283.889 393.622 279.594 387.093 275.351 382.942C275.351 382.942 282.694 391.731 282.952 395.329L267.349 396.791Z" fill="url(#paint117_linear_80_16)"/>
<path d="M258.449 359.664C258.536 359.927 260.718 366.481 260.888 366.617C261.059 366.753 265.673 366.978 267.845 365.633L263.412 356.748L258.449 359.664Z" fill="url(#paint118_linear_80_16)"/>
<path d="M253.145 399.329L258.747 393.806L265.216 395.385C265.216 395.385 272.759 396.443 277.076 395.385C281.393 394.326 281.393 394.326 281.393 394.326L291.148 391.574L292.68 395.497C293.069 396.494 292.678 397.599 291.727 398.211C290.883 398.755 289.894 399.352 289.264 399.602C287.979 400.111 259.67 399.763 259.67 399.763L253.145 399.329Z" fill="url(#paint119_linear_80_16)"/>
<path d="M271.688 401.514C271.668 401.515 271.648 401.516 271.629 401.515L245.862 401.49C245.225 401.489 244.71 401.021 244.71 400.444C244.711 399.867 245.23 399.39 245.865 399.4L271.631 399.426C272.268 399.426 272.784 399.894 272.783 400.472C272.782 401.031 272.297 401.487 271.688 401.514Z" fill="url(#paint120_linear_80_16)"/>
<path d="M222.699 380.318H244.158C245.741 380.318 247.182 381.145 247.857 382.443L257.777 401.502H231.11C230.09 401.502 229.173 400.937 228.798 400.078L221.105 382.441C220.661 381.422 221.49 380.318 222.699 380.318Z" fill="url(#paint121_linear_80_16)"/>
<path d="M237.817 390.09C238.282 391.399 237.938 392.67 237.05 392.929C236.161 393.189 235.063 392.338 234.598 391.029C234.133 389.719 234.477 388.448 235.366 388.189C236.254 387.93 237.352 388.781 237.817 390.09Z" fill="#7D97F4"/>
<path d="M254.327 350.768C254.327 350.768 252.368 353.949 253.674 359.175C254.979 364.401 257.981 365.118 260.052 364.044C262.123 362.971 264.876 360.966 265.696 356.414C266.517 351.863 256.982 346.762 254.327 350.768Z" fill="url(#paint122_linear_80_16)"/>
<path d="M261.959 355.773C261.959 355.773 259.348 348.623 253.818 352.424L253.232 354.15C253.232 354.15 248.554 352.468 250.576 348.659C252.598 344.849 257.508 343.346 262.374 346.378C267.239 349.41 269.797 351.934 269.121 355.508C268.444 359.082 265.604 357.579 265.604 357.579C265.604 357.579 265.325 354.881 263.978 354.283C262.632 353.685 262.439 355.691 262.439 355.691L261.959 355.773Z" fill="url(#paint123_linear_80_16)"/>
<path d="M263.109 356.782C263.109 356.782 261.743 353.113 264.217 353.211C266.69 353.308 265.3 356.726 264.667 357.961L263.109 356.782Z" fill="url(#paint124_linear_80_16)"/>
</g>
<defs>
<linearGradient id="paint0_linear_80_16" x1="396.146" y1="496.726" x2="152.361" y2="261.297" gradientUnits="userSpaceOnUse">
<stop stop-color="#DAE3FE"/>
<stop offset="1" stop-color="#E9EFFD"/>
</linearGradient>
<linearGradient id="paint1_linear_80_16" x1="379.026" y1="232.496" x2="301.119" y2="442.032" gradientUnits="userSpaceOnUse">
<stop stop-color="#FF928E"/>
<stop offset="1" stop-color="#FE7062"/>
</linearGradient>
<linearGradient id="paint2_linear_80_16" x1="337.718" y1="397.22" x2="219.409" y2="502.992" gradientUnits="userSpaceOnUse">
<stop stop-color="#FF928E"/>
<stop offset="1" stop-color="#FE7062"/>
</linearGradient>
<linearGradient id="paint3_linear_80_16" x1="336.47" y1="442.018" x2="549.612" y2="287.369" gradientUnits="userSpaceOnUse">
<stop stop-color="#FF928E"/>
<stop offset="1" stop-color="#FE7062"/>
</linearGradient>
<linearGradient id="paint4_linear_80_16" x1="346.861" y1="455.34" x2="552.659" y2="306.019" gradientUnits="userSpaceOnUse">
<stop stop-color="#FF928E"/>
<stop offset="1" stop-color="#FE7062"/>
</linearGradient>
<linearGradient id="paint5_linear_80_16" x1="306.185" y1="321.419" x2="303.354" y2="360.528" gradientUnits="userSpaceOnUse">
<stop stop-color="#FF928E"/>
<stop offset="1" stop-color="#FE7062"/>
</linearGradient>
<linearGradient id="paint6_linear_80_16" x1="299.725" y1="320.874" x2="296.895" y2="359.984" gradientUnits="userSpaceOnUse">
<stop stop-color="#FF928E"/>
<stop offset="1" stop-color="#FE7062"/>
</linearGradient>
<linearGradient id="paint7_linear_80_16" x1="306.3" y1="355.739" x2="303.47" y2="394.849" gradientUnits="userSpaceOnUse">
<stop stop-color="#FF928E"/>
<stop offset="1" stop-color="#FE7062"/>
</linearGradient>
<linearGradient id="paint8_linear_80_16" x1="299.841" y1="355.195" x2="297.01" y2="394.304" gradientUnits="userSpaceOnUse">
<stop stop-color="#FF928E"/>
<stop offset="1" stop-color="#FE7062"/>
</linearGradient>
<linearGradient id="paint9_linear_80_16" x1="306.416" y1="391.948" x2="303.585" y2="431.058" gradientUnits="userSpaceOnUse">
<stop stop-color="#FF928E"/>
<stop offset="1" stop-color="#FE7062"/>
</linearGradient>
<linearGradient id="paint10_linear_80_16" x1="299.956" y1="391.404" x2="297.126" y2="430.514" gradientUnits="userSpaceOnUse">
<stop stop-color="#FF928E"/>
<stop offset="1" stop-color="#FE7062"/>
</linearGradient>
<linearGradient id="paint11_linear_80_16" x1="340.367" y1="321.054" x2="337.536" y2="360.164" gradientUnits="userSpaceOnUse">
<stop stop-color="#FF928E"/>
<stop offset="1" stop-color="#FE7062"/>
</linearGradient>
<linearGradient id="paint12_linear_80_16" x1="333.907" y1="320.51" x2="331.076" y2="359.62" gradientUnits="userSpaceOnUse">
<stop stop-color="#FF928E"/>
<stop offset="1" stop-color="#FE7062"/>
</linearGradient>
<linearGradient id="paint13_linear_80_16" x1="340.482" y1="355.761" x2="337.652" y2="394.871" gradientUnits="userSpaceOnUse">
<stop stop-color="#FF928E"/>
<stop offset="1" stop-color="#FE7062"/>
</linearGradient>
<linearGradient id="paint14_linear_80_16" x1="334.023" y1="355.217" x2="331.192" y2="394.327" gradientUnits="userSpaceOnUse">
<stop stop-color="#FF928E"/>
<stop offset="1" stop-color="#FE7062"/>
</linearGradient>
<linearGradient id="paint15_linear_80_16" x1="340.598" y1="391.971" x2="337.767" y2="431.081" gradientUnits="userSpaceOnUse">
<stop stop-color="#FF928E"/>
<stop offset="1" stop-color="#FE7062"/>
</linearGradient>
<linearGradient id="paint16_linear_80_16" x1="334.138" y1="391.427" x2="331.308" y2="430.537" gradientUnits="userSpaceOnUse">
<stop stop-color="#FF928E"/>
<stop offset="1" stop-color="#FE7062"/>
</linearGradient>
<linearGradient id="paint17_linear_80_16" x1="408.334" y1="351.04" x2="182.129" y2="202.293" gradientUnits="userSpaceOnUse">
<stop stop-color="#E1473D"/>
<stop offset="1" stop-color="#E9605A"/>
</linearGradient>
<linearGradient id="paint18_linear_80_16" x1="284.793" y1="267.701" x2="324.619" y2="141.638" gradientUnits="userSpaceOnUse">
<stop stop-color="#E1473D"/>
<stop offset="1" stop-color="#E9605A"/>
</linearGradient>
<linearGradient id="paint19_linear_80_16" x1="66.7498" y1="227.527" x2="74.8166" y2="557.468" gradientUnits="userSpaceOnUse">
<stop stop-color="#FF928E"/>
<stop offset="1" stop-color="#FE7062"/>
</linearGradient>
<linearGradient id="paint20_linear_80_16" x1="45.4365" y1="399.125" x2="164.6" y2="505.66" gradientUnits="userSpaceOnUse">
<stop stop-color="#FF928E"/>
<stop offset="1" stop-color="#FE7062"/>
</linearGradient>
<linearGradient id="paint21_linear_80_16" x1="47.0206" y1="444.467" x2="-170.667" y2="286.518" gradientUnits="userSpaceOnUse">
<stop stop-color="#FF928E"/>
<stop offset="1" stop-color="#FE7062"/>
</linearGradient>
<linearGradient id="paint22_linear_80_16" x1="36.1833" y1="457.672" x2="-170.305" y2="307.85" gradientUnits="userSpaceOnUse">
<stop stop-color="#FF928E"/>
<stop offset="1" stop-color="#FE7062"/>
</linearGradient>
<linearGradient id="paint23_linear_80_16" x1="76.8153" y1="322.651" x2="79.6459" y2="361.76" gradientUnits="userSpaceOnUse">
<stop stop-color="#FF928E"/>
<stop offset="1" stop-color="#FE7062"/>
</linearGradient>
<linearGradient id="paint24_linear_80_16" x1="83.2749" y1="322.106" x2="86.1056" y2="361.216" gradientUnits="userSpaceOnUse">
<stop stop-color="#FF928E"/>
<stop offset="1" stop-color="#FE7062"/>
</linearGradient>
<linearGradient id="paint25_linear_80_16" x1="76.6997" y1="356.971" x2="79.5304" y2="396.081" gradientUnits="userSpaceOnUse">
<stop stop-color="#FF928E"/>
<stop offset="1" stop-color="#FE7062"/>
</linearGradient>
<linearGradient id="paint26_linear_80_16" x1="83.1593" y1="356.427" x2="85.99" y2="395.537" gradientUnits="userSpaceOnUse">
<stop stop-color="#FF928E"/>
<stop offset="1" stop-color="#FE7062"/>
</linearGradient>
<linearGradient id="paint27_linear_80_16" x1="76.5842" y1="393.18" x2="79.4148" y2="432.29" gradientUnits="userSpaceOnUse">
<stop stop-color="#FF928E"/>
<stop offset="1" stop-color="#FE7062"/>
</linearGradient>
<linearGradient id="paint28_linear_80_16" x1="83.0438" y1="392.636" x2="85.8744" y2="431.746" gradientUnits="userSpaceOnUse">
<stop stop-color="#FF928E"/>
<stop offset="1" stop-color="#FE7062"/>
</linearGradient>
<linearGradient id="paint29_linear_80_16" x1="42.6333" y1="322.286" x2="45.464" y2="361.396" gradientUnits="userSpaceOnUse">
<stop stop-color="#FF928E"/>
<stop offset="1" stop-color="#FE7062"/>
</linearGradient>
<linearGradient id="paint30_linear_80_16" x1="49.0929" y1="321.742" x2="51.9236" y2="360.852" gradientUnits="userSpaceOnUse">
<stop stop-color="#FF928E"/>
<stop offset="1" stop-color="#FE7062"/>
</linearGradient>
<linearGradient id="paint31_linear_80_16" x1="42.5178" y1="356.993" x2="45.3484" y2="396.103" gradientUnits="userSpaceOnUse">
<stop stop-color="#FF928E"/>
<stop offset="1" stop-color="#FE7062"/>
</linearGradient>
<linearGradient id="paint32_linear_80_16" x1="48.9774" y1="356.449" x2="51.808" y2="395.559" gradientUnits="userSpaceOnUse">
<stop stop-color="#FF928E"/>
<stop offset="1" stop-color="#FE7062"/>
</linearGradient>
<linearGradient id="paint33_linear_80_16" x1="42.4022" y1="393.202" x2="45.2329" y2="432.312" gradientUnits="userSpaceOnUse">
<stop stop-color="#FF928E"/>
<stop offset="1" stop-color="#FE7062"/>
</linearGradient>
<linearGradient id="paint34_linear_80_16" x1="48.8618" y1="392.658" x2="51.6925" y2="431.768" gradientUnits="userSpaceOnUse">
<stop stop-color="#FF928E"/>
<stop offset="1" stop-color="#FE7062"/>
</linearGradient>
<linearGradient id="paint35_linear_80_16" x1="-24.2983" y1="353.161" x2="199.737" y2="205.84" gradientUnits="userSpaceOnUse">
<stop stop-color="#E1473D"/>
<stop offset="1" stop-color="#E9605A"/>
</linearGradient>
<linearGradient id="paint36_linear_80_16" x1="108.994" y1="267.039" x2="170.109" y2="131.291" gradientUnits="userSpaceOnUse">
<stop stop-color="#E1473D"/>
<stop offset="1" stop-color="#E9605A"/>
</linearGradient>
<linearGradient id="paint37_linear_80_16" x1="216.089" y1="117.44" x2="196.903" y2="350.375" gradientUnits="userSpaceOnUse">
<stop stop-color="#FF928E"/>
<stop offset="1" stop-color="#FE7062"/>
</linearGradient>
<linearGradient id="paint38_linear_80_16" x1="254.127" y1="398.56" x2="135.725" y2="504.414" gradientUnits="userSpaceOnUse">
<stop stop-color="#FF928E"/>
<stop offset="1" stop-color="#FE7062"/>
</linearGradient>
<linearGradient id="paint39_linear_80_16" x1="252.881" y1="443.393" x2="466.159" y2="288.644" gradientUnits="userSpaceOnUse">
<stop stop-color="#FF928E"/>
<stop offset="1" stop-color="#FE7062"/>
</linearGradient>
<linearGradient id="paint40_linear_80_16" x1="263.282" y1="456.726" x2="469.155" y2="307.35" gradientUnits="userSpaceOnUse">
<stop stop-color="#FF928E"/>
<stop offset="1" stop-color="#FE7062"/>
</linearGradient>
<linearGradient id="paint41_linear_80_16" x1="183.9" y1="75.0554" x2="186.111" y2="171.845" gradientUnits="userSpaceOnUse">
<stop stop-color="#E1473D"/>
<stop offset="1" stop-color="#E9605A"/>
</linearGradient>
<linearGradient id="paint42_linear_80_16" x1="236.093" y1="127.665" x2="212.302" y2="242.544" gradientUnits="userSpaceOnUse">
<stop stop-color="#FF928E"/>
<stop offset="1" stop-color="#FE7062"/>
</linearGradient>
<linearGradient id="paint43_linear_80_16" x1="87.4833" y1="398.244" x2="-30.5177" y2="503.74" gradientUnits="userSpaceOnUse">
<stop stop-color="#FF928E"/>
<stop offset="1" stop-color="#FE7062"/>
</linearGradient>
<linearGradient id="paint44_linear_80_16" x1="85.9641" y1="442.988" x2="301.099" y2="286.892" gradientUnits="userSpaceOnUse">
<stop stop-color="#FF928E"/>
<stop offset="1" stop-color="#FE7062"/>
</linearGradient>
<linearGradient id="paint45_linear_80_16" x1="96.5655" y1="456.201" x2="302.439" y2="306.825" gradientUnits="userSpaceOnUse">
<stop stop-color="#FF928E"/>
<stop offset="1" stop-color="#FE7062"/>
</linearGradient>
<linearGradient id="paint46_linear_80_16" x1="141.467" y1="402.742" x2="23.0648" y2="508.596" gradientUnits="userSpaceOnUse">
<stop stop-color="#FF928E"/>
<stop offset="1" stop-color="#FE7062"/>
</linearGradient>
<linearGradient id="paint47_linear_80_16" x1="139.849" y1="447.797" x2="356.574" y2="290.547" gradientUnits="userSpaceOnUse">
<stop stop-color="#FF928E"/>
<stop offset="1" stop-color="#FE7062"/>
</linearGradient>
<linearGradient id="paint48_linear_80_16" x1="150.622" y1="460.908" x2="356.495" y2="311.532" gradientUnits="userSpaceOnUse">
<stop stop-color="#FF928E"/>
<stop offset="1" stop-color="#FE7062"/>
</linearGradient>
<linearGradient id="paint49_linear_80_16" x1="205.692" y1="402.067" x2="87.2896" y2="507.921" gradientUnits="userSpaceOnUse">
<stop stop-color="#FF928E"/>
<stop offset="1" stop-color="#FE7062"/>
</linearGradient>
<linearGradient id="paint50_linear_80_16" x1="204.035" y1="447.145" x2="421.112" y2="289.64" gradientUnits="userSpaceOnUse">
<stop stop-color="#FF928E"/>
<stop offset="1" stop-color="#FE7062"/>
</linearGradient>
<linearGradient id="paint51_linear_80_16" x1="214.847" y1="460.233" x2="420.72" y2="310.857" gradientUnits="userSpaceOnUse">
<stop stop-color="#FF928E"/>
<stop offset="1" stop-color="#FE7062"/>
</linearGradient>
<linearGradient id="paint52_linear_80_16" x1="141.867" y1="389.207" x2="138.753" y2="432.229" gradientUnits="userSpaceOnUse">
<stop stop-color="#FF928E"/>
<stop offset="1" stop-color="#FE7062"/>
</linearGradient>
<linearGradient id="paint53_linear_80_16" x1="135.412" y1="388.608" x2="132.299" y2="431.63" gradientUnits="userSpaceOnUse">
<stop stop-color="#FF928E"/>
<stop offset="1" stop-color="#FE7062"/>
</linearGradient>
<linearGradient id="paint54_linear_80_16" x1="141.538" y1="355.195" x2="138.424" y2="398.218" gradientUnits="userSpaceOnUse">
<stop stop-color="#FF928E"/>
<stop offset="1" stop-color="#FE7062"/>
</linearGradient>
<linearGradient id="paint55_linear_80_16" x1="135.083" y1="354.597" x2="131.97" y2="397.619" gradientUnits="userSpaceOnUse">
<stop stop-color="#FF928E"/>
<stop offset="1" stop-color="#FE7062"/>
</linearGradient>
<linearGradient id="paint56_linear_80_16" x1="257.311" y1="388.675" x2="254.197" y2="431.697" gradientUnits="userSpaceOnUse">
<stop stop-color="#FF928E"/>
<stop offset="1" stop-color="#FE7062"/>
</linearGradient>
<linearGradient id="paint57_linear_80_16" x1="250.856" y1="388.076" x2="247.742" y2="431.099" gradientUnits="userSpaceOnUse">
<stop stop-color="#FF928E"/>
<stop offset="1" stop-color="#FE7062"/>
</linearGradient>
<linearGradient id="paint58_linear_80_16" x1="256.982" y1="354.664" x2="253.868" y2="397.686" gradientUnits="userSpaceOnUse">
<stop stop-color="#FF928E"/>
<stop offset="1" stop-color="#FE7062"/>
</linearGradient>
<linearGradient id="paint59_linear_80_16" x1="250.527" y1="354.065" x2="247.413" y2="397.087" gradientUnits="userSpaceOnUse">
<stop stop-color="#FF928E"/>
<stop offset="1" stop-color="#FE7062"/>
</linearGradient>
<linearGradient id="paint60_linear_80_16" x1="194.401" y1="287.202" x2="199.326" y2="241.545" gradientUnits="userSpaceOnUse">
<stop stop-color="#FEBBBA"/>
<stop offset="1" stop-color="#FF928E"/>
</linearGradient>
<linearGradient id="paint61_linear_80_16" x1="204.841" y1="271.064" x2="187.754" y2="309.472" gradientUnits="userSpaceOnUse">
<stop stop-color="#E1473D"/>
<stop offset="1" stop-color="#E9605A"/>
</linearGradient>
<linearGradient id="paint62_linear_80_16" x1="181.976" y1="519.319" x2="206.379" y2="329.97" gradientUnits="userSpaceOnUse">
<stop stop-color="#FEBBBA"/>
<stop offset="1" stop-color="#FF928E"/>
</linearGradient>
<linearGradient id="paint63_linear_80_16" x1="341.06" y1="286.561" x2="172.342" y2="492.234" gradientUnits="userSpaceOnUse">
<stop stop-color="#FF928E"/>
<stop offset="1" stop-color="#FE7062"/>
</linearGradient>
<linearGradient id="paint64_linear_80_16" x1="194.843" y1="440.388" x2="196.233" y2="463.022" gradientUnits="userSpaceOnUse">
<stop stop-color="#FF928E"/>
<stop offset="1" stop-color="#FE7062"/>
</linearGradient>
<linearGradient id="paint65_linear_80_16" x1="195.393" y1="450.224" x2="196.783" y2="472.857" gradientUnits="userSpaceOnUse">
<stop stop-color="#FF928E"/>
<stop offset="1" stop-color="#FE7062"/>
</linearGradient>
<linearGradient id="paint66_linear_80_16" x1="256.768" y1="321.154" x2="253.654" y2="364.176" gradientUnits="userSpaceOnUse">
<stop stop-color="#FF928E"/>
<stop offset="1" stop-color="#FE7062"/>
</linearGradient>
<linearGradient id="paint67_linear_80_16" x1="250.313" y1="320.555" x2="247.199" y2="363.577" gradientUnits="userSpaceOnUse">
<stop stop-color="#FF928E"/>
<stop offset="1" stop-color="#FE7062"/>
</linearGradient>
<linearGradient id="paint68_linear_80_16" x1="253.938" y1="322.358" x2="249.296" y2="342.949" gradientUnits="userSpaceOnUse">
<stop stop-color="#FF928E"/>
<stop offset="1" stop-color="#FE7062"/>
</linearGradient>
<linearGradient id="paint69_linear_80_16" x1="186.142" y1="321.154" x2="183.028" y2="364.176" gradientUnits="userSpaceOnUse">
<stop stop-color="#FF928E"/>
<stop offset="1" stop-color="#FE7062"/>
</linearGradient>
<linearGradient id="paint70_linear_80_16" x1="179.687" y1="320.555" x2="176.574" y2="363.577" gradientUnits="userSpaceOnUse">
<stop stop-color="#FF928E"/>
<stop offset="1" stop-color="#FE7062"/>
</linearGradient>
<linearGradient id="paint71_linear_80_16" x1="183.312" y1="322.358" x2="178.67" y2="342.949" gradientUnits="userSpaceOnUse">
<stop stop-color="#FF928E"/>
<stop offset="1" stop-color="#FE7062"/>
</linearGradient>
<linearGradient id="paint72_linear_80_16" x1="212.174" y1="321.154" x2="209.06" y2="364.176" gradientUnits="userSpaceOnUse">
<stop stop-color="#FF928E"/>
<stop offset="1" stop-color="#FE7062"/>
</linearGradient>
<linearGradient id="paint73_linear_80_16" x1="205.719" y1="320.555" x2="202.605" y2="363.577" gradientUnits="userSpaceOnUse">
<stop stop-color="#FF928E"/>
<stop offset="1" stop-color="#FE7062"/>
</linearGradient>
<linearGradient id="paint74_linear_80_16" x1="209.343" y1="322.358" x2="204.701" y2="342.949" gradientUnits="userSpaceOnUse">
<stop stop-color="#FF928E"/>
<stop offset="1" stop-color="#FE7062"/>
</linearGradient>
<linearGradient id="paint75_linear_80_16" x1="141.974" y1="321.154" x2="138.86" y2="364.176" gradientUnits="userSpaceOnUse">
<stop stop-color="#FF928E"/>
<stop offset="1" stop-color="#FE7062"/>
</linearGradient>
<linearGradient id="paint76_linear_80_16" x1="135.519" y1="320.555" x2="132.406" y2="363.577" gradientUnits="userSpaceOnUse">
<stop stop-color="#FF928E"/>
<stop offset="1" stop-color="#FE7062"/>
</linearGradient>
<linearGradient id="paint77_linear_80_16" x1="139.144" y1="322.358" x2="134.502" y2="342.949" gradientUnits="userSpaceOnUse">
<stop stop-color="#FF928E"/>
<stop offset="1" stop-color="#FE7062"/>
</linearGradient>
<linearGradient id="paint78_linear_80_16" x1="191.209" y1="302.88" x2="184.134" y2="443.835" gradientUnits="userSpaceOnUse">
<stop stop-color="#FF928E"/>
<stop offset="1" stop-color="#FE7062"/>
</linearGradient>
<linearGradient id="paint79_linear_80_16" x1="185.445" y1="325.252" x2="143.499" y2="438.942" gradientUnits="userSpaceOnUse">
<stop stop-color="#FF928E"/>
<stop offset="1" stop-color="#FE7062"/>
</linearGradient>
<linearGradient id="paint80_linear_80_16" x1="25.3401" y1="165.765" x2="43.9403" y2="251.986" gradientUnits="userSpaceOnUse">
<stop stop-color="#4F52FF"/>
<stop offset="1" stop-color="#4042E2"/>
</linearGradient>
<linearGradient id="paint81_linear_80_16" x1="38.1948" y1="265.932" x2="-27.4322" y2="340.909" gradientUnits="userSpaceOnUse">
<stop stop-color="#4F52FF"/>
<stop offset="1" stop-color="#4042E2"/>
</linearGradient>
<linearGradient id="paint82_linear_80_16" x1="93.8735" y1="239.914" x2="97.2736" y2="281.944" gradientUnits="userSpaceOnUse">
<stop stop-color="#09005D"/>
<stop offset="1" stop-color="#1A0F91"/>
</linearGradient>
<linearGradient id="paint83_linear_80_16" x1="89.856" y1="240.239" x2="93.256" y2="282.268" gradientUnits="userSpaceOnUse">
<stop stop-color="#09005D"/>
<stop offset="1" stop-color="#1A0F91"/>
</linearGradient>
<linearGradient id="paint84_linear_80_16" x1="105.055" y1="479.465" x2="59.7069" y2="533.905" gradientUnits="userSpaceOnUse">
<stop stop-color="#09005D"/>
<stop offset="1" stop-color="#1A0F91"/>
</linearGradient>
<linearGradient id="paint85_linear_80_16" x1="88.5958" y1="483.176" x2="93.1" y2="483.176" gradientUnits="userSpaceOnUse">
<stop stop-color="#A22B25"/>
<stop offset="1" stop-color="#C0423C"/>
</linearGradient>
<linearGradient id="paint86_linear_80_16" x1="77.9153" y1="451.971" x2="92.8084" y2="451.971" gradientUnits="userSpaceOnUse">
<stop stop-color="#09005D"/>
<stop offset="1" stop-color="#1A0F91"/>
</linearGradient>
<linearGradient id="paint87_linear_80_16" x1="93.6795" y1="469.989" x2="48.3312" y2="524.43" gradientUnits="userSpaceOnUse">
<stop stop-color="#09005D"/>
<stop offset="1" stop-color="#1A0F91"/>
</linearGradient>
<linearGradient id="paint88_linear_80_16" x1="72.3627" y1="482.967" x2="76.2516" y2="482.967" gradientUnits="userSpaceOnUse">
<stop stop-color="#A22B25"/>
<stop offset="1" stop-color="#C0423C"/>
</linearGradient>
<linearGradient id="paint89_linear_80_16" x1="32.2183" y1="528.194" x2="63.0053" y2="458.831" gradientUnits="userSpaceOnUse">
<stop stop-color="#09005D"/>
<stop offset="1" stop-color="#1A0F91"/>
</linearGradient>
<linearGradient id="paint90_linear_80_16" x1="104.121" y1="422.414" x2="77.6768" y2="380.761" gradientUnits="userSpaceOnUse">
<stop stop-color="#4F52FF"/>
<stop offset="1" stop-color="#4042E2"/>
</linearGradient>
<linearGradient id="paint91_linear_80_16" x1="95.5243" y1="397.708" x2="132.692" y2="356.882" gradientUnits="userSpaceOnUse">
<stop stop-color="#A22B25"/>
<stop offset="1" stop-color="#C0423C"/>
</linearGradient>
<linearGradient id="paint92_linear_80_16" x1="93.1707" y1="395.566" x2="130.338" y2="354.739" gradientUnits="userSpaceOnUse">
<stop stop-color="#A22B25"/>
<stop offset="1" stop-color="#C0423C"/>
</linearGradient>
<linearGradient id="paint93_linear_80_16" x1="131.28" y1="354.147" x2="130.191" y2="366.433" gradientUnits="userSpaceOnUse">
<stop stop-color="#A22B25"/>
<stop offset="1" stop-color="#C0423C"/>
</linearGradient>
<linearGradient id="paint94_linear_80_16" x1="92.7837" y1="429.611" x2="66.3397" y2="387.958" gradientUnits="userSpaceOnUse">
<stop stop-color="#4F52FF"/>
<stop offset="1" stop-color="#4042E2"/>
</linearGradient>
<linearGradient id="paint95_linear_80_16" x1="62.578" y1="403.25" x2="88.96" y2="417.259" gradientUnits="userSpaceOnUse">
<stop stop-color="#A22B25"/>
<stop offset="1" stop-color="#C0423C"/>
</linearGradient>
<linearGradient id="paint96_linear_80_16" x1="151.838" y1="340.119" x2="134.111" y2="364.065" gradientUnits="userSpaceOnUse">
<stop stop-color="#09005D"/>
<stop offset="1" stop-color="#1A0F91"/>
</linearGradient>
<linearGradient id="paint97_linear_80_16" x1="119.707" y1="392.783" x2="94.5447" y2="386.848" gradientUnits="userSpaceOnUse">
<stop stop-color="#09005D"/>
<stop offset="1" stop-color="#1A0F91"/>
</linearGradient>
<linearGradient id="paint98_linear_80_16" x1="64.5646" y1="382.359" x2="84.7118" y2="404.596" gradientUnits="userSpaceOnUse">
<stop stop-color="#09005D"/>
<stop offset="1" stop-color="#1A0F91"/>
</linearGradient>
<linearGradient id="paint99_linear_80_16" x1="78.6482" y1="401.928" x2="91.2375" y2="409.738" gradientUnits="userSpaceOnUse">
<stop stop-color="#A22B25"/>
<stop offset="1" stop-color="#C0423C"/>
</linearGradient>
<linearGradient id="paint100_linear_80_16" x1="83.5416" y1="384.621" x2="88.0032" y2="363.283" gradientUnits="userSpaceOnUse">
<stop stop-color="#A22B25"/>
<stop offset="1" stop-color="#C0423C"/>
</linearGradient>
<linearGradient id="paint101_linear_80_16" x1="99.7857" y1="380.434" x2="111.332" y2="394.722" gradientUnits="userSpaceOnUse">
<stop stop-color="#A22B25"/>
<stop offset="1" stop-color="#C0423C"/>
</linearGradient>
<linearGradient id="paint102_linear_80_16" x1="74.0299" y1="357.025" x2="89.1195" y2="370.179" gradientUnits="userSpaceOnUse">
<stop stop-color="#09005D"/>
<stop offset="1" stop-color="#1A0F91"/>
</linearGradient>
<linearGradient id="paint103_linear_80_16" x1="87.3657" y1="369.272" x2="104.435" y2="361.109" gradientUnits="userSpaceOnUse">
<stop stop-color="#A22B25"/>
<stop offset="1" stop-color="#C0423C"/>
</linearGradient>
<linearGradient id="paint104_linear_80_16" x1="298.218" y1="143.725" x2="289.37" y2="311.358" gradientUnits="userSpaceOnUse">
<stop stop-color="#4F52FF"/>
<stop offset="1" stop-color="#4042E2"/>
</linearGradient>
<linearGradient id="paint105_linear_80_16" x1="189.68" y1="456.136" x2="358.103" y2="456.136" gradientUnits="userSpaceOnUse">
<stop stop-color="#DAE3FE"/>
<stop offset="1" stop-color="#E9EFFD"/>
</linearGradient>
<linearGradient id="paint106_linear_80_16" x1="189.68" y1="460.945" x2="358.103" y2="460.945" gradientUnits="userSpaceOnUse">
<stop stop-color="#DAE3FE"/>
<stop offset="1" stop-color="#E9EFFD"/>
</linearGradient>
<linearGradient id="paint107_linear_80_16" x1="189.68" y1="465.754" x2="358.103" y2="465.754" gradientUnits="userSpaceOnUse">
<stop stop-color="#DAE3FE"/>
<stop offset="1" stop-color="#E9EFFD"/>
</linearGradient>
<linearGradient id="paint108_linear_80_16" x1="189.68" y1="470.564" x2="358.103" y2="470.564" gradientUnits="userSpaceOnUse">
<stop stop-color="#DAE3FE"/>
<stop offset="1" stop-color="#E9EFFD"/>
</linearGradient>
<linearGradient id="paint109_linear_80_16" x1="189.68" y1="475.373" x2="358.103" y2="475.373" gradientUnits="userSpaceOnUse">
<stop stop-color="#DAE3FE"/>
<stop offset="1" stop-color="#E9EFFD"/>
</linearGradient>
<linearGradient id="paint110_linear_80_16" x1="292.278" y1="379.234" x2="286.47" y2="589.008" gradientUnits="userSpaceOnUse">
<stop stop-color="#4F52FF"/>
<stop offset="1" stop-color="#4042E2"/>
</linearGradient>
<linearGradient id="paint111_linear_80_16" x1="256.965" y1="330.193" x2="315.317" y2="416.493" gradientUnits="userSpaceOnUse">
<stop stop-color="#09005D"/>
<stop offset="1" stop-color="#1A0F91"/>
</linearGradient>
<linearGradient id="paint112_linear_80_16" x1="208.105" y1="407.603" x2="245.916" y2="431.422" gradientUnits="userSpaceOnUse">
<stop stop-color="#FEBBBA"/>
<stop offset="1" stop-color="#FF928E"/>
</linearGradient>
<linearGradient id="paint113_linear_80_16" x1="213.313" y1="428.202" x2="228.439" y2="468.608" gradientUnits="userSpaceOnUse">
<stop stop-color="#09005D"/>
<stop offset="1" stop-color="#1A0F91"/>
</linearGradient>
<linearGradient id="paint114_linear_80_16" x1="249.389" y1="423.961" x2="296.93" y2="411.075" gradientUnits="userSpaceOnUse">
<stop stop-color="#FEBBBA"/>
<stop offset="1" stop-color="#FF928E"/>
</linearGradient>
<linearGradient id="paint115_linear_80_16" x1="220.272" y1="438.468" x2="243.206" y2="475.815" gradientUnits="userSpaceOnUse">
<stop stop-color="#09005D"/>
<stop offset="1" stop-color="#1A0F91"/>
</linearGradient>
<linearGradient id="paint116_linear_80_16" x1="2342.82" y1="1583.25" x2="2448.1" y2="1656.11" gradientUnits="userSpaceOnUse">
<stop stop-color="#09005D"/>
<stop offset="1" stop-color="#1A0F91"/>
</linearGradient>
<linearGradient id="paint117_linear_80_16" x1="250.082" y1="361.701" x2="281.512" y2="401.823" gradientUnits="userSpaceOnUse">
<stop stop-color="#4F52FF"/>
<stop offset="1" stop-color="#4042E2"/>
</linearGradient>
<linearGradient id="paint118_linear_80_16" x1="264.326" y1="369.503" x2="262.094" y2="353.699" gradientUnits="userSpaceOnUse">
<stop stop-color="#FEBBBA"/>
<stop offset="1" stop-color="#FF928E"/>
</linearGradient>
<linearGradient id="paint119_linear_80_16" x1="282.245" y1="395.727" x2="321.929" y2="395.727" gradientUnits="userSpaceOnUse">
<stop stop-color="#FEBBBA"/>
<stop offset="1" stop-color="#FF928E"/>
</linearGradient>
<linearGradient id="paint120_linear_80_16" x1="276.059" y1="395.311" x2="256.03" y2="402.562" gradientUnits="userSpaceOnUse">
<stop stop-color="#4F52FF"/>
<stop offset="1" stop-color="#4042E2"/>
</linearGradient>
<linearGradient id="paint121_linear_80_16" x1="247.961" y1="383.16" x2="234.752" y2="398.57" gradientUnits="userSpaceOnUse">
<stop stop-color="#09005D"/>
<stop offset="1" stop-color="#1A0F91"/>
</linearGradient>
<linearGradient id="paint122_linear_80_16" x1="71.4428" y1="-269.243" x2="64.4603" y2="-297.549" gradientUnits="userSpaceOnUse">
<stop stop-color="#FEBBBA"/>
<stop offset="1" stop-color="#FF928E"/>
</linearGradient>
<linearGradient id="paint123_linear_80_16" x1="247.151" y1="336.83" x2="305.503" y2="423.129" gradientUnits="userSpaceOnUse">
<stop stop-color="#09005D"/>
<stop offset="1" stop-color="#1A0F91"/>
</linearGradient>
<linearGradient id="paint124_linear_80_16" x1="76.2526" y1="-270.431" x2="69.2701" y2="-298.737" gradientUnits="userSpaceOnUse">
<stop stop-color="#FEBBBA"/>
<stop offset="1" stop-color="#FF928E"/>
</linearGradient>
<clipPath id="clip0_80_16">
<rect width="383" height="532" rx="12" fill="white"/>
</clipPath>
</defs>
</svg>
