<svg width="383" height="532" viewBox="0 0 383 532" fill="none" xmlns="http://www.w3.org/2000/svg">
<g clip-path="url(#clip0_80_15)">
<rect width="383" height="532" rx="12" fill="#D5E1FB"/>
<g clip-path="url(#clip1_80_15)">
<path d="M183.09 598.852C310.704 598.852 414.156 537.312 414.156 461.399C414.156 385.486 310.704 323.946 183.09 323.946C55.4751 323.946 -47.977 385.486 -47.977 461.399C-47.977 537.312 55.4751 598.852 183.09 598.852Z" fill="#8494AB"/>
<path d="M296.32 416.747L360.349 379.818C362.877 378.359 362.877 375.992 360.349 374.532L267.961 321.089C265.433 319.629 261.333 319.629 258.805 321.089L194.779 358.017C192.251 359.476 192.251 361.843 194.779 363.303L287.165 416.748C289.693 418.207 293.792 418.207 296.32 416.747Z" fill="#E0E0E0"/>
<path d="M133.396 506.875L37.4547 451.569C34.7529 450.008 34.7529 447.48 37.4547 445.92L170.929 368.848C173.631 367.289 178.012 367.289 180.713 368.848L276.652 424.153C279.354 425.713 279.354 428.242 276.652 429.802L143.18 506.875C140.478 508.435 136.098 508.435 133.396 506.875Z" fill="#E0E0E0"/>
<path d="M80.4253 499.276C69.8507 505.381 52.7066 505.381 42.1328 499.276C31.5583 493.171 31.5583 483.273 42.1328 477.167C52.7074 471.062 69.8515 471.062 80.4253 477.167C90.9998 483.273 90.9998 493.171 80.4253 499.276Z" fill="#E0E0E0"/>
<path d="M185.413 498.072C185.44 498.034 185.473 497.997 185.506 497.965L190.333 492.658C190.333 492.654 190.337 492.649 190.342 492.644L190.38 492.604C190.408 492.571 190.438 492.54 190.468 492.509L190.519 492.453L190.522 492.457C191.211 491.796 192.307 491.739 193.543 492.453C195.632 493.659 197.325 496.591 197.325 499.003C197.325 500.403 196.753 501.315 195.866 501.602L195.868 501.606L195.81 501.619C195.722 501.645 195.631 501.665 195.536 501.678L195.476 501.691C195.471 501.691 195.463 501.691 195.458 501.696L188.462 503.223C188.113 503.302 187.694 503.219 187.243 502.958C186.047 502.269 185.078 500.593 185.078 499.216C185.077 498.719 185.198 498.337 185.413 498.072Z" fill="#E0E0E0"/>
<path d="M298.477 449.216L196.668 508.06L182.563 510.929C182.203 511.002 181.922 510.621 182.097 510.298L186.513 502.197L288.336 443.347C291.117 441.741 300.657 447.957 298.477 449.216Z" fill="#E0E0E0"/>
<path d="M240.538 497.277C241.562 500.055 244.525 501.78 249.465 502.431L337.66 451.064L346.816 441.79C347.341 441.259 346.796 440.381 346.087 440.616L329.236 446.2L240.538 497.277Z" fill="#E0E0E0"/>
<path d="M347.152 377.245L290.366 409.312L203.16 359.271L259.94 327.2L347.152 377.245Z" fill="#BA68C8"/>
<path opacity="0.6" d="M347.152 377.245L290.366 409.312L203.16 359.271L259.94 327.2L347.152 377.245Z" fill="black"/>
<path d="M289.749 406.967L344.622 375.794C343.259 371.925 343.361 370.751 344.904 365.601L290.365 396.458C290.365 396.458 289.374 396.385 289.749 406.967Z" fill="#F5F5F5"/>
<path d="M293.027 392.231C290.258 393.821 288.014 397.685 288.013 400.863V407.606C288.013 410.786 290.258 412.073 293.027 410.485L347.145 379.743L347.151 377.246L293.719 407.407C292.057 408.36 290.713 407.588 290.714 405.681L290.762 399.676C290.763 397.769 292.111 395.451 293.773 394.497L347.145 364.322V361.49L293.027 392.231Z" fill="#BA68C8"/>
<path opacity="0.5" d="M293.027 392.231C290.258 393.821 288.014 397.685 288.013 400.863V407.606C288.013 410.786 290.258 412.073 293.027 410.485L347.145 379.743L347.151 377.246L293.719 407.407C292.057 408.36 290.713 407.588 290.714 405.681L290.762 399.676C290.763 397.769 292.111 395.451 293.773 394.497L347.145 364.322V361.49L293.027 392.231Z" fill="black"/>
<path d="M347.146 361.496L259.94 311.453L205.825 342.191C203.058 343.779 200.811 347.647 200.811 350.823L200.81 357.569C200.813 359.152 201.368 360.268 202.28 360.791L289.486 410.834C288.574 410.31 288.019 409.194 288.016 407.611L288.008 400.86C288.008 397.684 290.254 393.816 293.021 392.228L347.146 361.496Z" fill="#BA68C8"/>
<path opacity="0.35" d="M347.146 361.496L259.94 311.453L205.825 342.191C203.058 343.779 200.811 347.647 200.811 350.823L200.81 357.569C200.813 359.152 201.368 360.268 202.28 360.791L289.486 410.834C288.574 410.31 288.019 409.194 288.016 407.611L288.008 400.86C288.008 397.684 290.254 393.816 293.021 392.228L347.146 361.496Z" fill="black"/>
<path d="M289.477 395.949C288.571 397.512 288.009 399.272 288.009 400.86L288.016 407.611C288.02 409.194 288.575 410.31 289.487 410.834L202.281 360.791C201.369 360.267 200.814 359.152 200.811 357.569L200.812 350.823C200.812 349.234 201.374 347.475 202.281 345.911L289.477 395.949Z" fill="#BA68C8"/>
<path opacity="0.45" d="M289.477 395.949C288.571 397.512 288.009 399.272 288.009 400.86L288.016 407.611C288.02 409.194 288.575 410.31 289.487 410.834L202.281 360.791C201.369 360.267 200.814 359.152 200.811 357.569L200.812 350.823C200.812 349.234 201.374 347.475 202.281 345.911L289.477 395.949Z" fill="black"/>
<path d="M214.06 352.601C212.435 359.659 212.458 362.416 214.059 367.592L218.211 369.989C216.61 364.813 216.586 362.055 218.212 354.997L214.06 352.601Z" fill="#BA68C8"/>
<path d="M271.257 385.467C269.633 392.525 269.656 395.193 271.257 400.37L275.408 402.766C273.807 397.59 273.785 394.921 275.409 387.864L271.257 385.467Z" fill="#BA68C8"/>
<path d="M358.607 360.654L301.82 392.72L214.614 342.679L271.395 310.608L358.607 360.654Z" fill="#BA68C8"/>
<path opacity="0.4" d="M358.607 360.654L301.82 392.72L214.614 342.679L271.395 310.608L358.607 360.654Z" fill="black"/>
<path d="M301.203 390.375L356.076 359.202C354.713 355.333 354.815 353.602 356.358 348.453L301.819 379.31C301.819 379.31 300.828 379.794 301.203 390.375Z" fill="#F5F5F5"/>
<path d="M304.482 375.082C301.713 376.672 299.469 380.536 299.468 383.714V391.014C299.468 394.193 301.713 395.481 304.482 393.892L358.6 363.151L358.606 360.653L305.174 390.815C303.512 391.768 302.168 390.995 302.169 389.088L302.217 382.527C302.218 380.62 303.566 378.301 305.228 377.348L358.6 347.172V344.34L304.482 375.082Z" fill="#BA68C8"/>
<path opacity="0.25" d="M304.482 375.082C301.713 376.672 299.469 380.536 299.468 383.714V391.014C299.468 394.193 301.713 395.481 304.482 393.892L358.6 363.151L358.606 360.653L305.174 390.815C303.512 391.768 302.168 390.995 302.169 389.088L302.217 382.527C302.218 380.62 303.566 378.301 305.228 377.348L358.6 347.172V344.34L304.482 375.082Z" fill="black"/>
<path d="M358.6 344.348L271.395 294.305L217.28 325.043C214.513 326.631 212.266 330.498 212.266 333.674L212.265 340.977C212.268 342.56 212.823 343.676 213.735 344.199L300.941 394.242C300.029 393.718 299.474 392.603 299.471 391.019L299.463 383.711C299.463 380.535 301.709 376.667 304.476 375.079L358.6 344.348Z" fill="#BA68C8"/>
<path d="M300.932 378.8C300.026 380.362 299.464 382.123 299.464 383.711L299.471 391.019C299.475 392.602 300.03 393.718 300.942 394.242L213.736 344.199C212.824 343.675 212.269 342.56 212.266 340.977L212.267 333.674C212.267 332.085 212.829 330.326 213.736 328.763L300.932 378.8Z" fill="#BA68C8"/>
<path opacity="0.15" d="M300.932 378.8C300.026 380.362 299.464 382.123 299.464 383.711L299.471 391.019C299.475 392.602 300.03 393.718 300.942 394.242L213.736 344.199C212.824 343.675 212.269 342.56 212.266 340.977L212.267 333.674C212.267 332.085 212.829 330.326 213.736 328.763L300.932 378.8Z" fill="black"/>
<path d="M225.514 335.452C223.889 342.51 223.913 345.824 225.513 351.001L229.664 353.397C228.063 348.221 228.04 344.907 229.665 337.848L225.514 335.452Z" fill="#BA68C8"/>
<path d="M282.712 368.36C281.088 375.418 281.111 378.615 282.712 383.791L286.863 386.188C285.262 381.011 285.239 377.793 286.863 370.736L282.712 368.36Z" fill="#BA68C8"/>
<g opacity="0.4">
<path d="M225.514 335.452C223.889 342.51 223.913 345.824 225.513 351.001L229.664 353.397C228.063 348.221 228.04 344.907 229.665 337.848L225.514 335.452Z" fill="white"/>
<path d="M282.712 368.36C281.088 375.418 281.111 378.615 282.712 383.791L286.863 386.188C285.262 381.011 285.239 377.793 286.863 370.736L282.712 368.36Z" fill="white"/>
</g>
<path d="M51.5544 448.781L139.757 498.892L267.693 425.456L179.497 375.342L51.5544 448.781Z" fill="#BA68C8"/>
<path opacity="0.4" d="M51.5544 448.781L139.757 498.892L267.693 425.456L179.497 375.342L51.5544 448.781Z" fill="black"/>
<path d="M140.415 496.386L54.2578 447.23C55.7143 443.096 55.605 441.246 53.9567 435.744L139.757 484.562C139.757 484.562 140.817 485.078 140.415 496.386Z" fill="#F5F5F5"/>
<path d="M136.913 480.044C139.871 481.743 142.27 485.871 142.27 489.268V497.069C142.27 500.466 139.872 501.842 136.912 500.145L51.5617 451.45L51.5552 448.781L136.174 496.856C137.949 497.875 139.386 497.049 139.385 495.011L139.334 488C139.332 485.962 137.892 483.484 136.116 482.465L51.5617 434.375V431.35L136.913 480.044Z" fill="#BA68C8"/>
<path opacity="0.3" d="M136.913 480.044C139.871 481.743 142.27 485.871 142.27 489.268V497.069C142.27 500.466 139.872 501.842 136.912 500.145L51.5617 451.45L51.5552 448.781L136.174 496.856C137.949 497.875 139.386 497.049 139.385 495.011L139.334 488C139.332 485.962 137.892 483.484 136.116 482.465L51.5617 434.375V431.35L136.913 480.044Z" fill="black"/>
<path d="M51.561 431.356L179.498 357.918L264.845 406.609C267.803 408.306 270.202 412.439 270.202 415.833L270.204 423.637C270.201 425.328 269.608 426.521 268.633 427.08L140.696 500.518C141.67 499.958 142.263 498.766 142.267 497.074L142.275 489.264C142.275 485.871 139.875 481.738 136.919 480.041L51.561 431.356Z" fill="#BA68C8"/>
<path opacity="0.2" d="M51.561 431.356L179.498 357.918L264.845 406.609C267.803 408.306 270.202 412.439 270.202 415.833L270.204 423.637C270.201 425.328 269.608 426.521 268.633 427.08L140.696 500.518C141.67 499.958 142.263 498.766 142.267 497.074L142.275 489.264C142.275 485.871 139.875 481.738 136.919 480.041L51.561 431.356Z" fill="black"/>
<path d="M140.706 484.016C141.674 485.686 142.275 487.568 142.275 489.264L142.267 497.074C142.263 498.766 141.67 499.958 140.696 500.518L268.633 427.081C269.608 426.522 270.202 425.329 270.204 423.637L270.202 415.834C270.202 414.137 269.602 412.256 268.632 410.585L140.706 484.016Z" fill="#BA68C8"/>
<path d="M140.702 484.014C141.671 485.684 142.272 487.565 142.272 489.262L142.263 497.072C142.26 498.763 141.667 499.956 140.692 500.515L268.629 427.078C269.604 426.519 270.197 425.327 270.201 423.635L270.199 415.832C270.199 414.134 269.599 412.253 268.629 410.583L140.702 484.014Z" fill="#BA68C8"/>
<path d="M256.046 417.733C257.782 425.275 257.757 428.817 256.046 434.347L251.611 436.909C253.322 431.377 253.346 427.836 251.61 420.294L256.046 417.733Z" fill="#BA68C8"/>
<path d="M160.175 472.84C161.911 480.381 161.887 483.812 160.175 489.343L155.74 491.88C157.451 486.349 157.475 482.925 155.739 475.382L160.175 472.84Z" fill="#BA68C8"/>
<g opacity="0.4">
<path d="M256.046 417.733C257.782 425.275 257.757 428.817 256.046 434.347L251.611 436.909C253.322 431.377 253.346 427.836 251.61 420.294L256.046 417.733Z" fill="white"/>
<path d="M160.175 472.84C161.911 480.381 161.887 483.812 160.175 489.343L155.74 491.88C157.451 486.349 157.475 482.925 155.739 475.382L160.175 472.84Z" fill="white"/>
</g>
<path d="M40.252 431.831L128.454 481.941L256.391 408.505L168.195 358.392L40.252 431.831Z" fill="#BA68C8"/>
<path opacity="0.2" d="M40.252 431.831L128.454 481.941L256.391 408.505L168.195 358.392L40.252 431.831Z" fill="white"/>
<path d="M129.114 479.435L42.9554 430.279C44.4119 426.145 44.3026 424.89 42.6543 419.388L128.455 468.206C128.455 468.206 129.514 468.128 129.114 479.435Z" fill="#F5F5F5"/>
<path d="M125.61 463.689C128.568 465.387 130.967 469.516 130.967 472.913V480.119C130.967 483.516 128.569 484.892 125.61 483.195L40.2593 434.5L40.2528 431.831L124.871 479.906C126.647 480.925 128.083 480.099 128.082 478.061L128.032 471.644C128.03 469.607 126.589 467.129 124.813 466.109L40.2593 418.021V414.995L125.61 463.689Z" fill="#BA68C8"/>
<path opacity="0.4" d="M125.61 463.689C128.568 465.387 130.967 469.516 130.967 472.913V480.119C130.967 483.516 128.569 484.892 125.61 483.195L40.2593 434.5L40.2528 431.831L124.871 479.906C126.647 480.925 128.083 480.099 128.082 478.061L128.032 471.644C128.03 469.607 126.589 467.129 124.813 466.109L40.2593 418.021V414.995L125.61 463.689Z" fill="white"/>
<path d="M40.2586 415.002L168.196 341.564L253.543 390.255C256.5 391.952 258.9 396.084 258.9 399.479L258.902 406.687C258.898 408.379 258.305 409.572 257.33 410.131L129.393 483.568C130.367 483.008 130.96 481.816 130.964 480.124L130.972 472.909C130.972 469.515 128.573 465.382 125.616 463.686L40.2586 415.002Z" fill="#BA68C8"/>
<path opacity="0.85" d="M40.2586 415.002L168.196 341.564L253.543 390.255C256.5 391.952 258.9 396.084 258.9 399.479L258.902 406.687C258.898 408.379 258.305 409.572 257.33 410.131L129.393 483.568C130.367 483.008 130.96 481.816 130.964 480.124L130.972 472.909C130.972 469.515 128.573 465.382 125.616 463.686L40.2586 415.002Z" fill="white"/>
<path d="M129.403 467.661C130.372 469.331 130.972 471.212 130.972 472.909L130.964 480.124C130.961 481.815 130.368 483.008 129.393 483.567L257.33 410.131C258.305 409.572 258.898 408.379 258.902 406.687L258.9 399.479C258.9 397.781 258.299 395.9 257.33 394.231L129.403 467.661Z" fill="#BA68C8"/>
<path opacity="0.6" d="M129.403 467.661C130.372 469.331 130.972 471.212 130.972 472.909L130.964 480.124C130.961 481.815 130.368 483.008 129.393 483.567L257.33 410.131C258.305 409.572 258.898 408.379 258.902 406.687L258.9 399.479C258.9 397.781 258.299 395.9 257.33 394.231L129.403 467.661Z" fill="white"/>
<path d="M244.743 401.377C246.48 408.92 246.454 411.866 244.744 417.397L240.308 419.959C242.019 414.427 242.044 411.48 240.307 403.938L244.743 401.377Z" fill="white"/>
<path d="M148.872 456.461C150.609 464.002 150.584 466.854 148.873 472.385L144.436 474.947C146.148 469.415 146.172 466.564 144.436 459.022L148.872 456.461Z" fill="white"/>
<path d="M238.707 299.88V333.09C238.73 337.875 242.907 342.655 251.244 346.304C267.959 353.619 295.057 353.619 311.771 346.304C320.132 342.639 324.301 337.845 324.301 333.052V299.88H324.294C324.391 295.026 320.223 290.165 311.771 286.463C295.057 279.148 267.959 279.148 251.244 286.463C242.786 290.165 238.617 295.026 238.715 299.88H238.707Z" fill="#37474F"/>
<path d="M238.715 299.88C238.617 295.026 242.786 290.165 251.244 286.463C267.958 279.148 295.057 279.148 311.771 286.463C320.222 290.165 324.391 295.026 324.293 299.88H324.301V315.052C324.294 311.289 320.97 308.595 311.084 312.233C294.886 318.195 285.799 328.047 269.275 332.916C255.611 336.941 243.509 335.39 238.706 330.367V299.88H238.715Z" fill="#263238"/>
<path d="M238.707 317.457V321.223C238.73 326.002 242.906 330.789 251.244 334.43C267.958 341.752 295.057 341.752 311.771 334.43C320.192 330.75 324.361 325.904 324.301 321.073V317.418C324.301 322.212 320.132 327.006 311.771 330.67C295.057 337.985 267.958 337.985 251.244 330.67C242.906 327.022 238.729 322.243 238.707 317.457Z" fill="#BA68C8"/>
<path d="M348.753 289.291L281.502 257.523L214.252 289.291V294.585L281.502 322.823L348.753 294.585V289.291Z" fill="#37474F"/>
<path opacity="0.2" d="M281.502 322.822V317.528L348.753 289.291V294.585L281.502 322.822Z" fill="#BA68C8"/>
<path opacity="0.2" d="M281.502 317.528L347.788 290.861L348.753 294.585V289.291L281.502 317.528Z" fill="#BA68C8"/>
<path d="M281.502 257.523L214.252 289.291L281.502 317.528L348.753 289.291L281.502 257.523Z" fill="#455A64"/>
<path d="M245.447 315.301C245.438 314.863 245.234 304.535 246.24 301.603C247.248 298.665 251.08 295.685 259.057 291.637C267.921 287.139 276.067 285.23 276.966 285.027L277.297 286.495C276.416 286.694 268.44 288.563 259.738 292.979C252.245 296.781 248.521 299.592 247.664 302.091C246.901 304.316 246.892 312.359 246.953 315.27L245.447 315.301Z" fill="#BA68C8"/>
<path opacity="0.8" d="M245.447 315.301C245.438 314.863 245.234 304.535 246.24 301.603C247.248 298.665 251.08 295.685 259.057 291.637C267.921 287.139 276.067 285.23 276.966 285.027L277.297 286.495C276.416 286.694 268.44 288.563 259.738 292.979C252.245 296.781 248.521 299.592 247.664 302.091C246.901 304.316 246.892 312.359 246.953 315.27L245.447 315.301Z" fill="white"/>
<path d="M254.183 346.874C254.183 339.141 252.902 325.302 248.85 321.284H243.504C239.454 325.302 238.172 339.142 238.172 346.874C238.172 348.057 238.954 349.24 240.516 350.142C242.08 351.045 244.129 351.496 246.178 351.496C248.227 351.496 250.276 351.045 251.839 350.142C253.403 349.241 254.183 348.057 254.183 346.874Z" fill="#BA68C8"/>
<path opacity="0.5" d="M254.183 346.874C254.183 339.141 252.902 325.302 248.85 321.284H243.504C239.454 325.302 238.172 339.142 238.172 346.874C238.172 348.057 238.954 349.24 240.516 350.142C242.08 351.045 244.129 351.496 246.178 351.496C248.227 351.496 250.276 351.045 251.839 350.142C253.403 349.241 254.183 348.057 254.183 346.874Z" fill="white"/>
<path opacity="0.6" d="M243.504 321.284C243.2 321.586 242.913 321.95 242.639 322.356C243.657 323.437 245.223 323.711 246.787 323.837C248.225 323.953 249.967 325.223 250.66 331.564C251.353 337.904 252.7 346.003 250.188 348.454C247.677 350.905 242.068 350.886 239.121 349.057C239.483 349.447 239.946 349.814 240.516 350.143C242.08 351.046 244.129 351.497 246.178 351.497C248.227 351.497 250.276 351.046 251.839 350.143C253.403 349.241 254.184 348.057 254.184 346.875C254.184 339.142 252.902 325.303 248.851 321.285H243.504V321.284Z" fill="#BA68C8"/>
<path d="M250.188 318.464C250.188 320.679 248.392 322.475 246.178 322.475C243.962 322.475 242.167 320.68 242.167 318.464C242.167 316.249 243.963 314.454 246.178 314.454C248.392 314.453 250.188 316.249 250.188 318.464Z" fill="#BA68C8"/>
<path opacity="0.5" d="M250.188 318.464C250.188 320.679 248.392 322.475 246.178 322.475C243.962 322.475 242.167 320.68 242.167 318.464C242.167 316.249 243.963 314.454 246.178 314.454C248.392 314.453 250.188 316.249 250.188 318.464Z" fill="white"/>
<path opacity="0.4" d="M248.51 315.212C249.51 316.269 249.661 319.032 247.535 320.425C245.419 321.812 243.212 320.732 242.37 319.662C242.882 321.288 244.383 322.475 246.179 322.475C248.393 322.475 250.189 320.679 250.189 318.464C250.188 317.121 249.522 315.941 248.51 315.212Z" fill="#BA68C8"/>
<path d="M276.099 283.113C276.099 282.314 276.626 281.516 277.682 280.907C279.792 279.689 283.214 279.689 285.324 280.907C286.379 281.516 286.907 282.314 286.907 283.113C286.907 283.411 286.907 284.581 286.907 284.878C286.907 285.677 286.379 286.475 285.324 287.085C283.214 288.303 279.792 288.303 277.682 287.085C276.627 286.475 276.099 285.677 276.099 284.878C276.099 284.581 276.099 283.41 276.099 283.113Z" fill="#263238"/>
<path d="M285.324 285.319C287.434 284.101 287.434 282.125 285.324 280.907C283.214 279.689 279.792 279.689 277.682 280.907C275.572 282.125 275.572 284.101 277.682 285.319C279.792 286.537 283.214 286.537 285.324 285.319Z" fill="#37474F"/>
<path d="M67.4223 444.442C72.1975 443.908 80.5338 443.139 87.4543 452.811C95.336 463.826 92.0435 479.767 84.1576 487.597C74.2506 497.433 56.6854 500.913 44.6804 493.215C31.4065 484.704 27.1829 465.002 33.5477 454.988C39.9125 444.975 52.4006 445.381 55.7731 446.178C60.8372 447.375 63.7046 444.857 67.4223 444.442Z" fill="#BA68C8"/>
<path opacity="0.1" d="M50.7792 489.669C64.1697 494.28 80.5411 489.337 89.3531 479.855C88.0287 482.846 86.258 485.51 84.1576 487.596C74.2506 497.432 56.6854 500.912 44.6804 493.215C34.6158 486.761 29.7672 473.881 30.7798 463.661C30.779 466.478 36.043 484.594 50.7792 489.669Z" fill="black"/>
<g opacity="0.1">
<path d="M73.047 447.811C76.0539 447.03 80.9434 448.981 83.9691 452.74C87.7276 457.411 89.3311 464.635 89.3376 470.087C89.3507 481.082 79.9716 488.448 78.8169 487.71C77.6631 486.971 83.9789 478.71 78.036 468.778C72.0049 458.701 68.1216 449.091 73.047 447.811Z" fill="white"/>
</g>
<g opacity="0.1">
<path d="M75.699 449.135C78.985 449.656 83.4289 454.011 84.9655 457.368C86.502 460.725 86.4498 463.194 86.0418 463.687C85.3074 464.574 77.9487 459.481 75.4248 457.062C71.8491 453.633 70.4015 448.295 75.699 449.135Z" fill="white"/>
</g>
<path opacity="0.2" d="M64.062 454.423C65.4949 452.818 66.9417 451.885 68.1094 453.734C69.2771 455.582 65.3896 459.464 60.2513 458.865C55.1137 458.265 52.8779 455.365 52.709 453.736C52.709 453.736 55.5111 456.858 58.8625 456.701C61.1783 456.594 63.3194 455.256 64.062 454.423Z" fill="black"/>
<path d="M60.0391 457.614C60.0391 457.614 58.8151 450.507 59.9673 443.861C61.1203 437.215 64.2823 432.157 65.2623 431.493C66.2415 430.83 67.9666 430.169 70.4823 429.775C72.9972 429.381 76.2783 430.561 75.6223 431.666C74.9662 432.77 71.4697 434.111 67.7748 438.961C64.0816 443.812 61.246 452.501 62.0514 457.27C62.053 457.272 61.2697 458.05 60.0391 457.614Z" fill="#37474F"/>
<path d="M65.4337 431.388C65.508 431.342 65.5781 431.294 65.6606 431.249C65.6687 431.244 65.6777 431.24 65.6859 431.235C66.7075 430.663 68.2962 430.118 70.4839 429.776C72.3411 429.485 74.6113 430.053 75.4101 430.814C75.6427 431.147 75.1751 431.729 72.9842 432.427C70.7842 433.129 68.4113 433.324 66.2766 432.934C65.2387 432.744 64.714 431.942 65.4337 431.388Z" fill="#455A64"/>
<path opacity="0.1" d="M61.9584 449.151C62.9743 443.159 68.1657 437.425 71.9176 434.642C70.6781 435.666 69.2444 437.035 67.7756 438.963C64.0824 443.813 61.2468 452.503 62.0522 457.271C62.0522 457.271 61.2696 458.051 60.0383 457.614C60.0383 457.614 59.7454 455.901 59.5813 453.377C60.0995 455.66 61.0224 454.674 61.9584 449.151Z" fill="black"/>
<path d="M59.5495 447.558C56.6184 448.68 51.3977 448.434 47.8766 445.138C43.6465 441.176 44.8909 434.877 44.8909 434.877C44.8909 434.877 50.1035 432.723 55.0452 436.255C58.6503 438.831 60.0905 444.755 59.5495 447.558Z" fill="#BA68C8"/>
<path opacity="0.3" d="M59.5495 447.558C56.6184 448.68 51.3977 448.434 47.8766 445.138C43.6465 441.176 44.8909 434.877 44.8909 434.877C44.8909 434.877 50.1035 432.723 55.0452 436.255C58.6503 438.831 60.0905 444.755 59.5495 447.558Z" fill="black"/>
<path d="M44.8901 434.877C44.8901 434.877 50.1027 432.723 55.0444 436.255C58.6495 438.831 60.0905 444.755 59.5487 447.558C55.2451 439.283 44.8901 434.877 44.8901 434.877Z" fill="#BA68C8"/>
<path opacity="0.2" d="M44.8901 434.877C44.8901 434.877 50.1027 432.723 55.0444 436.255C58.6495 438.831 60.0905 444.755 59.5487 447.558C55.2451 439.283 44.8901 434.877 44.8901 434.877Z" fill="black"/>
<path d="M288.686 437.507C288.686 439.918 290.38 442.851 292.471 444.056C293.281 444.526 294.03 444.662 294.645 444.517C294.524 444.648 294.384 444.755 294.235 444.839L295.143 444.321C295.161 444.307 295.174 444.298 295.194 444.289C295.241 444.261 295.282 444.228 295.329 444.196C295.389 444.153 295.445 444.103 295.497 444.051C295.529 444.019 295.561 443.986 295.595 443.948C295.604 443.944 295.609 443.939 295.613 443.93C295.641 443.898 295.673 443.86 295.701 443.819C295.826 443.656 295.929 443.469 296.012 443.256C296.036 443.195 296.059 443.134 296.078 443.074C296.092 443.041 296.101 443.013 296.105 442.981C296.124 442.925 296.138 442.87 296.147 442.814C296.217 442.53 296.25 442.219 296.25 441.874C296.25 439.463 294.555 436.53 292.469 435.325C291.86 434.971 291.287 434.808 290.775 434.808H290.761C290.682 434.808 290.602 434.813 290.528 434.822L290.309 434.859C290.263 434.869 290.221 434.883 290.179 434.897L290.101 434.92C290.048 434.938 289.998 434.957 289.946 434.986L289.914 434.999C289.867 435.023 289.816 435.046 289.769 435.074L288.978 435.526C289.103 435.461 289.243 435.41 289.387 435.381C288.947 435.84 288.686 436.561 288.686 437.507ZM294.917 444.43C294.94 444.421 294.961 444.408 294.983 444.399C294.96 444.409 294.939 444.421 294.917 444.43Z" fill="#BA68C8"/>
<path d="M190.868 492.187L196.203 501.46L197.106 500.939L294.234 444.839C294.383 444.755 294.523 444.648 294.644 444.517C295.081 444.056 295.342 443.335 295.342 442.39C295.342 439.979 293.647 437.047 291.557 435.841C290.952 435.487 290.376 435.324 289.868 435.324C289.7 435.324 289.542 435.343 289.388 435.38C289.244 435.407 289.104 435.459 288.979 435.524C288.956 435.534 288.932 435.548 288.913 435.557L288.89 435.571C288.886 435.575 288.886 435.575 288.881 435.575L190.868 492.187Z" fill="#F0F0F0"/>
<path d="M193.543 492.452C191.455 491.246 189.762 492.224 189.762 494.635C189.762 497.047 191.455 499.979 193.543 501.185C195.632 502.39 197.325 501.413 197.325 499.001C197.325 496.59 195.632 493.657 193.543 492.452Z" fill="#BA68C8"/>
<path d="M247.23 463.634C247.235 463.625 247.244 463.62 247.254 463.62L247.38 463.546C247.612 463.444 247.92 463.475 248.259 463.671C248.999 464.099 249.605 465.146 249.605 466.003C249.605 466.38 249.489 466.66 249.293 466.814C249.293 466.818 249.288 466.818 249.288 466.818L249.125 466.912L191.65 500.092L187.87 497.909L247.23 463.634Z" fill="#455A64"/>
<path d="M196.987 497.011L191.65 500.092L187.87 497.909L195.095 493.737C195.934 494.657 196.608 495.824 196.987 497.011Z" fill="#37474F"/>
<path d="M183.512 500.594L183.507 500.589L187.884 495.776C187.923 495.729 187.96 495.684 188.002 495.646C188.488 495.16 189.272 495.118 190.159 495.629C191.634 496.48 192.832 498.553 192.832 500.258C192.832 501.242 192.434 501.888 191.814 502.097C191.797 502.101 191.785 502.105 191.773 502.11L191.596 502.148L185.179 503.547L185.176 503.545C184.98 503.589 184.742 503.544 184.486 503.396C183.813 503.009 183.268 502.065 183.268 501.289C183.268 500.974 183.361 500.74 183.512 500.594Z" fill="#BA68C8"/>
<path opacity="0.1" d="M183.512 500.594L183.507 500.589L187.884 495.776C187.923 495.729 187.96 495.684 188.002 495.646C188.488 495.16 189.272 495.118 190.159 495.629C191.634 496.48 192.832 498.553 192.832 500.258C192.832 501.242 192.434 501.888 191.814 502.097C191.797 502.101 191.785 502.105 191.773 502.11L191.596 502.148L185.179 503.547L185.176 503.545C184.98 503.589 184.742 503.544 184.486 503.396C183.813 503.009 183.268 502.065 183.268 501.289C183.268 500.974 183.361 500.74 183.512 500.594Z" fill="black"/>
<path d="M183.267 501.289C183.267 502.064 183.812 503.006 184.486 503.396C184.742 503.542 184.981 503.588 185.174 503.542L185.178 503.547L188.42 502.838C188.931 502.73 189.267 502.247 189.267 501.477C189.267 500.237 188.396 498.725 187.323 498.105C186.686 497.736 186.121 497.765 185.764 498.109L185.677 498.205L183.506 500.589L183.511 500.593C183.36 500.739 183.267 500.974 183.267 501.289Z" fill="#BA68C8"/>
<path opacity="0.1" d="M184.485 500.585C183.812 500.198 183.267 500.512 183.267 501.288C183.267 502.064 183.812 503.007 184.485 503.395C185.156 503.783 185.702 503.468 185.702 502.692C185.702 501.917 185.157 500.974 184.485 500.585Z" fill="black"/>
<path d="M280.81 444.219C281.052 444.075 281.387 444.099 281.759 444.312C282.5 444.741 283.1 445.779 283.096 446.631C283.096 447.063 282.947 447.366 282.7 447.501L249.293 466.813C249.489 466.659 249.605 466.38 249.605 466.003C249.605 465.146 248.999 464.099 248.259 463.67C247.919 463.475 247.612 463.443 247.38 463.545L280.81 444.219Z" fill="#FAFAFA"/>
<path d="M280.419 445.085C280.419 445.937 281.019 446.975 281.759 447.403C282.127 447.612 282.458 447.636 282.695 447.496C282.942 447.362 283.095 447.064 283.095 446.63C283.1 445.779 282.499 444.741 281.759 444.311C281.386 444.098 281.051 444.075 280.809 444.219C280.568 444.359 280.419 444.661 280.419 445.085Z" fill="#F5F5F5"/>
<path d="M283.413 439.359L283.41 439.356L283.453 439.331C283.473 439.319 283.493 439.308 283.513 439.297L289.092 436.08C289.134 436.053 289.178 436.027 289.223 436.004L289.254 435.986L289.255 435.989C289.861 435.692 290.67 435.76 291.561 436.275C293.441 437.36 294.965 439.999 294.965 442.169C294.965 443.26 294.579 444.025 293.958 444.378L288.31 447.638C288.3 447.644 288.29 447.65 288.28 447.656L288.247 447.675L288.245 447.672C287.633 447.997 286.805 447.938 285.889 447.41C284.009 446.324 282.486 443.685 282.486 441.515C282.485 440.472 282.838 439.731 283.413 439.359Z" fill="#BA68C8"/>
<path opacity="0.05" d="M283.413 439.359L283.41 439.356L283.453 439.331C283.473 439.319 283.493 439.308 283.513 439.297L289.092 436.08C289.134 436.053 289.178 436.027 289.223 436.004L289.254 435.986L289.255 435.989C289.861 435.692 290.67 435.76 291.561 436.275C293.441 437.36 294.965 439.999 294.965 442.169C294.965 443.26 294.579 444.025 293.958 444.378L288.31 447.638C288.3 447.644 288.29 447.65 288.28 447.656L288.247 447.675L288.245 447.672C287.633 447.997 286.805 447.938 285.889 447.41C284.009 446.324 282.486 443.685 282.486 441.515C282.485 440.472 282.838 439.731 283.413 439.359Z" fill="black"/>
<path opacity="0.1" d="M285.888 439.55C284.008 438.465 282.485 439.345 282.485 441.515C282.485 443.686 284.008 446.326 285.888 447.41C287.768 448.495 289.292 447.616 289.292 445.445C289.291 443.275 287.768 440.636 285.888 439.55Z" fill="black"/>
<path d="M181.723 502.62L184.031 501.234L184.032 501.237C184.146 501.163 184.305 501.167 184.484 501.271C184.828 501.47 185.107 501.953 185.107 502.351C185.107 502.55 185.037 502.69 184.925 502.755L182.624 504.146C182.498 504.216 182.352 504.256 182.198 504.256C181.708 504.256 181.311 503.859 181.311 503.37C181.311 503.053 181.475 502.777 181.723 502.62Z" fill="#455A64"/>
<path d="M181.589 502.725L181.594 502.721C181.63 502.687 181.675 502.651 181.716 502.624C181.721 502.624 181.721 502.619 181.725 502.619C181.832 502.577 181.973 502.6 182.127 502.689C182.471 502.89 182.751 503.369 182.751 503.768C182.751 503.964 182.686 504.099 182.574 504.164C182.559 504.174 182.541 504.183 182.526 504.187C182.513 504.197 182.481 504.208 182.481 504.208C182.393 504.246 182.299 504.256 182.196 504.256C181.707 504.256 181.311 503.857 181.311 503.368C181.311 503.112 181.417 502.883 181.589 502.725Z" fill="#263238"/>
<path d="M329.882 439.926L344.883 436.987C345.319 436.902 345.615 437.419 345.321 437.752L335.145 449.275L329.882 439.926Z" fill="#FFA8A7"/>
<path d="M345.32 437.752C345.615 437.419 345.319 436.902 344.882 436.987L341.953 437.561C342.774 438.069 343.241 438.993 343.164 439.955L343.143 440.216L345.32 437.752Z" fill="#263238"/>
<path d="M261.421 491.492L262.649 490.788L264.132 489.943L335.144 449.277C335.699 447.647 335.429 445.863 334.726 444.302C333.663 441.92 331.596 440.041 329.885 439.932L258.906 480.581L256.076 482.205C257.967 481.256 263.305 490.514 261.421 491.492Z" fill="#455A64"/>
<path d="M266.101 488.827L268.839 487.25C269.648 486.82 269.184 484.835 268.237 482.78C266.987 480.048 264.525 477.405 263.452 477.973L261.433 479.132L260.717 479.559C261.79 478.989 264.255 481.633 265.505 484.365C266.409 486.334 266.868 488.25 266.181 488.771L266.174 488.776C266.157 488.798 266.132 488.813 266.101 488.827Z" fill="#EBEBEB"/>
<path d="M266.782 488.428C268.662 487.431 263.279 478.161 261.399 479.157L258.653 480.727C260.533 479.73 265.915 489 264.035 489.995L266.782 488.428Z" fill="#BA68C8"/>
<path d="M261.421 491.492L264.132 489.943C265.985 488.979 260.867 479.989 258.906 480.581C258.871 480.587 258.832 480.605 258.795 480.624L256.077 482.205C257.967 481.256 263.305 490.514 261.421 491.492Z" fill="#EBEBEB"/>
<path opacity="0.15" d="M345.389 437.247L344.883 436.987L333.998 442.941L259.929 485.373C259.824 485.205 259.737 485.194 259.667 485.309C261.267 487.803 262.475 490.944 261.421 491.492L262.649 490.788L264.132 489.943L335.144 449.277L335.145 449.275L345.321 437.752C345.458 437.597 345.463 437.402 345.389 437.247Z" fill="black"/>
<path d="M249.923 498.072L261.421 491.492C262.227 491.074 261.78 489.107 260.851 487.063C259.609 484.326 257.157 481.659 256.076 482.204C256.076 482.204 256.069 482.203 256.06 482.208L244.527 488.813C242.236 490.135 244.343 495.11 246.899 497.333C247.851 498.173 248.914 498.545 249.923 498.072Z" fill="#F28F8F"/>
<path opacity="0.1" d="M250.609 494.505C249.95 491.913 247.851 489.372 245.919 488.829C245.211 488.63 244.625 488.729 244.198 489.06C242.468 490.666 244.481 495.231 246.9 497.334C247.832 498.156 248.871 498.525 249.864 498.092C250.725 497.589 251.057 496.263 250.609 494.505Z" fill="black"/>
<path d="M201.818 217.267L214.173 210.805C214.173 210.805 222.02 212.809 235.12 212.034C254.499 210.888 265.811 202.705 262.93 191.212C259.978 179.436 247.02 174.815 223.921 175.716C195.022 176.845 188.013 196.434 205.269 208.01L201.818 217.267Z" fill="#BA68C8"/>
<path opacity="0.7" d="M201.818 217.267L214.173 210.805C214.173 210.805 222.02 212.809 235.12 212.034C254.499 210.888 265.811 202.705 262.93 191.212C259.978 179.436 247.02 174.815 223.921 175.716C195.022 176.845 188.013 196.434 205.269 208.01L201.818 217.267Z" fill="white"/>
<path d="M215.069 197.373C216.771 197.373 218.15 195.994 218.15 194.293C218.15 192.592 216.771 191.212 215.069 191.212C213.368 191.212 211.989 192.592 211.989 194.293C211.989 195.994 213.368 197.373 215.069 197.373Z" fill="white"/>
<path d="M229.558 197.373C231.26 197.373 232.639 195.994 232.639 194.293C232.639 192.592 231.26 191.212 229.558 191.212C227.857 191.212 226.478 192.592 226.478 194.293C226.478 195.994 227.857 197.373 229.558 197.373Z" fill="white"/>
<path d="M244.047 197.373C245.748 197.373 247.128 195.994 247.128 194.293C247.128 192.592 245.748 191.212 244.047 191.212C242.346 191.212 240.967 192.592 240.967 194.293C240.967 195.994 242.346 197.373 244.047 197.373Z" fill="white"/>
<path d="M46.4756 403.796C46.4756 405.906 48.0545 407.259 50.0032 408.383L129.851 454.484C131.799 455.609 134.958 455.609 136.906 454.484L265.72 380.114C267.668 378.989 269.248 377.542 269.248 375.431C269.248 373.321 267.669 372.015 265.72 370.89L185.872 324.789C183.924 323.665 180.766 323.665 178.817 324.789L50.0023 399.159C48.0537 400.285 46.4748 401.685 46.4756 403.796Z" fill="#37474F"/>
<path d="M50.0023 403.233L129.851 449.334C131.799 450.458 134.958 450.458 136.906 449.334L265.72 374.963C267.668 373.839 267.668 372.015 265.72 370.89L185.872 324.789C183.924 323.665 180.766 323.665 178.817 324.789L50.0023 399.159C48.0537 400.285 48.0537 402.108 50.0023 403.233Z" fill="#455A64"/>
<path d="M133.381 450.184V455.326C132.103 455.326 130.823 455.049 129.854 454.487L50.0023 408.384C48.0554 407.26 46.4756 405.907 46.4756 403.797C46.4756 401.817 47.8954 400.438 49.7273 399.318C48.2145 400.387 48.1859 402.184 50.0023 403.235L129.854 449.337C130.823 449.898 132.102 450.184 133.381 450.184Z" fill="#263238"/>
<path d="M44.9423 399.706C43.396 398.993 42.9758 397.764 42.8281 395.6L35.9059 294.331C35.7582 292.167 37.2181 289.5 39.1659 288.375L167.98 214.005C169.927 212.881 171.355 212.27 173.155 213.499C175.037 214.785 174.992 215.41 175.14 217.574L182.061 318.843C182.209 321.007 180.749 323.674 178.801 324.798L49.9868 399.169C48.039 400.293 46.9358 400.624 44.9423 399.706Z" fill="#37474F"/>
<path d="M175.142 217.569C174.995 215.409 173.293 214.568 171.346 215.688L42.5294 290.062C41.5559 290.625 40.6999 291.575 40.1165 292.653L36.7554 290.963H36.7489C37.3388 289.884 38.1948 288.933 39.1683 288.371L167.978 214.003C169.926 212.878 171.362 212.256 173.152 213.497C175.044 214.807 174.995 215.409 175.142 217.569Z" fill="#455A64"/>
<path d="M49.7257 399.317C47.9525 400.365 46.8297 400.493 44.9423 399.702C43.4996 399.096 42.9774 397.764 42.8297 395.601L35.9076 294.327C35.8341 293.246 36.1581 292.037 36.7538 290.966L40.114 292.644L40.1149 292.651C39.5282 293.73 39.1952 294.931 39.2687 296.013L46.1908 397.287C46.3287 399.292 48.0619 400.3 49.7257 399.317Z" fill="#263238"/>
<path d="M44.7677 293.934L168.732 222.383C169.901 221.708 170.92 222.214 171.009 223.512L177.467 317.986C177.556 319.285 176.68 320.885 175.51 321.56L51.547 393.11C50.3777 393.785 49.3585 393.279 49.2696 391.98L42.8117 297.508C42.7228 296.209 43.5984 294.609 44.7677 293.934Z" fill="black"/>
<path d="M44.7677 293.934C43.5984 294.608 42.7228 296.209 42.8117 297.507L49.1627 390.406L171.71 319.674C172.88 318.999 173.755 317.399 173.666 316.101L167.315 223.2L44.7677 293.934Z" fill="#BA68C8"/>
<path opacity="0.8" d="M44.7677 293.934C43.5984 294.608 42.7228 296.209 42.8117 297.507L49.1627 390.406L171.71 319.674C172.88 318.999 173.755 317.399 173.666 316.101L167.315 223.2L44.7677 293.934Z" fill="white"/>
<path d="M60.8976 399.758L179.272 331.416C180.191 330.885 181.68 330.885 182.599 331.416L186.911 333.834C187.83 334.365 187.83 335.225 186.911 335.755L68.5182 404.086C67.5994 404.617 66.1102 404.617 65.1914 404.086L60.8976 401.678C59.9787 401.149 59.9787 400.289 60.8976 399.758Z" fill="#263238"/>
<path d="M72.5223 406.615L190.896 338.272C191.815 337.741 193.175 337.667 193.936 338.106L224.747 355.896C225.507 356.335 225.379 357.12 224.46 357.65L106.224 425.9C105.305 426.431 103.943 426.507 103.181 426.071L72.2391 408.364C71.477 407.929 71.6035 407.145 72.5223 406.615Z" fill="#263238"/>
<path d="M175.094 366.977L178.801 364.837C178.958 364.746 178.973 364.607 178.832 364.526L175.286 362.479C175.147 362.398 174.905 362.406 174.748 362.498L171.041 364.637C170.884 364.728 170.87 364.867 171.009 364.948L174.555 366.996C174.696 367.076 174.937 367.067 175.094 366.977ZM169.683 359.573L165.977 361.713C165.82 361.804 165.806 361.943 165.945 362.024L169.491 364.071C169.63 364.152 169.872 364.144 170.029 364.053L173.736 361.913C173.893 361.822 173.908 361.683 173.767 361.602L170.221 359.554C170.082 359.474 169.841 359.482 169.683 359.573ZM157.709 366.486L151.437 370.108C151.279 370.198 151.265 370.338 151.405 370.418L154.951 372.465C155.092 372.546 155.332 372.538 155.49 372.446L161.762 368.825C161.919 368.734 161.934 368.595 161.794 368.514L158.248 366.467C158.108 366.387 157.867 366.395 157.709 366.486ZM164.266 362.7L160.56 364.84C160.402 364.931 160.388 365.071 160.528 365.151L164.074 367.199C164.214 367.28 164.455 367.271 164.612 367.181L168.318 365.041C168.476 364.95 168.49 364.811 168.35 364.73L164.804 362.683C164.665 362.601 164.423 362.61 164.266 362.7ZM149.727 371.095L146.02 373.235C145.863 373.326 145.849 373.465 145.988 373.546L149.535 375.593C149.674 375.674 149.916 375.666 150.073 375.575L153.78 373.435C153.937 373.344 153.951 373.204 153.811 373.125L150.266 371.077C150.125 370.996 149.883 371.004 149.727 371.095ZM144.309 374.222L140.603 376.362C140.445 376.452 140.431 376.592 140.571 376.672L144.117 378.72C144.257 378.801 144.498 378.792 144.656 378.702L148.362 376.562C148.52 376.471 148.534 376.332 148.394 376.251L144.848 374.205C144.708 374.123 144.467 374.131 144.309 374.222ZM158.208 382.575L161.914 380.435C162.072 380.344 162.086 380.205 161.946 380.124L158.401 378.077C158.26 377.996 158.02 378.004 157.862 378.095L154.156 380.234C153.998 380.325 153.984 380.464 154.124 380.545L157.67 382.593C157.809 382.675 158.051 382.667 158.208 382.575ZM152.791 385.703L156.497 383.564C156.654 383.472 156.668 383.333 156.529 383.253L152.983 381.206C152.844 381.125 152.602 381.134 152.445 381.224L148.738 383.364C148.581 383.454 148.567 383.594 148.707 383.675L152.253 385.722C152.392 385.802 152.633 385.794 152.791 385.703ZM147.374 388.831L151.08 386.691C151.238 386.6 151.252 386.46 151.112 386.38L147.567 384.333C147.427 384.252 147.185 384.26 147.028 384.352L143.322 386.491C143.164 386.583 143.15 386.722 143.29 386.802L146.835 388.85C146.976 388.93 147.216 388.921 147.374 388.831ZM141.957 391.958L145.663 389.818C145.82 389.728 145.834 389.588 145.695 389.507L142.149 387.46C142.009 387.379 141.768 387.387 141.611 387.478L137.904 389.618C137.747 389.708 137.732 389.848 137.872 389.928L141.418 391.976C141.558 392.057 141.799 392.049 141.957 391.958ZM169.678 370.104L173.384 367.965C173.541 367.874 173.555 367.735 173.416 367.654L169.869 365.607C169.73 365.526 169.488 365.534 169.331 365.625L165.625 367.765C165.467 367.856 165.452 367.995 165.592 368.076L169.138 370.123C169.279 370.203 169.52 370.195 169.678 370.104ZM163.625 379.449L171.892 374.675C172.05 374.584 172.064 374.445 171.924 374.364L163.313 369.392C163.173 369.311 162.932 369.319 162.774 369.411L158.498 371.88C158.34 371.972 158.326 372.11 158.465 372.191L163.024 374.823C163.164 374.903 163.15 375.043 162.992 375.133L159.572 377.109C159.414 377.2 159.399 377.339 159.54 377.42L163.086 379.467C163.226 379.547 163.467 379.539 163.625 379.449ZM138.892 377.35L135.186 379.49C135.029 379.581 135.015 379.72 135.154 379.801L138.7 381.848C138.839 381.929 139.081 381.921 139.238 381.83L142.945 379.69C143.102 379.599 143.116 379.46 142.977 379.379L139.431 377.332C139.291 377.251 139.05 377.259 138.892 377.35ZM133.476 380.477L129.77 382.617C129.612 382.708 129.598 382.847 129.738 382.928L133.283 384.975C133.423 385.056 133.664 385.048 133.822 384.957L137.528 382.817C137.686 382.726 137.699 382.587 137.56 382.506L134.014 380.459C133.874 380.378 133.633 380.386 133.476 380.477ZM103.5 413.869C103.64 413.95 103.881 413.942 104.039 413.85L107.745 411.711C107.902 411.62 107.916 411.481 107.777 411.4L104.231 409.352C104.092 409.272 103.85 409.28 103.693 409.371L99.9864 411.511C99.8289 411.601 99.8151 411.741 99.9538 411.822L103.5 413.869ZM90.1406 405.497L86.4343 407.636C86.2768 407.727 86.2621 407.867 86.4025 407.947L89.948 409.994C90.0883 410.075 90.329 410.066 90.4865 409.976L94.1928 407.836C94.3503 407.746 94.365 407.606 94.2246 407.525L90.6791 405.479C90.5388 405.398 90.298 405.405 90.1406 405.497ZM97.0088 411.767C97.1484 411.848 97.3899 411.84 97.5474 411.749L101.254 409.609C101.411 409.518 101.425 409.379 101.285 409.298L97.7391 407.25C97.5996 407.17 97.3581 407.178 97.2006 407.269L93.4943 409.409C93.3368 409.5 93.3221 409.639 93.4625 409.72L97.0088 411.767ZM111.955 415.129L115.661 412.989C115.818 412.898 115.832 412.759 115.693 412.678L112.147 410.631C112.008 410.55 111.766 410.559 111.609 410.65L107.902 412.789C107.746 412.88 107.731 413.02 107.871 413.1L111.416 415.147C111.556 415.228 111.797 415.22 111.955 415.129ZM106 418.275C106.139 418.355 106.381 418.347 106.537 418.257L110.244 416.116C110.401 416.026 110.415 415.886 110.275 415.805L106.729 413.758C106.589 413.677 106.348 413.685 106.19 413.776L102.484 415.916C102.327 416.007 102.313 416.146 102.452 416.226L106 418.275ZM95.5572 402.369L91.8509 404.509C91.6934 404.6 91.6795 404.739 91.8191 404.82L95.3646 406.867C95.5049 406.948 95.7457 406.94 95.9031 406.848L99.6094 404.709C99.7669 404.618 99.7816 404.478 99.6412 404.398L96.0957 402.35C95.9554 402.27 95.7147 402.279 95.5572 402.369ZM122.642 386.732L118.936 388.872C118.778 388.963 118.764 389.102 118.904 389.183L122.449 391.23C122.59 391.311 122.83 391.303 122.988 391.212L126.694 389.072C126.852 388.981 126.865 388.841 126.726 388.761L123.18 386.713C123.04 386.633 122.799 386.642 122.642 386.732ZM100.974 399.242L97.2675 401.382C97.11 401.472 97.0961 401.612 97.2357 401.693L100.781 403.74C100.922 403.821 101.162 403.813 101.32 403.722L105.026 401.583C105.184 401.491 105.197 401.352 105.058 401.272L101.512 399.224C101.373 399.143 101.132 399.151 100.974 399.242ZM128.058 383.604L124.352 385.744C124.195 385.835 124.181 385.974 124.32 386.055L127.866 388.102C128.005 388.183 128.246 388.175 128.404 388.083L132.111 385.944C132.268 385.852 132.282 385.714 132.143 385.633L128.597 383.586C128.457 383.506 128.216 383.514 128.058 383.604ZM117.225 389.86L113.519 391.999C113.361 392.09 113.347 392.23 113.487 392.31L117.033 394.357C117.173 394.438 117.415 394.429 117.572 394.339L121.278 392.199C121.436 392.109 121.45 391.969 121.31 391.888L117.764 389.842C117.623 389.76 117.382 389.768 117.225 389.86ZM111.808 392.987L108.102 395.127C107.944 395.218 107.929 395.357 108.07 395.438L111.615 397.485C111.755 397.566 111.996 397.558 112.154 397.467L115.86 395.327C116.018 395.236 116.031 395.097 115.892 395.016L112.346 392.969C112.207 392.888 111.965 392.896 111.808 392.987ZM106.391 396.114L102.685 398.254C102.527 398.345 102.513 398.484 102.653 398.565L106.199 400.612C106.339 400.693 106.58 400.685 106.737 400.594L110.443 398.454C110.601 398.363 110.615 398.224 110.475 398.143L106.93 396.097C106.789 396.016 106.549 396.024 106.391 396.114ZM131.123 398.213L134.829 396.073C134.986 395.982 135.001 395.843 134.861 395.762L131.314 393.715C131.174 393.634 130.933 393.642 130.776 393.733L127.069 395.873C126.912 395.964 126.898 396.103 127.038 396.184L130.583 398.231C130.724 398.312 130.965 398.304 131.123 398.213ZM181.657 352.659L177.951 354.799C177.794 354.889 177.78 355.029 177.919 355.11L181.465 357.157C181.605 357.238 181.846 357.23 182.003 357.138L185.71 354.999C185.867 354.908 185.881 354.769 185.741 354.688L182.196 352.64C182.056 352.56 181.815 352.569 181.657 352.659ZM175.1 356.445L171.394 358.585C171.236 358.676 171.222 358.814 171.362 358.896L174.907 360.943C175.047 361.024 175.289 361.016 175.446 360.925L179.152 358.786C179.31 358.694 179.324 358.556 179.184 358.475L175.638 356.428C175.498 356.346 175.258 356.354 175.1 356.445ZM187.074 349.532L183.368 351.672C183.21 351.762 183.196 351.902 183.336 351.983L186.882 354.029C187.022 354.11 187.263 354.102 187.42 354.011L191.126 351.871C191.284 351.78 191.298 351.641 191.158 351.56L187.613 349.513C187.473 349.433 187.232 349.441 187.074 349.532ZM157.133 377.346L160.84 375.207C160.997 375.116 161.011 374.977 160.871 374.896L157.326 372.849C157.186 372.768 156.945 372.776 156.787 372.867L153.081 375.007C152.924 375.098 152.91 375.237 153.049 375.318L156.596 377.365C156.735 377.446 156.976 377.438 157.133 377.346ZM193.029 346.386C192.89 346.305 192.648 346.313 192.491 346.404L188.785 348.543C188.628 348.635 188.613 348.773 188.753 348.854L192.299 350.902C192.438 350.982 192.68 350.974 192.837 350.884L196.543 348.744C196.7 348.653 196.715 348.514 196.575 348.433L193.029 346.386ZM136.54 395.086L140.246 392.946C140.404 392.855 140.418 392.716 140.278 392.635L136.733 390.588C136.593 390.507 136.351 390.515 136.194 390.606L132.488 392.746C132.33 392.837 132.316 392.976 132.456 393.057L136.001 395.104C136.141 395.185 136.382 395.176 136.54 395.086ZM202.968 356.733L206.674 354.593C206.832 354.503 206.846 354.363 206.706 354.282L203.161 352.236C203.02 352.155 202.78 352.163 202.622 352.254L198.916 354.394C198.758 354.485 198.744 354.624 198.884 354.705L202.429 356.752C202.57 356.832 202.811 356.824 202.968 356.733ZM192.486 356.936L196.192 354.796C196.349 354.705 196.363 354.566 196.224 354.485L192.678 352.438C192.539 352.357 192.297 352.365 192.141 352.456L188.434 354.596C188.277 354.687 188.262 354.826 188.402 354.906L191.949 356.954C192.088 357.035 192.328 357.027 192.486 356.936ZM198.095 349.31C197.955 349.23 197.714 349.238 197.556 349.328L193.85 351.468C193.693 351.558 193.679 351.698 193.818 351.779L197.364 353.826C197.503 353.907 197.745 353.899 197.902 353.808L201.608 351.669C201.765 351.577 201.78 351.438 201.64 351.358L198.095 349.31ZM199.236 348.653L207.847 353.625C207.987 353.705 208.228 353.697 208.385 353.606L212.092 351.466C212.249 351.375 212.263 351.236 212.124 351.155L203.512 346.183C203.372 346.103 203.131 346.111 202.974 346.202L199.268 348.342C199.11 348.432 199.095 348.572 199.236 348.653ZM186.723 355.584L183.017 357.723C182.859 357.814 182.845 357.953 182.985 358.034L186.531 360.081C186.671 360.162 186.912 360.153 187.069 360.062L190.775 357.922C190.933 357.831 190.947 357.692 190.807 357.612L187.262 355.564C187.121 355.485 186.881 355.493 186.723 355.584ZM145.954 379.122L142.248 381.262C142.09 381.353 142.076 381.493 142.216 381.573L145.762 383.621C145.902 383.701 146.143 383.693 146.3 383.603L150.006 381.463C150.164 381.372 150.178 381.233 150.038 381.152L146.493 379.105C146.352 379.023 146.111 379.032 145.954 379.122ZM197.013 359.879C197.152 359.96 197.394 359.952 197.551 359.861L201.258 357.722C201.415 357.63 201.429 357.492 201.29 357.411L197.743 355.363C197.604 355.283 197.362 355.291 197.205 355.381L193.499 357.522C193.342 357.612 193.327 357.752 193.467 357.833L197.013 359.879ZM151.371 375.994L147.664 378.134C147.507 378.225 147.493 378.364 147.633 378.445L151.178 380.492C151.318 380.573 151.559 380.565 151.717 380.474L155.423 378.334C155.58 378.243 155.595 378.104 155.455 378.023L151.909 375.976C151.769 375.896 151.528 375.904 151.371 375.994ZM108.917 410.741C109.056 410.822 109.298 410.814 109.455 410.723L113.162 408.583C113.318 408.492 113.333 408.353 113.193 408.272L109.648 406.225C109.508 406.144 109.267 406.152 109.11 406.243L105.404 408.382C105.246 408.473 105.232 408.612 105.372 408.693L108.917 410.741ZM102.619 404.141L98.9126 406.282C98.7551 406.372 98.7412 406.512 98.8807 406.593L102.426 408.64C102.567 408.721 102.807 408.713 102.965 408.622L106.671 406.483C106.829 406.391 106.842 406.252 106.703 406.172L103.157 404.124C103.017 404.043 102.776 404.051 102.619 404.141ZM114.872 407.595L118.578 405.455C118.736 405.365 118.75 405.225 118.61 405.144L115.064 403.098C114.924 403.017 114.683 403.025 114.525 403.116L110.819 405.255C110.661 405.346 110.647 405.485 110.787 405.566L114.333 407.613C114.474 407.694 114.714 407.686 114.872 407.595ZM120.289 404.468L123.996 402.328C124.153 402.237 124.168 402.098 124.027 402.017L120.482 399.97C120.342 399.889 120.101 399.897 119.943 399.989L116.237 402.128C116.08 402.22 116.066 402.359 116.205 402.439L119.752 404.487C119.89 404.567 120.132 404.558 120.289 404.468ZM125.706 401.34L129.412 399.201C129.57 399.109 129.584 398.97 129.444 398.89L125.898 396.842C125.759 396.762 125.517 396.77 125.36 396.861L121.654 399.001C121.496 399.091 121.481 399.231 121.622 399.312L125.167 401.359C125.308 401.44 125.548 401.432 125.706 401.34ZM108.035 401.015L104.329 403.154C104.172 403.245 104.158 403.384 104.297 403.465L107.844 405.512C107.983 405.593 108.225 405.585 108.382 405.494L112.089 403.354C112.246 403.263 112.26 403.124 112.12 403.043L108.574 400.996C108.434 400.915 108.193 400.923 108.035 401.015ZM113.452 397.887L109.746 400.026C109.588 400.118 109.574 400.257 109.714 400.337L113.26 402.385C113.401 402.465 113.641 402.457 113.799 402.366L117.505 400.225C117.663 400.135 117.676 399.995 117.537 399.915L113.991 397.867C113.851 397.788 113.61 397.796 113.452 397.887ZM135.12 385.377L131.414 387.516C131.256 387.608 131.242 387.746 131.382 387.827L134.928 389.875C135.067 389.955 135.309 389.947 135.466 389.856L139.172 387.716C139.33 387.626 139.344 387.486 139.204 387.405L135.659 385.359C135.518 385.278 135.278 385.286 135.12 385.377ZM129.703 388.504L125.996 390.644C125.839 390.735 125.824 390.874 125.965 390.955L129.51 393.002C129.65 393.083 129.891 393.075 130.049 392.983L133.755 390.844C133.912 390.753 133.927 390.614 133.787 390.533L130.241 388.486C130.101 388.405 129.86 388.413 129.703 388.504ZM140.537 382.25L136.83 384.389C136.673 384.481 136.659 384.619 136.799 384.7L140.344 386.748C140.484 386.828 140.725 386.82 140.883 386.729L144.589 384.588C144.746 384.498 144.76 384.359 144.621 384.278L141.075 382.231C140.935 382.15 140.694 382.158 140.537 382.25ZM118.869 394.759L115.163 396.899C115.006 396.99 114.991 397.13 115.131 397.21L118.678 399.258C118.817 399.339 119.058 399.33 119.216 399.24L122.923 397.1C123.08 397.009 123.094 396.87 122.954 396.789L119.408 394.743C119.268 394.66 119.026 394.669 118.869 394.759ZM124.286 391.632L120.58 393.772C120.422 393.863 120.408 394.002 120.548 394.083L124.093 396.13C124.233 396.211 124.475 396.203 124.632 396.112L128.338 393.972C128.496 393.881 128.511 393.742 128.37 393.661L124.824 391.613C124.684 391.533 124.444 391.541 124.286 391.632ZM117.371 412.001L121.078 409.862C121.235 409.771 121.249 409.632 121.109 409.551L117.563 407.503C117.424 407.423 117.182 407.431 117.024 407.521L113.318 409.661C113.161 409.752 113.146 409.891 113.286 409.972L116.832 412.019C116.973 412.1 117.215 412.092 117.371 412.001ZM88.808 410.653L85.2617 408.606C85.1213 408.525 84.8806 408.533 84.7231 408.625L81.0169 410.764C80.8594 410.855 80.8455 410.994 80.985 411.075L84.5306 413.122C84.6709 413.203 84.9116 413.195 85.0691 413.104L88.7754 410.964C88.9329 410.873 88.9476 410.734 88.808 410.653ZM95.8689 412.426L92.3234 410.379C92.1838 410.298 91.9431 410.306 91.7848 410.397L86.0826 413.689C85.9251 413.779 85.9112 413.919 86.0508 414L89.5963 416.047C89.7366 416.128 89.9765 416.12 90.1348 416.029L95.8371 412.737C95.9945 412.645 96.0084 412.506 95.8689 412.426ZM83.5146 406.61L79.9691 404.563C79.8296 404.482 79.588 404.49 79.4306 404.58L74.8691 407.215C74.7116 407.305 74.6969 407.445 74.8373 407.525L78.3828 409.573C78.5223 409.654 78.7639 409.645 78.9214 409.554L83.4828 406.92C83.6411 406.83 83.655 406.691 83.5146 406.61ZM87.0128 404.591C87.1524 404.672 87.3939 404.664 87.5506 404.573L91.2568 402.433C91.4143 402.342 91.429 402.203 91.2887 402.122L87.7423 400.075C87.6028 399.994 87.3613 400.002 87.2038 400.092L83.4983 402.232C83.3408 402.323 83.3261 402.462 83.4665 402.543L87.0128 404.591ZM102.359 414.527L98.8138 412.479C98.6735 412.399 98.4327 412.407 98.2753 412.498L91.1475 416.613C90.99 416.705 90.9761 416.843 91.1157 416.924L94.6612 418.971C94.8007 419.052 95.0423 419.044 95.1998 418.954L102.328 414.838C102.485 414.747 102.5 414.607 102.359 414.527ZM104.86 418.932L101.313 416.886C101.174 416.805 100.932 416.813 100.775 416.904L96.214 419.537C96.0565 419.628 96.0419 419.767 96.1822 419.848L99.7277 421.895C99.8673 421.976 100.109 421.968 100.266 421.876L104.828 419.243C104.984 419.153 104.999 419.013 104.86 418.932ZM127.287 381.338C127.427 381.419 127.668 381.411 127.825 381.32L131.531 379.18C131.689 379.089 131.704 378.95 131.563 378.869L128.018 376.822C127.877 376.741 127.637 376.749 127.479 376.841L123.774 378.98C123.616 379.072 123.601 379.21 123.742 379.291L127.287 381.338ZM116.453 387.593C116.594 387.674 116.834 387.666 116.992 387.574L120.698 385.434C120.856 385.343 120.869 385.204 120.729 385.123L117.184 383.076C117.044 382.995 116.803 383.003 116.645 383.094L112.939 385.233C112.781 385.325 112.767 385.463 112.907 385.544L116.453 387.593ZM92.4286 401.463C92.569 401.544 92.8097 401.536 92.9672 401.445L96.6734 399.306C96.8309 399.215 96.8456 399.076 96.7053 398.995L93.1598 396.948C93.0202 396.867 92.7787 396.875 92.6212 396.966L88.9149 399.106C88.7574 399.197 88.7436 399.336 88.8831 399.417L92.4286 401.463ZM121.871 384.465C122.01 384.546 122.252 384.538 122.409 384.447L126.116 382.308C126.273 382.217 126.287 382.078 126.147 381.997L122.602 379.95C122.461 379.869 122.221 379.877 122.063 379.968L118.357 382.108C118.2 382.198 118.186 382.338 118.325 382.419L121.871 384.465ZM111.037 390.721C111.177 390.801 111.418 390.793 111.575 390.702L115.282 388.562C115.439 388.472 115.454 388.332 115.313 388.252L111.768 386.204C111.627 386.123 111.387 386.132 111.229 386.223L107.523 388.362C107.366 388.454 107.352 388.593 107.491 388.673L111.037 390.721ZM107.52 419.152C107.379 419.071 107.139 419.079 106.981 419.17L101.279 422.462C101.121 422.552 101.108 422.692 101.247 422.772L104.793 424.819C104.933 424.9 105.174 424.892 105.331 424.8L111.033 421.508C111.191 421.418 111.205 421.278 111.065 421.198L107.52 419.152ZM103.263 395.209C103.403 395.29 103.644 395.281 103.801 395.19L107.507 393.05C107.665 392.959 107.679 392.82 107.539 392.74L103.994 390.692C103.853 390.611 103.613 390.62 103.455 390.711L99.749 392.85C99.5915 392.941 99.5776 393.081 99.7171 393.161L103.263 395.209ZM97.846 398.336C97.9864 398.416 98.2271 398.408 98.3846 398.318L102.091 396.177C102.248 396.087 102.263 395.947 102.123 395.866L98.5772 393.819C98.4368 393.738 98.1961 393.746 98.0386 393.837L94.3323 395.977C94.1749 396.068 94.161 396.207 94.3005 396.287L97.846 398.336ZM207.874 361.212C207.733 361.131 207.494 361.139 207.335 361.23L198.212 366.497C198.055 366.588 198.04 366.727 198.181 366.808L201.727 368.854C201.866 368.935 202.108 368.927 202.265 368.836L211.388 363.568C211.546 363.478 211.56 363.338 211.42 363.257L207.874 361.212ZM195.9 368.125C195.76 368.044 195.52 368.052 195.361 368.144L191.655 370.283C191.498 370.375 191.484 370.513 191.623 370.594L195.169 372.641C195.309 372.721 195.55 372.714 195.707 372.623L199.414 370.483C199.571 370.393 199.585 370.253 199.445 370.172L195.9 368.125ZM122.789 408.873L126.495 406.734C126.652 406.643 126.666 406.504 126.527 406.423L122.981 404.376C122.842 404.295 122.6 404.303 122.443 404.394L118.736 406.534C118.579 406.625 118.565 406.764 118.705 406.845L122.25 408.892C122.39 408.973 122.631 408.965 122.789 408.873ZM185.067 374.38C184.927 374.299 184.686 374.307 184.528 374.398L180.822 376.538C180.664 376.629 180.65 376.768 180.79 376.849L184.336 378.896C184.476 378.977 184.717 378.969 184.874 378.878L188.58 376.738C188.738 376.647 188.752 376.508 188.612 376.427L185.067 374.38ZM213.291 358.084C213.151 358.003 212.91 358.011 212.753 358.102L209.046 360.242C208.889 360.333 208.875 360.472 209.015 360.553L212.56 362.601C212.7 362.681 212.941 362.673 213.099 362.583L216.805 360.443C216.962 360.352 216.976 360.213 216.837 360.132L213.291 358.084ZM222.254 357.004L213.643 352.033C213.503 351.952 213.262 351.96 213.104 352.05L209.398 354.191C209.241 354.281 209.227 354.421 209.366 354.502L217.978 359.474C218.118 359.554 218.359 359.546 218.516 359.456L222.222 357.315C222.38 357.224 222.394 357.084 222.254 357.004ZM164.824 386.067C164.685 385.986 164.443 385.994 164.286 386.085L159.724 388.718C159.567 388.809 159.553 388.948 159.692 389.029L163.238 391.077C163.377 391.157 163.619 391.149 163.776 391.058L168.338 388.425C168.495 388.334 168.51 388.194 168.37 388.114L164.824 386.067ZM178.509 378.166C178.369 378.085 178.128 378.093 177.971 378.185L172.269 381.476C172.111 381.567 172.097 381.706 172.237 381.787L175.782 383.835C175.922 383.915 176.163 383.907 176.321 383.817L182.023 380.525C182.18 380.434 182.194 380.295 182.055 380.214L178.509 378.166ZM152.28 393.309C152.14 393.228 151.899 393.236 151.741 393.328L121.236 410.94C121.078 411.031 121.064 411.171 121.204 411.251L124.75 413.299C124.889 413.379 125.131 413.371 125.288 413.281L155.793 395.668C155.951 395.577 155.966 395.438 155.825 395.357L152.28 393.309ZM120.064 411.909C119.925 411.828 119.683 411.836 119.526 411.927L114.964 414.561C114.807 414.652 114.793 414.791 114.932 414.872L118.478 416.919C118.618 417 118.859 416.992 119.016 416.9L123.578 414.266C123.735 414.176 123.749 414.036 123.61 413.956L120.064 411.909ZM158.552 389.688C158.413 389.607 158.171 389.615 158.014 389.706L153.452 392.339C153.295 392.43 153.28 392.569 153.421 392.65L156.966 394.696C157.106 394.778 157.347 394.769 157.505 394.678L162.066 392.044C162.224 391.954 162.237 391.815 162.098 391.734L158.552 389.688ZM113.791 415.53C113.652 415.45 113.41 415.458 113.253 415.548L108.691 418.182C108.534 418.274 108.52 418.412 108.66 418.493L112.205 420.541C112.346 420.621 112.586 420.613 112.744 420.523L117.305 417.889C117.463 417.797 117.477 417.659 117.337 417.578L113.791 415.53ZM171.097 382.446C170.956 382.365 170.716 382.373 170.558 382.464L165.997 385.098C165.839 385.188 165.825 385.328 165.965 385.409L169.511 387.456C169.651 387.537 169.892 387.529 170.049 387.438L174.61 384.804C174.768 384.713 174.782 384.574 174.642 384.493L171.097 382.446ZM190.483 371.253C190.344 371.172 190.102 371.18 189.945 371.271L186.238 373.411C186.081 373.502 186.067 373.641 186.207 373.722L189.752 375.769C189.892 375.85 190.133 375.842 190.291 375.75L193.997 373.611C194.154 373.519 194.168 373.381 194.029 373.3L190.483 371.253ZM202.616 362.785L206.323 360.645C206.48 360.555 206.495 360.415 206.355 360.335L202.809 358.288C202.669 358.207 202.428 358.215 202.27 358.306L198.564 360.445C198.407 360.536 198.392 360.676 198.532 360.756L202.079 362.803C202.218 362.884 202.46 362.876 202.616 362.785ZM180.512 363.849L184.218 361.709C184.375 361.619 184.389 361.479 184.25 361.399L180.703 359.351C180.564 359.27 180.322 359.279 180.165 359.369L176.459 361.509C176.301 361.6 176.287 361.739 176.427 361.82L179.972 363.867C180.114 363.949 180.354 363.94 180.512 363.849ZM166.124 383.854L176.958 377.599C177.116 377.509 177.129 377.369 176.99 377.289L173.444 375.241C173.305 375.16 173.063 375.169 172.906 375.26L162.072 381.515C161.914 381.605 161.9 381.745 162.04 381.826L165.585 383.873C165.726 383.953 165.967 383.945 166.124 383.854ZM196.661 365.931C196.801 366.011 197.042 366.003 197.2 365.913L200.906 363.773C201.064 363.682 201.078 363.543 200.938 363.462L197.392 361.415C197.253 361.334 197.011 361.342 196.855 361.434L193.148 363.574C192.991 363.665 192.977 363.804 193.116 363.885L196.661 365.931ZM192.134 362.988L195.84 360.848C195.998 360.757 196.012 360.618 195.872 360.538L192.327 358.49C192.187 358.41 191.946 358.418 191.788 358.508L188.082 360.648C187.924 360.739 187.91 360.878 188.05 360.959L191.596 363.006C191.736 363.087 191.977 363.079 192.134 362.988ZM160.707 386.982L164.413 384.841C164.57 384.751 164.584 384.611 164.445 384.531L160.899 382.483C160.76 382.402 160.518 382.411 160.361 382.501L156.654 384.642C156.497 384.732 156.483 384.872 156.623 384.952L160.168 387C160.308 387.081 160.549 387.072 160.707 386.982ZM184.687 372.845C184.828 372.925 185.068 372.917 185.226 372.826L188.932 370.685C189.09 370.595 189.103 370.455 188.964 370.375L185.418 368.327C185.278 368.246 185.037 368.255 184.88 368.345L181.174 370.485C181.016 370.576 181.001 370.715 181.142 370.796L184.687 372.845ZM133.623 402.619L137.329 400.478C137.487 400.388 137.5 400.249 137.361 400.168L133.815 398.12C133.676 398.039 133.434 398.048 133.277 398.138L129.57 400.279C129.413 400.369 129.399 400.509 129.539 400.589L133.085 402.637C133.224 402.718 133.465 402.709 133.623 402.619ZM139.039 399.491L142.746 397.352C142.903 397.26 142.917 397.121 142.777 397.041L139.232 394.993C139.092 394.913 138.852 394.921 138.693 395.012L134.987 397.152C134.83 397.242 134.816 397.382 134.955 397.463L138.501 399.51C138.641 399.591 138.882 399.582 139.039 399.491ZM128.205 405.746L131.912 403.606C132.069 403.516 132.083 403.376 131.943 403.295L128.398 401.249C128.258 401.168 128.017 401.176 127.859 401.267L124.153 403.406C123.996 403.497 123.982 403.636 124.121 403.717L127.667 405.765C127.807 405.845 128.048 405.837 128.205 405.746ZM149.873 393.236L153.58 391.097C153.737 391.006 153.752 390.867 153.611 390.786L150.066 388.739C149.926 388.658 149.685 388.666 149.527 388.757L145.821 390.896C145.664 390.987 145.65 391.126 145.789 391.207L149.335 393.254C149.474 393.336 149.716 393.327 149.873 393.236ZM144.456 396.363L148.162 394.224C148.32 394.133 148.334 393.994 148.194 393.913L144.649 391.866C144.509 391.785 144.267 391.793 144.11 391.884L140.404 394.024C140.246 394.115 140.232 394.254 140.372 394.335L143.917 396.382C144.058 396.463 144.299 396.455 144.456 396.363ZM155.29 390.109L158.996 387.969C159.154 387.879 159.168 387.739 159.028 387.658L155.482 385.611C155.342 385.53 155.101 385.538 154.943 385.63L151.237 387.769C151.079 387.86 151.066 387.999 151.205 388.08L154.751 390.127C154.892 390.208 155.133 390.2 155.29 390.109ZM184.85 346.602C184.991 346.683 185.231 346.675 185.389 346.584L189.095 344.444C189.253 344.353 189.267 344.214 189.127 344.133L188.184 343.588C188.043 343.507 187.803 343.515 187.645 343.607L183.939 345.747C183.782 345.837 183.768 345.977 183.907 346.058L184.85 346.602ZM157.926 363.648C158.066 363.729 158.307 363.721 158.465 363.63L162.171 361.491C162.329 361.4 162.343 361.261 162.203 361.18L158.658 359.133C158.518 359.052 158.277 359.061 158.119 359.151L154.413 361.292C154.255 361.382 154.241 361.522 154.38 361.603L157.926 363.648ZM168.761 357.394C168.9 357.474 169.142 357.466 169.298 357.375L173.005 355.235C173.162 355.144 173.176 355.005 173.036 354.924L169.49 352.877C169.35 352.796 169.109 352.804 168.951 352.896L165.245 355.036C165.089 355.127 165.074 355.266 165.213 355.347L168.761 357.394ZM151.312 367.467C151.452 367.548 151.693 367.54 151.851 367.448L155.557 365.309C155.714 365.218 155.728 365.079 155.589 364.998L152.043 362.951C151.903 362.871 151.662 362.878 151.505 362.969L147.798 365.109C147.641 365.2 147.627 365.339 147.766 365.42L151.312 367.467ZM163.343 360.521C163.483 360.602 163.724 360.594 163.882 360.503L167.588 358.363C167.745 358.272 167.759 358.133 167.62 358.052L164.074 356.005C163.935 355.924 163.693 355.932 163.536 356.023L159.83 358.162C159.673 358.254 159.658 358.392 159.798 358.473L163.343 360.521ZM140.478 373.723C140.618 373.803 140.859 373.795 141.017 373.704L144.723 371.564C144.88 371.474 144.894 371.334 144.755 371.253L141.208 369.207C141.069 369.126 140.827 369.134 140.67 369.225L136.963 371.364C136.806 371.456 136.792 371.595 136.932 371.675L140.478 373.723ZM145.895 370.595C146.035 370.676 146.276 370.668 146.433 370.576L150.139 368.437C150.297 368.346 150.311 368.206 150.17 368.126L146.625 366.078C146.485 365.998 146.244 366.006 146.086 366.096L142.38 368.236C142.223 368.326 142.209 368.466 142.348 368.547L145.895 370.595ZM174.016 352.857C174.157 352.937 174.397 352.929 174.555 352.838L178.261 350.698C178.419 350.607 178.433 350.468 178.293 350.387L177.349 349.842C177.209 349.761 176.968 349.769 176.811 349.86L173.105 352C172.947 352.09 172.933 352.23 173.073 352.311L174.016 352.857ZM190.267 343.474C190.407 343.555 190.648 343.547 190.806 343.456L194.512 341.316C194.669 341.225 194.683 341.086 194.544 341.005L193.6 340.46C193.459 340.38 193.218 340.387 193.061 340.479L189.355 342.618C189.197 342.709 189.183 342.848 189.323 342.929L190.267 343.474ZM197.715 347.775C197.856 347.855 198.097 347.847 198.254 347.757L201.96 345.617C202.118 345.527 202.132 345.387 201.992 345.306L198.446 343.259C198.306 343.178 198.065 343.186 197.907 343.277L194.201 345.417C194.043 345.508 194.029 345.647 194.169 345.728L197.715 347.775ZM208.034 359.658L211.74 357.518C211.898 357.427 211.912 357.288 211.772 357.207L208.226 355.159C208.087 355.079 207.845 355.087 207.688 355.177L203.982 357.317C203.824 357.408 203.81 357.547 203.95 357.628L207.495 359.675C207.635 359.757 207.876 359.749 208.034 359.658ZM179.433 349.729C179.573 349.81 179.814 349.802 179.972 349.711L183.678 347.571C183.835 347.481 183.849 347.341 183.71 347.261L182.766 346.716C182.626 346.636 182.384 346.644 182.227 346.734L178.521 348.874C178.363 348.965 178.349 349.104 178.489 349.185L179.433 349.729ZM135.061 376.85C135.202 376.93 135.442 376.922 135.6 376.832L139.306 374.692C139.464 374.601 139.478 374.462 139.338 374.381L135.792 372.334C135.652 372.253 135.411 372.261 135.253 372.352L131.547 374.492C131.39 374.583 131.375 374.721 131.515 374.802L135.061 376.85Z" fill="#455A64"/>
<path d="M150.576 407.676L151.381 408.14L172.787 420.497L210.854 398.518L211.646 398.067L189.435 385.246L150.576 407.676Z" fill="#263238"/>
<path d="M210.364 398.8L189.435 386.726L151.87 408.422L172.787 420.497L210.364 398.8Z" fill="#37474F"/>
<path d="M101.536 186.352C94.844 181.969 86.2189 182.753 81.5562 186.281C74.9948 191.247 72.7271 196.702 71.5513 207.532C69.9005 222.743 68.2024 227.1 66.3982 230.572C64.4382 234.343 61.4688 236.102 58.8559 236.987C60.5312 238.052 63.8825 239.128 67.5015 237.345C65.9658 244.681 63.8278 250.849 65.7283 258.604C67.0086 263.829 69.7397 269.747 73.761 273.492C77.1866 276.682 82.0907 277.656 86.2123 279.459C83.4314 273.491 81.9373 267.858 83.859 261.15C85.979 253.751 90.9394 247.45 93.141 239.992C96.1863 229.675 99.6796 218.991 100.54 208.228C101.269 199.123 101.606 192.58 101.536 186.352Z" fill="#263238"/>
<path d="M98.1953 187.713C97.1304 186.711 92.4025 187.357 89.5514 190.76C86.7003 194.162 84.9949 199.113 88.4612 201.764C91.7138 204.252 104.337 191.011 98.1953 187.713Z" fill="#BA68C8"/>
<path d="M136.952 202.646C139.305 201.777 140.302 198.753 139.6 196.346C138.898 193.938 136.932 192.106 134.834 190.732C130.098 187.629 124.247 186.298 118.63 186.963C113.639 185.343 107.964 184.978 102.35 186.155C96.4801 187.385 89.8501 192.946 89.3066 201.386C80.9206 203.364 77.2567 213.653 82.4351 224.641C86.1928 232.613 94.7012 238.121 95.7261 242.084L127.499 217.391C128.737 219.323 132.573 219.412 134.146 218.645C135.717 217.878 136.69 215.041 135.645 213.639C138.493 213.921 141.349 211.626 141.687 208.784C142.025 205.941 139.787 203.04 136.952 202.646Z" fill="#263238"/>
<path d="M102.35 186.155C98.8726 187.037 95.7791 189.097 93.5106 191.794C92.3739 193.143 91.4527 194.669 90.8072 196.3C90.1544 197.93 89.7987 199.664 89.6779 201.411L89.6591 201.685L89.3931 201.749C87.4306 202.217 85.6052 203.218 84.196 204.653C82.777 206.079 81.7708 207.888 81.1784 209.817C80.0181 213.709 80.3869 217.967 81.7227 221.823C82.994 225.74 85.3645 229.184 88.0916 232.298C89.4494 233.864 90.8856 235.366 92.2711 236.924C92.9574 237.708 93.6551 238.485 94.2711 239.331C94.8799 240.172 95.478 241.063 95.7277 242.083C95.4225 241.078 94.7681 240.247 94.1357 239.436C93.4902 238.627 92.7624 237.884 92.0459 237.134C90.5902 235.653 89.1042 234.194 87.6999 232.647C86.2923 231.106 84.9451 229.493 83.7782 227.74C82.5836 225.999 81.7047 224.056 80.9916 222.077C80.2547 220.098 79.8443 217.998 79.6909 215.885C79.5554 213.773 79.708 211.608 80.3657 209.565C81.0095 207.527 82.0989 205.603 83.6346 204.087C85.1589 202.561 87.1328 201.504 89.2242 201.026L88.9394 201.363C89.2087 197.708 90.7313 194.183 93.1532 191.482C94.3536 190.121 95.7848 188.977 97.3377 188.064C98.8905 187.154 100.587 186.479 102.35 186.155Z" fill="black"/>
<path d="M218.791 254.897C220.539 253.417 220.856 253.036 223.211 251.147C224.955 249.748 226.349 248.619 226.799 247.802C227.685 246.192 226.86 244.596 226.123 244.856C224.648 245.377 222.901 246.629 219.494 248.969C215.754 251.539 213.109 254.073 212.908 253.668C212.908 253.668 213.724 252.38 216.905 248.938C221.484 243.981 222.382 243.082 223.229 241.497C225.003 238.179 222.51 237.635 221.411 238.319C220.166 239.094 218.81 240.598 215.533 243.851C211.97 247.389 208.869 250.986 208.59 250.772C208.311 250.557 213.228 245.17 216.18 241.22C218.921 237.551 217.135 236.002 216.357 235.881C215.528 235.751 214.569 236.821 213.246 238.242C210.859 240.807 203.906 249.3 202.452 251.009C200.997 252.719 199.895 253.23 199.708 250.592C199.533 248.117 199.649 245.486 198.572 243.783C196.77 240.934 194.78 241.631 194.775 243.537C194.766 246.227 194.125 249.251 193.65 253.55C193.403 255.791 193.441 258.469 193.394 260.029C193.117 265.487 188.536 268.307 184.726 270.935C180.909 273.567 170.539 279.479 170.539 279.479C170.539 279.479 151.181 259.549 145.533 254.662C138.823 248.856 136.91 248.445 127.436 248.525L140.836 282.98C140.836 282.98 159.045 299.831 165.231 303.43C171.417 307.029 173.927 305.049 181.444 298.393C187.218 293.281 196.713 281.552 199.009 278.946C201.305 276.339 202.293 274.664 204.952 273.689C208.567 272.363 210.429 270.547 212.834 267.79C213.983 266.472 215.886 263.832 217.646 262.051C220.51 259.153 224.125 256.588 225.139 255.739C226.723 254.412 226.972 251.683 224.747 252.543C220.541 254.168 216.319 257.737 216.183 257.499C216.049 257.259 217.59 255.914 218.791 254.897Z" fill="#FFBDA7"/>
<path d="M201.174 255.067C203.11 257.91 203.543 264.641 201.662 268.651C205.554 264.84 205.14 257.989 201.174 255.067Z" fill="#F0997A"/>
<path d="M170.539 279.478C167.333 281.58 163.503 287.635 164.594 293.873C163.204 289.275 161.992 283.525 169.03 277.799L170.539 279.478Z" fill="#F0997A"/>
<path d="M78.0385 258.602L85.4975 255.611C85.4975 255.611 96.6392 252.721 105.928 250.73C115.676 249.502 124.129 248.581 124.129 248.581L127.437 248.524C127.437 248.524 134.776 254.979 140.156 260.948C145.537 266.917 150.261 271.898 150.558 279.426C150.959 289.605 144.424 293.315 144.424 293.315L144.829 306.28L153.319 330.316L71.2338 377.693C73.7308 348.439 80.2294 343.615 83.8672 323.336C83.1678 312.726 77.89 298.171 76.9899 290.785C73.872 265.213 78.0385 258.602 78.0385 258.602Z" fill="#BA68C8"/>
<path d="M95.4274 245.853C95.7342 242.273 96.2263 235.143 96.2263 235.143C95.3328 236.333 90.5249 237.97 87.2283 233.331C83.4314 227.988 84.0328 224.161 86.6807 221.603C89.7056 218.681 94.9949 219.429 97.1932 224.064C98.5764 227.336 101.297 223.481 98.5592 218.342C97.6551 209.318 109.17 215.303 116.337 196.488C123.575 196.076 127.941 198.133 131.461 204.141C133.058 206.865 134.993 210.786 134.598 222.152C134.094 236.632 131.916 241.183 126.851 243.608C124.515 244.725 122.115 245.152 117.619 244.813L117.575 246.202C117.585 246.491 117.569 246.836 117.626 247.166C117.727 247.747 118.052 248.646 119.16 248.709C121.482 248.841 124.129 248.571 124.129 248.571C124.129 248.571 127.868 257.83 115.614 260.471C98.4018 264.18 85.4975 255.612 85.4975 255.612C85.4975 255.612 88.2964 254.207 90.7485 252.434C94.5241 249.705 95.2349 248.099 95.4274 245.853Z" fill="#FFBDA7"/>
<path d="M90.7289 232.647C90.7599 233.622 91.5767 234.388 92.5518 234.357C93.527 234.326 94.2924 233.509 94.2614 232.534C94.2295 231.559 93.4135 230.793 92.4384 230.824C91.4625 230.855 90.6971 231.671 90.7289 232.647Z" fill="#FAFAFA"/>
<path d="M113.847 230.715L121.719 233.161C121.084 235.412 118.807 236.691 116.634 236.016C114.46 235.341 113.212 232.968 113.847 230.715Z" fill="#B16668"/>
<path d="M114.36 232.527C116.559 232.456 118.44 233.963 118.921 236.027C118.198 236.24 117.41 236.257 116.634 236.016C115.074 235.531 114.005 234.169 113.752 232.608C113.953 232.574 114.151 232.533 114.36 232.527Z" fill="#F28F8F"/>
<path d="M131.586 211.051L126.639 209.865C126.918 208.476 128.251 207.615 129.617 207.942C130.982 208.27 131.864 209.662 131.586 211.051Z" fill="#263238"/>
<path d="M107.448 210.799L112.266 208.973C111.808 207.613 110.358 206.92 109.027 207.424C107.698 207.93 106.99 209.441 107.448 210.799Z" fill="#263238"/>
<path d="M126.729 217.467C126.649 218.623 127.531 219.651 128.7 219.764C129.868 219.877 130.879 219.03 130.959 217.874C131.039 216.716 130.157 215.689 128.989 215.577C127.821 215.466 126.808 216.311 126.729 217.467Z" fill="#263238"/>
<path d="M109.466 217.579C109.386 218.736 110.268 219.764 111.437 219.876C112.605 219.989 113.616 219.142 113.696 217.986C113.777 216.829 112.894 215.801 111.726 215.69C110.559 215.578 109.546 216.424 109.466 217.579Z" fill="#263238"/>
<path d="M117.618 244.812C113.215 244.401 107.707 242.955 104.133 241.03C101.159 239.427 99.7073 236.865 98.8718 235.201C98.8718 235.201 98.7583 239.445 102.501 242.578C106.603 246.01 117.627 247.165 117.627 247.165C117.574 246.877 117.576 246.579 117.575 246.202L117.618 244.812Z" fill="#F0997A"/>
<path d="M111.781 295.053C115.765 291.673 117.793 290.336 119.707 289.661C121.62 288.987 128.277 285.712 130.857 284.893C132.493 284.374 133.333 286.976 131.331 288.928C129.789 290.431 125.667 292.533 123.872 293.669C122.077 294.805 118.706 299.469 118.706 299.469L111.781 295.053Z" fill="#F0997A"/>
<path d="M102.753 324.778C89.7317 332.186 78.262 341.417 65.6165 343.313C53.2737 345.163 52.8902 334.945 53.1113 327.329C53.3904 317.718 58.78 287.577 61.5748 277.534C64.5426 266.871 66.4831 262.943 78.0385 258.602C87.58 264.859 85.4216 285.531 83.3474 293.42C81.1833 301.65 77.6851 317.03 77.6851 317.03C77.6851 317.03 92.7305 312.292 96.3462 310.381C99.9619 308.47 106.016 300.344 108.406 297.741C111.659 294.2 113.405 294.537 115.182 294.69C120.999 295.192 122.294 295.597 123.563 296.295C124.832 296.993 124.825 298.468 124.825 298.468C126.368 298.563 128.655 298.371 129.109 300.866C129.408 302.514 129.327 302.874 129.327 302.874C129.327 302.874 129.881 302.895 130.357 303.382C131.724 304.777 129.862 310.021 128.553 311.354C127.634 312.29 126.252 312.487 124.413 312.354C122.85 312.241 123.471 310.618 123.471 310.618L121.31 310.884C116.833 314.508 116.616 319.859 110.513 321.704C109.224 322.092 105.88 322.803 102.753 324.778Z" fill="#FFBDA7"/>
<path d="M124.825 298.467L117.894 297.518L124.622 297.529C124.749 297.844 124.818 298.157 124.825 298.467Z" fill="#F0997A"/>
<path d="M129.327 302.874L121.386 302.348L129.279 301.959C129.331 302.242 129.341 302.55 129.327 302.874Z" fill="#F0997A"/>
<path d="M128.508 306.41C128.294 306.83 127.916 307.161 127.506 307.396C127.096 307.645 126.653 307.812 126.188 307.94L126.289 307.859C126.105 308.284 125.906 308.703 125.703 309.119L125.527 308.919C125.98 308.808 126.435 308.905 126.799 309.147C127.163 309.387 127.399 309.756 127.551 310.132C127.326 309.79 127.027 309.509 126.695 309.324C126.358 309.159 125.952 309.105 125.615 309.196L125.317 309.278L125.44 308.996C125.626 308.572 125.817 308.15 126.023 307.735L126.055 307.67L126.123 307.653C126.559 307.55 126.994 307.391 127.408 307.208C127.813 307.01 128.219 306.782 128.508 306.41Z" fill="#F0997A"/>
<path d="M126.479 307.554C125.706 307.766 123.641 307.934 123.641 307.934C123.641 307.934 123.616 308.501 122.758 309.511C122.298 310.051 121.312 310.883 121.312 310.883L123.473 310.617C123.473 310.617 123.94 309.615 125.869 309.118L126.479 307.554Z" fill="#F0997A"/>
<path d="M78.3388 314.184L77.686 317.03C72.1282 318.84 66.275 323.165 65.1138 326.34C65.8589 321.376 68.5614 317.463 78.3388 314.184Z" fill="#F0997A"/>
<path d="M136.627 212.098C136.36 212.062 136.081 212.028 135.793 211.999C133.062 211.711 129.423 211.647 127.223 212.375C124.388 213.319 123.403 214.364 121.751 214.404C119.957 214.429 118.771 213.398 115.424 212.498C112.703 211.772 108.075 211.906 104.407 212.288C104.006 212.33 103.616 212.375 103.243 212.423C102.597 212.505 101.877 213.319 101.905 214.267C101.933 215.22 102.684 215.966 102.998 216.396C103.138 216.587 103.27 216.862 103.371 217.259C103.751 218.76 103.965 221.69 104.736 223.306C105.047 223.956 105.498 224.753 106.237 225.46C106.479 225.688 106.727 225.889 107.006 226.076C107.151 226.17 107.296 226.259 107.45 226.345C107.839 226.56 108.272 226.742 108.766 226.885C108.839 226.906 108.913 226.926 108.986 226.942C109.098 226.969 109.216 226.999 109.334 227.022C109.451 227.046 109.572 227.066 109.697 227.087C110.052 227.143 110.435 227.182 110.842 227.19C110.999 227.198 111.162 227.198 111.329 227.198C111.523 227.192 111.727 227.186 111.936 227.172C116.528 226.871 118.323 224.543 119.33 222.251C120.316 220.017 119.922 216.991 121.86 216.941C121.925 216.94 121.986 216.94 122.044 216.946C122.102 216.951 122.161 216.959 122.215 216.97C123.641 217.268 123.61 220.017 124.606 221.981C124.99 222.738 125.461 223.485 126.083 224.114C126.192 224.228 126.304 224.335 126.424 224.437C126.484 224.492 126.544 224.54 126.605 224.588C126.667 224.638 126.729 224.686 126.794 224.733C126.851 224.775 126.906 224.815 126.965 224.853C127.065 224.92 127.107 224.947 127.15 224.973C127.198 225.004 127.247 225.033 127.296 225.06C127.329 225.081 127.363 225.1 127.397 225.12C127.885 225.388 128.437 225.596 129.065 225.718C129.114 225.727 129.166 225.738 129.217 225.745C129.806 225.849 130.459 225.881 131.185 225.825C134.846 225.552 135.87 223.131 136.313 221.643C136.748 220.175 136.719 217.625 136.87 216.297C136.902 216.005 137 215.779 137.114 215.608C137.331 215.285 137.731 214.52 137.691 213.702C137.65 212.891 137.086 212.16 136.627 212.098ZM118.132 220.236C117.974 221.088 117.611 222.333 116.701 223.402L116.698 223.403C115.765 224.491 114.248 225.399 111.773 225.514C109.219 225.637 107.708 224.647 106.801 223.434C106.744 223.359 106.69 223.284 106.642 223.21C106.588 223.134 106.541 223.061 106.496 222.986C106.452 222.917 106.411 222.847 106.372 222.776C106.337 222.714 106.302 222.649 106.271 222.586C106.243 222.534 106.217 222.485 106.195 222.434C106.17 222.388 106.148 222.342 106.129 222.298C106.094 222.223 106.06 222.144 106.028 222.07V222.068C105.931 221.838 105.849 221.616 105.781 221.401C105.778 221.397 105.778 221.391 105.774 221.385C105.731 221.248 105.69 221.113 105.654 220.985C105.588 220.752 105.537 220.534 105.494 220.341C105.485 220.299 105.476 220.257 105.467 220.218C105.458 220.179 105.449 220.139 105.44 220.099C105.084 218.514 104.679 215.427 105.502 214.721C106.287 214.049 108.425 213.29 111.804 213.563C111.917 213.566 112.036 213.577 112.16 213.591C112.669 213.642 113.175 213.718 113.673 213.823C113.871 213.863 114.066 213.908 114.257 213.953C114.772 214.079 115.268 214.229 115.716 214.395C115.871 214.451 116.02 214.51 116.16 214.569C116.33 214.638 116.49 214.711 116.642 214.787C116.674 214.802 116.705 214.817 116.738 214.835C116.799 214.864 116.858 214.894 116.914 214.928C117.366 215.169 117.709 215.431 117.897 215.684C118.564 216.578 118.441 218.53 118.132 220.236ZM135.588 218.889C135.473 220.002 135.222 222.441 133.313 223.633C132.761 223.979 132.062 224.219 131.188 224.288C128.835 224.485 127.411 223.492 126.563 222.308C126.558 222.301 126.551 222.293 126.549 222.287C126.515 222.241 126.484 222.197 126.457 222.154C126.421 222.102 126.386 222.049 126.355 221.999C126.338 221.974 126.321 221.946 126.305 221.918C126.26 221.842 126.214 221.763 126.174 221.687C126.125 221.598 126.08 221.51 126.036 221.417C126.014 221.374 125.993 221.329 125.973 221.285C125.961 221.26 125.952 221.236 125.94 221.211C125.923 221.173 125.907 221.137 125.893 221.1C125.881 221.07 125.867 221.04 125.858 221.014C125.695 220.618 125.582 220.242 125.5 219.919C125.096 218.292 124.825 216.407 125.341 215.505C125.853 214.614 127.964 213.623 129.994 213.324C130.456 213.256 130.889 213.217 131.292 213.203C131.344 213.201 131.396 213.199 131.446 213.199C131.502 213.197 131.557 213.197 131.611 213.197C131.765 213.195 131.916 213.199 132.06 213.203C132.115 213.206 132.169 213.208 132.223 213.212C132.297 213.217 132.367 213.221 132.436 213.229C132.557 213.236 132.675 213.25 132.789 213.265C133.021 213.294 133.238 213.332 133.44 213.378C133.492 213.39 133.544 213.403 133.594 213.416C133.606 213.417 133.62 213.421 133.634 213.425C133.668 213.434 133.703 213.442 133.739 213.454C133.791 213.466 133.846 213.484 133.895 213.499C133.96 213.517 134.025 213.54 134.085 213.561C134.196 213.6 134.299 213.641 134.396 213.685C134.415 213.692 134.431 213.7 134.451 213.709C134.763 213.85 135.003 214.006 135.17 214.16C135.812 214.751 135.73 217.477 135.588 218.889Z" fill="#37474F"/>
<path d="M102.656 213.14L92.1928 219.99C93.181 220.13 94.2997 220.59 95.1737 221.366L103.197 215.894L102.656 213.14Z" fill="#37474F"/>
<path d="M128.165 226.041L121.796 229.228L120.158 219.113C120.275 218.174 120.786 217.285 121.168 217.131L128.165 226.041Z" fill="#F0997A"/>
<path opacity="0.8" d="M175.448 307.922C175.441 307.845 175.433 307.775 175.41 307.706C175.417 307.69 175.41 307.675 175.402 307.659C175.395 307.582 175.371 307.512 175.348 307.451C175.317 307.343 175.271 307.242 175.209 307.15C175.194 307.104 175.163 307.065 175.132 307.027C175.109 306.996 175.094 306.965 175.062 306.942C175.016 306.88 174.97 306.834 174.908 306.788C174.908 306.788 174.901 306.78 174.893 306.772C174.831 306.726 174.761 306.687 174.692 306.656C174.268 306.456 173.719 306.51 173.109 306.857L54.7041 374.982C53.4067 375.731 52.3492 376.874 52.3492 380.181L52.35 383.733C52.35 384.977 53.6931 385.754 54.7686 385.134L173.109 317.003C174.406 316.253 175.464 314.431 175.464 312.926V308.216C175.464 308.115 175.457 308.015 175.448 307.922Z" fill="#455A64"/>
<path opacity="0.9" d="M53.1603 385.134L53.0746 385.091L50.5964 383.651C49.9232 383.272 49.4719 382.591 49.3642 381.832C49.3503 381.718 49.343 381.603 49.343 381.489V377.356C49.343 376.525 49.6645 375.591 50.1753 374.801L50.2071 374.821L53.1113 376.496C52.6592 377.29 52.3883 378.226 52.3516 379.929V383.729C52.3516 383.951 52.4014 384.145 52.4593 384.31C52.6519 384.811 53.046 385.069 53.1603 385.134Z" fill="#263238"/>
<path opacity="0.6" d="M174.689 306.66C174.266 306.453 173.722 306.51 173.107 306.861L54.7074 374.979C54.4781 375.107 54.2635 375.265 54.0554 375.437C53.9126 375.552 53.7829 375.68 53.6613 375.817C53.4605 376.017 53.2892 376.246 53.1382 376.504L50.1802 374.806C50.3304 374.57 50.5025 374.341 50.6812 374.133C50.7457 374.061 50.8102 373.997 50.8673 373.932C50.9318 373.868 50.9962 373.804 51.068 373.746C51.1325 373.682 51.197 373.625 51.2688 373.574C51.405 373.46 51.5478 373.367 51.6915 373.28L170.104 305.154C170.778 304.76 171.379 304.753 171.809 305.018C172.239 305.277 174.187 306.395 174.689 306.66Z" fill="#455A64"/>
<path opacity="0.9" d="M53.1602 385.135C53.1818 385.148 53.1968 385.156 53.1968 385.156L53.1602 385.135Z" fill="#263238"/>
<path d="M61.2501 377.763V374.868C61.2501 374.66 61.3839 374.438 61.5104 374.438L64.0612 374.413C64.2301 374.411 64.2301 374.779 64.0612 374.973L61.5104 377.893C61.3847 378.037 61.2501 377.97 61.2501 377.763Z" fill="white"/>
<path d="M67.1906 374.334V371.438C67.1906 371.231 67.3244 371.009 67.4508 371.008L70.0017 370.984C70.1706 370.982 70.1706 371.35 70.0017 371.544L67.4508 374.464C67.3252 374.608 67.1906 374.541 67.1906 374.334Z" fill="white"/>
<path d="M70.3232 372.823C70.2155 372.885 70.1281 372.819 70.1281 372.675V369.703C70.1281 369.559 70.2155 369.392 70.3232 369.33C70.4309 369.268 70.5182 369.335 70.5182 369.477V372.45C70.5182 372.594 70.4309 372.761 70.3232 372.823Z" fill="white"/>
<path d="M58.248 379.496V376.601C58.248 376.394 58.1134 376.327 57.9877 376.472L55.4369 379.393C55.268 379.586 55.268 379.954 55.4369 379.953L57.9877 379.928C58.1134 379.926 58.248 379.704 58.248 379.496Z" fill="white"/>
<path d="M55.1154 381.604C55.2231 381.542 55.3104 381.376 55.3104 381.232V378.259C55.3104 378.116 55.2231 378.05 55.1154 378.112C55.0077 378.174 54.9204 378.34 54.9204 378.484V381.456C54.9204 381.6 55.0077 381.666 55.1154 381.604Z" fill="white"/>
<path d="M169.727 313.373C169.603 313.373 169.503 313.273 169.503 313.149V311.824C169.503 311.744 169.546 311.669 169.616 311.629L170.677 311.017C170.785 310.954 170.921 310.992 170.984 311.099C171.046 311.206 171.009 311.344 170.902 311.406L169.953 311.954V313.15C169.952 313.272 169.852 313.373 169.727 313.373Z" fill="white"/>
<path d="M172.617 311.705C172.493 311.705 172.393 311.605 172.393 311.481V310.544L171.668 310.963C171.56 311.025 171.423 310.988 171.361 310.88C171.299 310.773 171.336 310.635 171.444 310.573L172.505 309.961C172.575 309.921 172.66 309.921 172.73 309.961C172.799 310.001 172.842 310.075 172.842 310.155V311.48C172.841 311.604 172.74 311.705 172.617 311.705Z" fill="white"/>
<path d="M171.555 314.823C171.478 314.823 171.402 314.783 171.36 314.711C171.298 314.604 171.335 314.467 171.443 314.404L172.392 313.855V312.66C172.392 312.536 172.492 312.436 172.616 312.436C172.74 312.436 172.841 312.536 172.841 312.66V313.985C172.841 314.065 172.798 314.139 172.728 314.179L171.666 314.792C171.632 314.813 171.594 314.823 171.555 314.823Z" fill="white"/>
<path d="M169.727 315.878C169.688 315.878 169.65 315.868 169.616 315.848C169.546 315.808 169.503 315.734 169.503 315.654V314.329C169.503 314.205 169.603 314.104 169.727 314.104C169.852 314.104 169.952 314.205 169.952 314.329V315.266L170.676 314.847C170.784 314.785 170.92 314.822 170.983 314.929C171.045 315.036 171.009 315.173 170.901 315.236L169.839 315.849C169.805 315.868 169.767 315.878 169.727 315.878Z" fill="white"/>
<path d="M168.086 314.115L167.656 314.294C167.634 314.308 167.606 314.294 167.599 314.265C167.57 314.158 167.534 314.064 167.491 313.986C167.476 313.965 167.491 313.9 167.512 313.85L167.755 313.306C167.776 313.256 167.784 313.198 167.77 313.184L167.426 312.926C167.412 312.911 167.369 312.947 167.341 312.998L167.04 313.492C167.012 313.542 166.969 313.578 166.947 313.572C166.869 313.564 166.783 313.564 166.69 313.579C166.668 313.586 166.646 313.564 166.639 313.528L166.596 312.984C166.588 312.956 166.567 312.941 166.539 312.956L166.073 313.227C166.044 313.242 166.015 313.284 166.015 313.328L165.965 313.908C165.965 313.951 165.936 314.008 165.908 314.037C165.829 314.116 165.75 314.202 165.678 314.295C165.65 314.33 165.607 314.359 165.585 314.352L165.242 314.18C165.227 314.173 165.185 314.209 165.163 314.266L164.862 314.839C164.834 314.889 164.819 314.947 164.834 314.96L165.113 315.262C165.128 315.283 165.12 315.333 165.106 315.39C165.07 315.505 165.034 315.627 165.013 315.741C165.005 315.791 164.969 315.842 164.941 315.863L164.525 316.171C164.497 316.185 164.475 316.235 164.475 316.271V316.894C164.475 316.937 164.496 316.958 164.518 316.944L164.947 316.758C164.976 316.751 164.998 316.765 165.004 316.787C165.033 316.894 165.069 316.987 165.12 317.073C165.126 317.094 165.12 317.152 165.091 317.209L164.854 317.746C164.826 317.803 164.818 317.861 164.84 317.868L165.183 318.133C165.198 318.14 165.233 318.112 165.262 318.061L165.563 317.568C165.599 317.518 165.634 317.482 165.656 317.482C165.741 317.497 165.827 317.497 165.913 317.475C165.942 317.475 165.963 317.496 165.963 317.532L166.014 318.069C166.014 318.104 166.042 318.119 166.071 318.104L166.537 317.833C166.565 317.818 166.587 317.768 166.594 317.732L166.637 317.145C166.645 317.109 166.666 317.052 166.702 317.023C166.78 316.944 166.852 316.858 166.924 316.765C166.96 316.722 166.996 316.694 167.017 316.708L167.36 316.873C167.382 316.888 167.417 316.852 167.446 316.795L167.746 316.222C167.775 316.165 167.782 316.108 167.767 316.093L167.495 315.793C167.48 315.778 167.48 315.721 167.495 315.671C167.538 315.556 167.567 315.435 167.588 315.32C167.603 315.27 167.63 315.213 167.66 315.191L168.075 314.89C168.104 314.869 168.132 314.826 168.132 314.783V314.159C168.135 314.122 168.114 314.1 168.086 314.115ZM166.303 316.585C165.865 316.836 165.515 316.564 165.515 315.984C165.515 315.404 165.866 314.723 166.303 314.472C166.739 314.222 167.098 314.486 167.098 315.074C167.098 315.654 166.739 316.327 166.303 316.585Z" fill="white"/>
<path d="M97.1475 356.083V354.643L74.7108 367.596C74.2824 367.843 73.9356 368.367 73.9356 368.764C73.9356 369.161 74.2832 369.284 74.7108 369.036L97.1475 356.083Z" fill="#BA68C8"/>
<path opacity="0.5" d="M160.729 317.991C160.636 318.008 160.534 318.046 160.428 318.108L97.1475 354.642V356.082L160.43 319.546C160.644 319.422 160.838 319.23 160.978 319.019C161.048 318.914 161.104 318.803 161.143 318.694C161.182 318.586 161.204 318.479 161.204 318.379C161.204 318.082 161.008 317.939 160.729 317.991Z" fill="white"/>
<path d="M98.2695 354.815C98.2695 355.638 97.762 356.592 97.1426 356.957C96.5233 357.312 96.0255 356.927 96.0255 356.105C96.0255 355.282 96.5233 354.318 97.1426 353.963C97.762 353.607 98.2695 353.982 98.2695 354.815Z" fill="#BA68C8"/>
<path opacity="0.5" d="M98.2695 354.815C98.2695 355.638 97.762 356.592 97.1426 356.957C96.5233 357.312 96.0255 356.927 96.0255 356.105C96.0255 355.282 96.5233 354.318 97.1426 353.963C97.762 353.607 98.2695 353.982 98.2695 354.815Z" fill="white"/>
<path d="M97.8721 355.043C97.8721 355.574 97.5441 356.191 97.1443 356.426C96.7444 356.656 96.4229 356.407 96.4229 355.876C96.4229 355.344 96.7436 354.722 97.1443 354.492C97.5441 354.263 97.8721 354.506 97.8721 355.043Z" fill="#BA68C8"/>
</g>
</g>
<defs>
<clipPath id="clip0_80_15">
<rect width="383" height="532" rx="12" fill="white"/>
</clipPath>
<clipPath id="clip1_80_15">
<rect width="408" height="408" fill="white" transform="translate(-12.5 140)"/>
</clipPath>
</defs>
</svg>
