<svg width="17" height="18" viewBox="0 0 17 18" fill="none" xmlns="http://www.w3.org/2000/svg">
<path d="M0.861302 8.99992C0.861302 8.47184 1.28439 8.04395 1.80611 8.04395H14.8579C15.3796 8.04395 15.8027 8.47184 15.8027 8.99992C15.8027 9.528 15.3796 9.9559 14.8579 9.9559H1.80611C1.28439 9.9559 0.861302 9.528 0.861302 8.99992Z" fill="#333333"/>
<path d="M7.9168 16.1385C7.9168 15.8939 8.00902 15.649 8.19344 15.4626L14.5804 8.99998L8.19344 2.53757C7.82459 2.16455 7.82459 1.55884 8.19344 1.18582C8.56249 0.81241 9.16074 0.81241 9.52959 1.18582L16.5847 8.3241C16.7619 8.50345 16.8613 8.74646 16.8613 8.99998C16.8613 9.25351 16.7617 9.4967 16.5847 9.67585L9.52959 16.8143C9.16055 17.1877 8.5623 17.1877 8.19344 16.8143C8.00902 16.6277 7.9168 16.383 7.9168 16.1385Z" fill="#333333"/>
</svg>
