<svg width="260" height="72" viewBox="0 0 260 72" fill="none" xmlns="http://www.w3.org/2000/svg">
<path d="M49.7246 27.7345C48.589 28.5434 47.9234 30.2565 49.178 32.3047C50.4327 34.3529 68.3574 48.1785 69.0147 48.5624C69.672 48.9463 70.3296 49.0102 72.0017 47.6665C73.675 46.3221 87.6538 35.8211 88.0145 35.5052C88.5885 35.003 88.7318 33.777 88.0145 33.201C88.0145 33.201 71.0797 45.8743 70.5252 46.3863C69.9707 46.8984 69.1081 46.0664 69.2703 44.9783C69.433 43.8903 69.5524 43.7621 71.7034 42.0978C73.8543 40.4334 86.0499 31.1907 86.6032 30.7821C87.2298 30.3194 87.2449 29.5017 86.2183 28.7782C84.7914 27.7728 69.3719 16.8062 68.8558 16.4223C68.3385 16.0384 67.623 15.689 66.5477 16.4571C65.4723 17.2255 51.8108 26.248 49.7246 27.7345Z" fill="#333333"/>
<path d="M69.0154 49.9109C68.5841 49.6587 60.7194 43.6203 55.0068 38.9187V48.7216C55.0021 55.8774 75.1632 59.7008 81.8426 50.904V41.5347C77.7395 44.6349 72.9401 48.2617 72.0024 49.0146C70.3304 50.3587 69.6727 50.2948 69.0154 49.9109Z" fill="#333333"/>
<path d="M77.5456 39.1626C77.5456 39.1626 80.5432 40.6697 80.7565 46.7343L79.3042 46.334L78.142 48.8018C77.6504 42.1609 74.9736 41.1982 74.9736 41.1982L77.5456 39.1626Z" fill="#D6BBEA"/>
<path d="M103.516 26.24V44H100.156V26.24H103.516ZM119.196 37.064C119.196 37.544 119.164 37.976 119.1 38.36H109.38C109.46 39.32 109.796 40.072 110.388 40.616C110.98 41.16 111.708 41.432 112.572 41.432C113.82 41.432 114.708 40.896 115.236 39.824H118.86C118.476 41.104 117.74 42.16 116.652 42.992C115.564 43.808 114.228 44.216 112.644 44.216C111.364 44.216 110.212 43.936 109.188 43.376C108.18 42.8 107.388 41.992 106.812 40.952C106.252 39.912 105.972 38.712 105.972 37.352C105.972 35.976 106.252 34.768 106.812 33.728C107.372 32.688 108.156 31.888 109.164 31.328C110.172 30.768 111.332 30.488 112.644 30.488C113.908 30.488 115.036 30.76 116.028 31.304C117.036 31.848 117.812 32.624 118.356 33.632C118.916 34.624 119.196 35.768 119.196 37.064ZM115.716 36.104C115.7 35.24 115.388 34.552 114.78 34.04C114.172 33.512 113.428 33.248 112.548 33.248C111.716 33.248 111.012 33.504 110.436 34.016C109.876 34.512 109.532 35.208 109.404 36.104H115.716ZM120.784 37.304C120.784 35.96 121.048 34.768 121.576 33.728C122.12 32.688 122.848 31.888 123.76 31.328C124.688 30.768 125.72 30.488 126.856 30.488C127.848 30.488 128.712 30.688 129.448 31.088C130.2 31.488 130.8 31.992 131.248 32.6V30.704H134.632V44H131.248V42.056C130.816 42.68 130.216 43.2 129.448 43.616C128.696 44.016 127.824 44.216 126.832 44.216C125.712 44.216 124.688 43.928 123.76 43.352C122.848 42.776 122.12 41.968 121.576 40.928C121.048 39.872 120.784 38.664 120.784 37.304ZM131.248 37.352C131.248 36.536 131.088 35.84 130.768 35.264C130.448 34.672 130.016 34.224 129.472 33.92C128.928 33.6 128.344 33.44 127.72 33.44C127.096 33.44 126.52 33.592 125.992 33.896C125.464 34.2 125.032 34.648 124.696 35.24C124.376 35.816 124.216 36.504 124.216 37.304C124.216 38.104 124.376 38.808 124.696 39.416C125.032 40.008 125.464 40.464 125.992 40.784C126.536 41.104 127.112 41.264 127.72 41.264C128.344 41.264 128.928 41.112 129.472 40.808C130.016 40.488 130.448 40.04 130.768 39.464C131.088 38.872 131.248 38.168 131.248 37.352ZM141.274 32.768C141.706 32.064 142.266 31.512 142.954 31.112C143.658 30.712 144.458 30.512 145.354 30.512V34.04H144.466C143.41 34.04 142.61 34.288 142.066 34.784C141.538 35.28 141.274 36.144 141.274 37.376V44H137.914V30.704H141.274V32.768ZM154.985 30.512C156.569 30.512 157.849 31.016 158.825 32.024C159.801 33.016 160.289 34.408 160.289 36.2V44H156.929V36.656C156.929 35.6 156.665 34.792 156.137 34.232C155.609 33.656 154.889 33.368 153.977 33.368C153.049 33.368 152.313 33.656 151.769 34.232C151.241 34.792 150.977 35.6 150.977 36.656V44H147.617V30.704H150.977V32.36C151.425 31.784 151.993 31.336 152.681 31.016C153.385 30.68 154.153 30.512 154.985 30.512ZM171.26 44.168C169.692 44.168 168.252 43.8 166.94 43.064C165.628 42.328 164.588 41.312 163.82 40.016C163.052 38.704 162.668 37.224 162.668 35.576C162.668 33.944 163.052 32.48 163.82 31.184C164.588 29.872 165.628 28.848 166.94 28.112C168.252 27.376 169.692 27.008 171.26 27.008C172.844 27.008 174.284 27.376 175.58 28.112C176.892 28.848 177.924 29.872 178.676 31.184C179.444 32.48 179.828 33.944 179.828 35.576C179.828 37.224 179.444 38.704 178.676 40.016C177.924 41.312 176.892 42.328 175.58 43.064C174.268 43.8 172.828 44.168 171.26 44.168ZM171.26 41.168C172.268 41.168 173.156 40.944 173.924 40.496C174.692 40.032 175.292 39.376 175.724 38.528C176.156 37.68 176.372 36.696 176.372 35.576C176.372 34.456 176.156 33.48 175.724 32.648C175.292 31.8 174.692 31.152 173.924 30.704C173.156 30.256 172.268 30.032 171.26 30.032C170.252 30.032 169.356 30.256 168.572 30.704C167.804 31.152 167.204 31.8 166.772 32.648C166.34 33.48 166.124 34.456 166.124 35.576C166.124 36.696 166.34 37.68 166.772 38.528C167.204 39.376 167.804 40.032 168.572 40.496C169.356 40.944 170.252 41.168 171.26 41.168ZM187.872 40.904L191.232 30.704H194.808L189.888 44H185.808L180.912 30.704H184.512L187.872 40.904ZM195.831 37.304C195.831 35.96 196.095 34.768 196.623 33.728C197.167 32.688 197.895 31.888 198.807 31.328C199.735 30.768 200.767 30.488 201.903 30.488C202.895 30.488 203.759 30.688 204.495 31.088C205.247 31.488 205.847 31.992 206.295 32.6V30.704H209.679V44H206.295V42.056C205.863 42.68 205.263 43.2 204.495 43.616C203.743 44.016 202.871 44.216 201.879 44.216C200.759 44.216 199.735 43.928 198.807 43.352C197.895 42.776 197.167 41.968 196.623 40.928C196.095 39.872 195.831 38.664 195.831 37.304ZM206.295 37.352C206.295 36.536 206.135 35.84 205.815 35.264C205.495 34.672 205.063 34.224 204.519 33.92C203.975 33.6 203.391 33.44 202.767 33.44C202.143 33.44 201.567 33.592 201.039 33.896C200.511 34.2 200.079 34.648 199.743 35.24C199.423 35.816 199.263 36.504 199.263 37.304C199.263 38.104 199.423 38.808 199.743 39.416C200.079 40.008 200.511 40.464 201.039 40.784C201.583 41.104 202.159 41.264 202.767 41.264C203.391 41.264 203.975 41.112 204.519 40.808C205.063 40.488 205.495 40.04 205.815 39.464C206.135 38.872 206.295 38.168 206.295 37.352Z" fill="#333333"/>
</svg>
