<svg width="61" height="61" viewBox="0 0 61 61" fill="none" xmlns="http://www.w3.org/2000/svg">
<rect width="60.0003" height="60" transform="translate(0.558594 0.276855)" fill="white"/>
<path d="M11.7832 22.0113C10.6476 22.8202 9.98199 24.5333 11.2366 26.5816C12.4913 28.6298 30.416 42.4554 31.0733 42.8393C31.7306 43.2232 32.3882 43.2871 34.0603 41.9433C35.7336 40.5989 49.7124 30.0979 50.0731 29.7821C50.6471 29.2798 50.7903 28.0538 50.0731 27.4778C50.0731 27.4778 33.1383 40.1511 32.5838 40.6632C32.0293 41.1752 31.1667 40.3432 31.3289 39.2552C31.4916 38.1671 31.611 38.039 33.762 36.3746C35.9129 34.7103 48.1085 25.4676 48.6618 25.059C49.2884 24.5963 49.3035 23.7785 48.2769 23.0551C46.85 22.0496 31.4305 11.0831 30.9144 10.6992C30.3971 10.3153 29.6816 9.9659 28.6063 10.734C27.5309 11.5024 13.8694 20.5248 11.7832 22.0113Z" fill="#333333"/>
<path d="M31.074 44.1877C30.6427 43.9355 22.778 37.8971 17.0654 33.1956V42.9984C17.0607 50.1543 37.2218 53.9776 43.9012 45.1808V35.8116C39.7981 38.9118 34.9987 42.5386 34.061 43.2915C32.3889 44.6356 31.7313 44.5716 31.074 44.1877Z" fill="#333333"/>
<path d="M39.6042 33.4395C39.6042 33.4395 42.6018 34.9465 42.8151 41.0112L41.3628 40.6108L40.2006 43.0787C39.709 36.4378 37.0322 35.475 37.0322 35.475L39.6042 33.4395Z" fill="#D6BBEA"/>
</svg>
