<svg width="21" height="25" viewBox="0 0 21 25" fill="none" xmlns="http://www.w3.org/2000/svg">
<g clip-path="url(#clip0_723_3608)">
<path d="M4.5 0.0722656C2.01562 0.0722656 0 2.08789 0 4.57227V19.5723C0 22.0566 2.01562 24.0723 4.5 24.0723H19.5C20.3297 24.0723 21 23.402 21 22.5723C21 21.7426 20.3297 21.0723 19.5 21.0723V18.0723C20.3297 18.0723 21 17.402 21 16.5723V1.57227C21 0.742578 20.3297 0.0722656 19.5 0.0722656H4.5ZM4.5 18.0723H16.5V21.0723H4.5C3.67031 21.0723 3 20.402 3 19.5723C3 18.7426 3.67031 18.0723 4.5 18.0723ZM6 6.82227C6 6.40977 6.3375 6.07227 6.75 6.07227H15.75C16.1625 6.07227 16.5 6.40977 16.5 6.82227C16.5 7.23477 16.1625 7.57227 15.75 7.57227H6.75C6.3375 7.57227 6 7.23477 6 6.82227ZM6.75 9.07227H15.75C16.1625 9.07227 16.5 9.40977 16.5 9.82227C16.5 10.2348 16.1625 10.5723 15.75 10.5723H6.75C6.3375 10.5723 6 10.2348 6 9.82227C6 9.40977 6.3375 9.07227 6.75 9.07227Z" fill="white"/>
</g>
<defs>
<clipPath id="clip0_723_3608">
<rect width="21" height="24" fill="white" transform="translate(0 0.0722656)"/>
</clipPath>
</defs>
</svg>
